SplineFontDB: 3.2
FontName: Inconsolata-UltraCondensedBold
FullName: Inconsolata Ultra Condensed Bold
FamilyName: Inconsolata Ultra Condensed Bold
Weight: Bold
Copyright: Copyright 2006 The Inconsolata Project Authors (https://github.com/cyrealtype/Inconsolata)
Version: 3.000; ttfautohint (v1.8.3)
ItalicAngle: -9
UnderlinePosition: -297
UnderlineWidth: 102
Ascent: 1802
Descent: 246
InvalidEm: 0
sfntRevision: 0x00030000
LayerCount: 2
Layer: 0 1 "Back" 1
Layer: 1 1 "Fore" 0
XUID: [1021 992 -142618737 4307]
StyleMap: 0x0040
FSType: 0
OS2Version: 4
OS2_WeightWidthSlopeOnly: 0
OS2_UseTypoMetrics: 1
CreationTime: 1576097233
ModificationTime: 1732402469
PfmFamily: 81
TTFWeight: 700
TTFWidth: 1
LineGap: 0
VLineGap: 0
Panose: 0 0 0 0 0 0 0 0 0 0
OS2TypoAscent: 1759
OS2TypoAOffset: 0
OS2TypoDescent: -389
OS2TypoDOffset: 0
OS2TypoLinegap: 0
OS2WinAscent: 2056
OS2WinAOffset: 0
OS2WinDescent: 930
OS2WinDOffset: 0
HheadAscent: 1759
HheadAOffset: 0
HheadDescent: -389
HheadDOffset: 0
OS2SubXSize: 1331
OS2SubYSize: 1229
OS2SubXOff: 0
OS2SubYOff: 154
OS2SupXSize: 1331
OS2SupYSize: 1229
OS2SupXOff: 0
OS2SupYOff: 717
OS2StrikeYSize: 102
OS2StrikeYPos: 571
OS2CapHeight: 1276
OS2XHeight: 952
OS2Vendor: 'CYRE'
OS2CodePages: 60000193.cdd40000
OS2UnicodeRanges: a00000ff.0000f9eb.00000020.00000000
Lookup: 1 0 0 "'aalt' Access All Alternates in Latin lookup 0" { "'aalt' Access All Alternates in Latin lookup 0 subtable"  } ['aalt' ('DFLT' <'dflt' > 'latn' <'AZE ' 'CAT ' 'CRT ' 'KAZ ' 'MOL ' 'ROM ' 'TAT ' 'TRK ' 'dflt' > ) ]
Lookup: 3 0 0 "'aalt' Access All Alternates in Latin lookup 1" { "'aalt' Access All Alternates in Latin lookup 1 subtable"  } ['aalt' ('DFLT' <'dflt' > 'latn' <'AZE ' 'CAT ' 'CRT ' 'KAZ ' 'MOL ' 'ROM ' 'TAT ' 'TRK ' 'dflt' > ) ]

StartChar: A
Encoding: 65 65 1
Width: 446
VWidth: 2441
GlyphClass: 2
Flags: HW
AnchorPoint: "Anchor-3" 223 0 basechar 0
AnchorPoint: "Anchor-2" 119 0 basechar 0
AnchorPoint: "Anchor-0" 359.902 1521 basechar 0
LayerCount: 2
Fore
SplineSet
275.483398438 988 m 1,0,-1
 164.260742188 532 l 1,1,-1
 242.260742188 532 l 1,2,-1
 275.483398438 988 l 1,0,-1
203 0 m 1,3,-1
 229.760742188 371 l 1,4,-1
 125.760742188 371 l 1,5,-1
 33 0 l 1,6,-1
 -105 0 l 1,7,-1
 319.020507812 1547 l 1,8,-1
 409.020507812 1547 l 1,9,-1
 343 0 l 1,10,-1
 203 0 l 1,3,-1
EndSplineSet
Substitution2: "Single Substitution lookup 29 subtable" ordfeminine
Substitution2: "'aalt' Access All Alternates in Latin lookup 0 subtable" ordfeminine
EndChar

StartChar: AE
Encoding: 198 198 26
Width: 435
VWidth: 2441
GlyphClass: 1
Flags: HW
LayerCount: 2
Fore
SplineSet
157.75390625 573 m 1,0,-1
 207.75390625 573 l 1,1,-1
 328.020507812 1225 l 1,2,-1
 157.75390625 573 l 1,0,-1
-109 0 m 1,3,-1
 315.219726562 1523 l 1,4,-1
 580.219726562 1523 l 1,5,-1
 549.651367188 1330 l 1,6,-1
 442.651367188 1330 l 1,7,-1
 373.279296875 892 l 1,8,-1
 455.279296875 892 l 1,9,-1
 424.235351562 696 l 1,10,-1
 342.235351562 696 l 1,11,-1
 262.568359375 193 l 1,12,-1
 367.568359375 193 l 1,13,-1
 337 0 l 1,14,-1
 117 0 l 1,15,-1
 179.245117188 393 l 1,16,-1
 111.245117188 393 l 1,17,-1
 3 0 l 1,18,-1
 -109 0 l 1,3,-1
EndSplineSet
EndChar

StartChar: B
Encoding: 66 66 28
Width: 512
VWidth: 2441
GlyphClass: 2
Flags: HW
AnchorPoint: "Anchor-2" 159 0 basechar 0
AnchorPoint: "Anchor-0" 399.902 1521 basechar 0
LayerCount: 2
Fore
SplineSet
115.568359375 193 m 1,0,-1
 181.568359375 193 l 2,1,2
 221.568359375 193 221.568359375 193 254.041992188 246.5 c 128,-1,3
 286.515625 300 286.515625 300 308.213867188 437 c 128,-1,4
 329.913085938 574 329.913085938 574 314.6328125 648 c 128,-1,5
 299.353515625 722 299.353515625 722 247.353515625 722 c 2,6,-1
 199.353515625 722 l 1,7,-1
 115.568359375 193 l 1,0,-1
230.080078125 916 m 1,8,-1
 274.080078125 916 l 2,9,10
 326.080078125 916 326.080078125 916 354.44921875 972 c 128,-1,11
 382.819335938 1028 382.819335938 1028 399.291015625 1132 c 0,12,13
 413.704101562 1223 413.704101562 1223 403.51953125 1275.5 c 128,-1,14
 393.334960938 1328 393.334960938 1328 350.334960938 1328 c 2,15,-1
 295.334960938 1328 l 1,16,-1
 230.080078125 916 l 1,8,-1
-62 0 m 1,17,-1
 178.90234375 1521 l 1,18,-1
 373.90234375 1521 l 2,19,20
 430.90234375 1521 430.90234375 1521 478.754882812 1488.5 c 128,-1,21
 526.607421875 1456 526.607421875 1456 547.436523438 1376 c 128,-1,22
 568.266601562 1296 568.266601562 1296 545.6171875 1153 c 0,23,24
 519.80078125 990 519.80078125 990 484.159179688 916.5 c 128,-1,25
 448.518554688 843 448.518554688 843 395.083007812 815 c 1,26,27
 437.540039062 780 437.540039062 780 458.572265625 685.5 c 128,-1,28
 479.60546875 591 479.60546875 591 453.629882812 427 c 0,29,30
 419.260742188 210 419.260742188 210 339.629882812 105 c 128,-1,31
 260 0 260 0 131 0 c 2,32,-1
 -62 0 l 1,17,-1
EndSplineSet
EndChar

StartChar: C
Encoding: 67 67 29
Width: 491
VWidth: 2441
GlyphClass: 2
Flags: HW
AnchorPoint: "Anchor-2" 180 0 basechar 0
AnchorPoint: "Anchor-0" 410.902 1521 basechar 0
LayerCount: 2
Fore
SplineSet
179.19921875 -24 m 0,0,1
 112.19921875 -24 112.19921875 -24 64.810546875 43 c 128,-1,2
 17.421875 110 17.421875 110 9.1103515625 278.5 c 128,-1,3
 0.7978515625 447 0.7978515625 447 47.10546875 752 c 0,4,5
 86.54296875 1001 86.54296875 1001 135.93359375 1155 c 128,-1,6
 185.325195312 1309 185.325195312 1309 239.733398438 1390.5 c 128,-1,7
 294.141601562 1472 294.141601562 1472 345.814453125 1501.5 c 128,-1,8
 397.486328125 1531 397.486328125 1531 439.486328125 1531 c 0,9,10
 508.486328125 1531 508.486328125 1531 544.567382812 1481 c 128,-1,11
 580.6484375 1431 580.6484375 1431 589.977539062 1351 c 1,12,-1
 510.04296875 1162 l 1,13,-1
 498.55859375 1140 l 1,14,-1
 487.825195312 1148 l 1,15,16
 484.834960938 1167 484.834960938 1167 491.26953125 1195 c 0,17,18
 492.07421875 1198.5 492.07421875 1198.5 492.650390625 1202.140625 c 0,19,20
 496.686523438 1227.625 496.686523438 1227.625 489.564453125 1260 c 1,21,22
 475.741210938 1299 475.741210938 1299 456.196289062 1314.5 c 128,-1,23
 436.651367188 1330 436.651367188 1330 413.651367188 1330 c 0,24,25
 379.651367188 1330 379.651367188 1330 341.732421875 1280 c 128,-1,26
 303.8125 1230 303.8125 1230 265.59375 1105.5 c 128,-1,27
 227.375 981 227.375 981 192.213867188 759 c 0,28,29
 157.844726562 542 157.844726562 542 156.913085938 413 c 128,-1,30
 155.981445312 284 155.981445312 284 178.453125 227 c 128,-1,31
 200.92578125 170 200.92578125 170 233.92578125 170 c 0,32,33
 269.92578125 170 269.92578125 170 306.236328125 213 c 128,-1,34
 342.546875 256 342.546875 256 374.524414062 319 c 1,35,-1
 381.381835938 135 l 1,36,37
 336.552734375 54 336.552734375 54 288.875976562 15 c 128,-1,38
 241.19921875 -24 241.19921875 -24 179.19921875 -24 c 0,0,1
EndSplineSet
EndChar

StartChar: D
Encoding: 68 68 36
Width: 503
VWidth: 2441
GlyphClass: 2
Flags: HW
AnchorPoint: "Anchor-4" 274.688 762 basechar 0
AnchorPoint: "Anchor-2" 154 0 basechar 0
AnchorPoint: "Anchor-0" 363.902 1521 basechar 0
LayerCount: 2
Fore
SplineSet
116.250976562 191 m 1,0,-1
 141.250976562 191 l 2,1,2
 202.250976562 191 202.250976562 191 256.87109375 327.5 c 128,-1,3
 311.490234375 464 311.490234375 464 355.6796875 743 c 0,4,5
 400.185546875 1024 400.185546875 1024 398.759765625 1176 c 128,-1,6
 397.334960938 1328 397.334960938 1328 333.334960938 1328 c 2,7,-1
 296.334960938 1328 l 1,8,-1
 116.250976562 191 l 1,0,-1
-63.31640625 -2 m 1,9,-1
 177.90234375 1521 l 1,10,-1
 343.90234375 1521 l 2,11,12
 425.90234375 1521 425.90234375 1521 473.330078125 1479.5 c 128,-1,13
 520.756835938 1438 520.756835938 1438 535.91796875 1338 c 128,-1,14
 551.080078125 1238 551.080078125 1238 545.172851562 1106 c 128,-1,15
 539.266601562 974 539.266601562 974 504.10546875 752 c 0,16,17
 384.682617188 -2.0009765625 384.682617188 -2.0009765625 91.4599609375 -2.0009765625 c 0,18,19
 91.072265625 -2.0009765625 91.072265625 -2.0009765625 90.68359375 -2 c 2,20,-1
 -63.31640625 -2 l 1,9,-1
EndSplineSet
EndChar

StartChar: Eth
Encoding: 208 208 37
Width: 451
VWidth: 2441
GlyphClass: 1
Flags: HW
LayerCount: 2
Fore
SplineSet
98.568359375 193 m 1,0,-1
 117.568359375 193 l 2,1,2
 189.568359375 193 189.568359375 193 237.133789062 326 c 128,-1,3
 284.698242188 459 284.698242188 459 330.313476562 747 c 0,4,5
 376.719726562 1040 376.719726562 1040 370.630859375 1181.5 c 128,-1,6
 364.54296875 1323 364.54296875 1323 294.54296875 1323 c 2,7,-1
 277.54296875 1323 l 1,8,-1
 209.912109375 896 l 1,9,-1
 270.912109375 896 l 1,10,-1
 242.245117188 715 l 1,11,-1
 181.245117188 715 l 1,12,-1
 98.568359375 193 l 1,0,-1
-69.31640625 -2 m 1,13,-1
 44.2451171875 715 l 1,14,-1
 12.2451171875 715 l 1,15,-1
 40.912109375 896 l 1,16,-1
 72.912109375 896 l 1,17,-1
 171.90234375 1521 l 1,18,-1
 329.90234375 1521 l 2,19,20
 387.90234375 1521 387.90234375 1521 426.330078125 1479.5 c 128,-1,21
 464.756835938 1438 464.756835938 1438 483.541015625 1373.5 c 128,-1,22
 502.325195312 1309 502.325195312 1309 506.921875 1237 c 0,23,24
 508.735351562 1179 508.735351562 1179 503.100585938 1064.5 c 128,-1,25
 497.46484375 950 497.46484375 950 466.580078125 755 c 0,26,27
 419.698242188 459 419.698242188 459 361.14453125 294.5 c 128,-1,28
 302.58984375 130 302.58984375 130 231.63671875 64 c 128,-1,29
 160.68359375 -2 160.68359375 -2 77.68359375 -2 c 2,30,-1
 -69.31640625 -2 l 1,13,-1
EndSplineSet
EndChar

StartChar: E
Encoding: 69 69 42
Width: 512
VWidth: 2441
GlyphClass: 2
Flags: HW
AnchorPoint: "Anchor-3" 391.801 24 basechar 0
AnchorPoint: "Anchor-2" 163 0 basechar 0
AnchorPoint: "Anchor-0" 414.902 1521 basechar 0
LayerCount: 2
Fore
SplineSet
-62 0 m 1,0,-1
 179.219726562 1523 l 1,1,-1
 627.219726562 1523 l 1,2,-1
 596.651367188 1330 l 1,3,-1
 311.651367188 1330 l 1,4,-1
 241.645507812 888 l 1,5,-1
 470.645507812 888 l 1,6,-1
 440.7109375 699 l 1,7,-1
 211.7109375 699 l 1,8,-1
 131.568359375 193 l 1,9,-1
 414.568359375 193 l 1,10,-1
 384 0 l 1,11,-1
 -62 0 l 1,0,-1
EndSplineSet
EndChar

StartChar: uni01B8
Encoding: 440 440 65
Width: 512
VWidth: 2441
GlyphClass: 1
Flags: HW
LayerCount: 2
Fore
SplineSet
187.723632812 -27 m 0,0,1
 71.7236328125 -27 71.7236328125 -27 21.0966796875 89 c 128,-1,2
 -29.53125 205 -29.53125 205 4.521484375 420 c 0,3,4
 35.08984375 613 35.08984375 613 109.258789062 743.5 c 128,-1,5
 183.427734375 874 183.427734375 874 271.396484375 918 c 1,6,-1
 180.443359375 1335 l 1,7,-1
 209.90234375 1521 l 1,8,-1
 591.90234375 1521 l 1,9,-1
 561.334960938 1328 l 1,10,-1
 347.334960938 1328 l 1,11,-1
 423.40625 937 l 1,12,-1
 394.10546875 752 l 1,13,14
 382.318359375 753.197265625 382.318359375 753.197265625 371.224609375 753.197265625 c 0,15,16
 289.68359375 753.197265625 289.68359375 753.197265625 245.547851562 688.5 c 0,17,18
 195.40625 615 195.40625 615 166.421875 432 c 0,19,20
 142.505859375 281 142.505859375 281 166.3984375 223.5 c 128,-1,21
 190.291992188 166 190.291992188 166 240.291992188 166 c 0,22,23
 297.291992188 166 297.291992188 166 341.260742188 210 c 1,24,25
 359.537109375 237 359.537109375 237 365.4921875 252.5 c 128,-1,26
 371.447265625 268 371.447265625 268 370.297851562 286 c 1,27,-1
 379.515625 300 l 1,28,-1
 396.297851562 286 l 1,29,-1
 401.838867188 100 l 1,30,31
 349.276367188 27 349.276367188 27 297 0 c 128,-1,32
 244.723632812 -27 244.723632812 -27 187.723632812 -27 c 0,0,1
EndSplineSet
EndChar

StartChar: F
Encoding: 70 70 66
Width: 512
VWidth: 2441
GlyphClass: 2
Flags: HW
AnchorPoint: "Anchor-2" 152 0 basechar 0
AnchorPoint: "Anchor-0" 392.902 1521 basechar 0
LayerCount: 2
Fore
SplineSet
-62 0 m 1,0,-1
 179.219726562 1523 l 1,1,-1
 627.219726562 1523 l 1,2,-1
 596.651367188 1330 l 1,3,-1
 313.651367188 1330 l 1,4,-1
 248.080078125 916 l 1,5,-1
 475.080078125 916 l 1,6,-1
 444.829101562 725 l 1,7,-1
 217.829101562 725 l 1,8,-1
 103 0 l 1,9,-1
 -62 0 l 1,0,-1
EndSplineSet
EndChar

StartChar: G
Encoding: 71 71 67
Width: 512
VWidth: 2441
GlyphClass: 2
Flags: HW
AnchorPoint: "Anchor-2" 181 0 basechar 0
AnchorPoint: "Anchor-0" 430.902 1521 basechar 0
LayerCount: 2
Fore
SplineSet
188.19921875 -24 m 0,0,1
 64.19921875 -24 64.19921875 -24 29.474609375 164 c 128,-1,2
 -5.2490234375 352 -5.2490234375 352 56.6796875 743 c 1,3,4
 62.3359375 782.836914062 62.3359375 782.836914062 68.2744140625 820.328125 c 0,5,6
 98.7060546875 1012.46972656 98.7060546875 1012.46972656 136.533203125 1143 c 0,7,8
 181.741210938 1299 181.741210938 1299 233.283203125 1384.5 c 128,-1,9
 284.825195312 1470 284.825195312 1470 337.209960938 1504 c 128,-1,10
 389.595703125 1538 389.595703125 1538 437.595703125 1538 c 0,11,12
 512.595703125 1538 512.595703125 1538 551.938476562 1486.5 c 128,-1,13
 591.28125 1435 591.28125 1435 597.977539062 1351 c 1,14,-1
 514.377929688 1202 l 1,15,-1
 499.735351562 1179 l 1,16,-1
 489.319335938 1189 l 1,17,18
 488.328125 1208 488.328125 1208 491.288085938 1233 c 128,-1,19
 494.248046875 1258 494.248046875 1258 483.474609375 1291 c 0,20,21
 461.02734375 1345 461.02734375 1345 417.02734375 1345 c 0,22,23
 380.02734375 1345 380.02734375 1345 346.107421875 1295 c 128,-1,24
 312.188476562 1245 312.188476562 1245 277.70703125 1122 c 128,-1,25
 243.225585938 999 243.225585938 999 208.22265625 778 c 0,26,27
 158.015625 461 158.015625 461 162.653320312 313.5 c 128,-1,28
 167.291992188 166 167.291992188 166 214.291992188 166 c 0,29,30
 253.291992188 166 253.291992188 166 284.577148438 212 c 1,31,-1
 341.75390625 573 l 1,32,33
 340.75390625 573 340.75390625 573 266.75390625 573 c 1,34,-1
 297.005859375 764 l 1,35,-1
 507.005859375 764 l 1,36,-1
 405.323242188 122 l 1,37,38
 346.810546875 43 346.810546875 43 292.504882812 9.5 c 128,-1,39
 238.19921875 -24 238.19921875 -24 188.19921875 -24 c 0,0,1
EndSplineSet
EndChar

StartChar: H
Encoding: 72 72 74
Width: 512
VWidth: 2441
GlyphClass: 2
Flags: HW
AnchorPoint: "Anchor-4" 546.688 762 basechar 0
AnchorPoint: "Anchor-2" 426 0 basechar 0
AnchorPoint: "Anchor-0" 507.902 1521 basechar 0
LayerCount: 2
Fore
SplineSet
178.90234375 1521 m 1,0,-1
 341.90234375 1521 l 1,1,-1
 339.209960938 1504 l 1,2,3
 330.993164062 1490 330.993164062 1490 325.799804688 1473 c 128,-1,4
 320.607421875 1456 320.607421875 1456 313.956054688 1414 c 2,5,-1
 231.912109375 896 l 1,6,-1
 362.912109375 896 l 1,7,-1
 461.90234375 1521 l 1,8,-1
 626.90234375 1521 l 1,9,-1
 624.209960938 1504 l 1,10,11
 615.993164062 1490 615.993164062 1490 611.299804688 1473 c 128,-1,12
 606.607421875 1456 606.607421875 1456 599.956054688 1414 c 2,13,-1
 376 0 l 1,14,-1
 221 0 l 1,15,-1
 332.02734375 701 l 1,16,-1
 201.02734375 701 l 1,17,-1
 90 0 l 1,18,-1
 -62 0 l 1,19,-1
 178.90234375 1521 l 1,0,-1
EndSplineSet
EndChar

StartChar: Hbar
Encoding: 294 294 75
Width: 444
VWidth: 2441
GlyphClass: 2
Flags: HW
AnchorPoint: "Anchor-4" 471.688 762 basechar 0
AnchorPoint: "Anchor-2" 351 0 basechar 0
AnchorPoint: "Anchor-0" 451.902 1521 basechar 0
LayerCount: 2
Fore
SplineSet
196.912109375 896 m 1,0,-1
 311.912109375 896 l 1,1,-1
 358.953125 1193 l 1,2,-1
 243.953125 1193 l 1,3,-1
 196.912109375 896 l 1,0,-1
78.953125 1193 m 1,4,-1
 109.204101562 1384 l 1,5,-1
 141.204101562 1384 l 1,6,-1
 162.90234375 1521 l 1,7,-1
 305.90234375 1521 l 1,8,-1
 303.209960938 1504 l 1,9,10
 295.993164062 1490 295.993164062 1490 290.799804688 1473 c 128,-1,11
 285.607421875 1456 285.607421875 1456 278.956054688 1414 c 2,12,-1
 274.204101562 1384 l 1,13,-1
 389.204101562 1384 l 1,14,-1
 410.90234375 1521 l 1,15,-1
 555.90234375 1521 l 1,16,-1
 553.209960938 1504 l 1,17,18
 545.993164062 1490 545.993164062 1490 541.299804688 1473 c 128,-1,19
 536.607421875 1456 536.607421875 1456 529.956054688 1414 c 2,20,-1
 525.204101562 1384 l 1,21,-1
 557.204101562 1384 l 1,22,-1
 526.953125 1193 l 1,23,-1
 494.953125 1193 l 1,24,-1
 306 0 l 1,25,-1
 170 0 l 1,26,-1
 281.02734375 701 l 1,27,-1
 166.02734375 701 l 1,28,-1
 55 0 l 1,29,-1
 -78 0 l 1,30,-1
 110.953125 1193 l 1,31,-1
 78.953125 1193 l 1,4,-1
EndSplineSet
EndChar

StartChar: I
Encoding: 73 73 79
Width: 506
VWidth: 2441
GlyphClass: 2
Flags: HW
AnchorPoint: "Anchor-3" 294 0 basechar 0
AnchorPoint: "Anchor-2" 170 0 basechar 0
AnchorPoint: "Anchor-0" 396.902 1521 basechar 0
LayerCount: 2
Fore
SplineSet
-62 0 m 1,0,-1
 -31.431640625 193 l 1,1,-1
 100.568359375 193 l 1,2,-1
 279.54296875 1323 l 1,3,-1
 151.54296875 1323 l 1,4,-1
 182.90234375 1521 l 1,5,-1
 613.90234375 1521 l 1,6,-1
 582.54296875 1323 l 1,7,-1
 452.54296875 1323 l 1,8,-1
 273.250976562 191 l 1,9,-1
 410.250976562 191 l 1,10,-1
 380 0 l 1,11,-1
 -62 0 l 1,0,-1
EndSplineSet
EndChar

StartChar: J
Encoding: 74 74 94
Width: 512
VWidth: 2441
GlyphClass: 2
Flags: HW
AnchorPoint: "Anchor-2" 153 0 basechar 0
AnchorPoint: "Anchor-0" 476.902 1521 basechar 0
LayerCount: 2
Fore
SplineSet
91.7236328125 -27 m 0,0,1
 46.7236328125 -27 46.7236328125 -27 9.1337890625 4 c 128,-1,2
 -28.45703125 35 -28.45703125 35 -46.478515625 98 c 1,3,-1
 26.515625 300 l 1,4,-1
 36.31640625 324 l 1,5,-1
 48.5244140625 319 l 1,6,7
 55.83203125 302 55.83203125 302 51.2392578125 273 c 128,-1,8
 46.6455078125 244 46.6455078125 244 60.2607421875 210 c 1,9,10
 81.400390625 173 81.400390625 173 115.400390625 173 c 0,11,12
 144.400390625 173 144.400390625 173 175.645507812 244 c 128,-1,13
 206.890625 315 206.890625 315 237.458984375 508 c 2,14,-1
 367.334960938 1328 l 1,15,-1
 245.334960938 1328 l 1,16,-1
 275.90234375 1521 l 1,17,-1
 626.90234375 1521 l 1,18,-1
 596.334960938 1328 l 1,19,-1
 513.334960938 1328 l 1,20,-1
 383.776367188 510 l 2,21,22
 350.990234375 303 350.990234375 303 308.879882812 185.5 c 128,-1,23
 266.770507812 68 266.770507812 68 212.747070312 20.5 c 128,-1,24
 158.723632812 -27 158.723632812 -27 91.7236328125 -27 c 0,0,1
EndSplineSet
EndChar

StartChar: K
Encoding: 75 75 96
Width: 483
VWidth: 2441
GlyphClass: 1
Flags: HW
LayerCount: 2
Fore
SplineSet
193.840820312 643 m 1,0,-1
 159.329101562 564 l 1,1,-1
 74 0 l 1,2,-1
 -71 0 l 1,3,-1
 169.90234375 1521 l 1,4,-1
 332.90234375 1521 l 1,5,-1
 330.209960938 1504 l 1,6,7
 315.993164062 1490 315.993164062 1490 310.299804688 1473 c 128,-1,8
 304.607421875 1456 304.607421875 1456 297.956054688 1414 c 2,9,-1
 222.72265625 939 l 1,10,-1
 461.803710938 1533 l 1,11,12
 486.01171875 1528 486.01171875 1528 520.45703125 1524.5 c 128,-1,13
 554.90234375 1521 554.90234375 1521 575.90234375 1521 c 2,14,-1
 600.90234375 1521 l 1,15,-1
 312.775390625 832 l 1,16,-1
 377 0 l 1,17,-1
 225.099609375 -12 l 1,18,-1
 193.840820312 643 l 1,0,-1
EndSplineSet
EndChar

StartChar: uni0198
Encoding: 408 408 98
Width: 495
VWidth: 2441
GlyphClass: 1
Flags: HW
LayerCount: 2
Fore
SplineSet
174.90234375 1521 m 1,0,-1
 339.90234375 1521 l 1,1,-1
 337.209960938 1504 l 1,2,3
 322.993164062 1490 322.993164062 1490 316.799804688 1473 c 128,-1,4
 310.607421875 1456 310.607421875 1456 303.956054688 1414 c 2,5,-1
 234.583007812 976 l 1,6,7
 318.328125 1208 318.328125 1208 375.754882812 1327.5 c 128,-1,8
 433.182617188 1447 433.182617188 1447 478.833984375 1489 c 128,-1,9
 524.486328125 1531 524.486328125 1531 570.486328125 1531 c 0,10,11
 580.486328125 1531 580.486328125 1531 594.590820312 1528.5 c 128,-1,12
 608.694335938 1526 608.694335938 1526 615.90234375 1521 c 1,13,-1
 578.365234375 1284 l 1,14,-1
 572.365234375 1284 l 1,15,16
 568.583007812 1298 568.583007812 1298 563.166992188 1308 c 128,-1,17
 557.750976562 1318 557.750976562 1318 541.225585938 1321 c 2,18,-1
 535.225585938 1321 l 2,19,20
 523.225585938 1321 523.225585938 1321 500.840820312 1287 c 128,-1,21
 478.456054688 1253 478.456054688 1253 433.1171875 1153 c 128,-1,22
 387.779296875 1053 387.779296875 1053 307.735351562 857 c 1,23,-1
 382 0 l 1,24,-1
 231.099609375 -12 l 1,25,-1
 197.971679688 587 l 1,26,27
 178.685546875 541 178.685546875 541 157.450195312 489 c 1,28,-1
 80 0 l 1,29,-1
 -66 0 l 1,30,-1
 174.90234375 1521 l 1,0,-1
EndSplineSet
EndChar

StartChar: L
Encoding: 76 76 99
Width: 512
VWidth: 2441
GlyphClass: 2
Flags: HW
AnchorPoint: "Anchor-4" 123.688 762 basechar 0
AnchorPoint: "Anchor-2" 159 0 basechar 0
AnchorPoint: "Anchor-1" 257.757 1116 basechar 0
AnchorPoint: "Anchor-0" 344.902 1521 basechar 0
LayerCount: 2
Fore
SplineSet
178.90234375 1521 m 1,0,-1
 357.90234375 1521 l 1,1,-1
 355.209960938 1504 l 1,2,3
 339.993164062 1490 339.993164062 1490 333.799804688 1473 c 128,-1,4
 327.607421875 1456 327.607421875 1456 320.956054688 1414 c 2,5,-1
 128.360351562 198 l 1,6,-1
 417.360351562 198 l 1,7,-1
 386 0 l 1,8,-1
 -62 0 l 1,9,-1
 178.90234375 1521 l 1,0,-1
EndSplineSet
EndChar

StartChar: uni01C7
Encoding: 455 455 100
Width: 528
VWidth: 2367
GlyphClass: 1
Flags: HW
LayerCount: 2
Fore
SplineSet
-42.8359375 121 m 1,0,-1
 178.90234375 1521 l 1,1,-1
 337.90234375 1521 l 1,2,3
 335.52734375 1506 335.52734375 1506 330.893554688 1502 c 128,-1,4
 326.259765625 1498 326.259765625 1498 321.333984375 1489 c 128,-1,5
 316.409179688 1480 316.409179688 1480 310.70703125 1444 c 2,6,-1
 129.198242188 298 l 1,7,-1
 226.198242188 298 l 1,8,-1
 198.1640625 121 l 1,9,-1
 -42.8359375 121 l 1,0,-1
161.037109375 -246 m 0,10,11
 55.037109375 -246 55.037109375 -246 -2.3916015625 -154 c 1,12,-1
 91.158203125 1 l 1,13,14
 100.782226562 -14 100.782226562 -14 96.515625 -22 c 128,-1,15
 92.248046875 -30 92.248046875 -30 105.60546875 -53 c 0,16,17
 113.86328125 -64 113.86328125 -64 126.67578125 -71.5 c 128,-1,18
 139.487304688 -79 139.487304688 -79 162.487304688 -79 c 0,19,20
 186.487304688 -79 186.487304688 -79 204.922851562 -51 c 128,-1,21
 223.357421875 -23 223.357421875 -23 242.89453125 53 c 128,-1,22
 262.431640625 129 262.431640625 129 285.239257812 273 c 2,23,-1
 454.709960938 1343 l 1,24,-1
 382.709960938 1343 l 1,25,-1
 410.90234375 1521 l 1,26,-1
 626.90234375 1521 l 1,27,-1
 429.555664062 275 l 2,28,29
 427.083007812 258.333007812 427.083007812 258.333007812 424.538085938 242.267578125 c 0,0,0
 396.547851562 65.5419921875 396.547851562 65.5419921875 359.90234375 -38.5 c 128,-1,30
 319.92578125 -152 319.92578125 -152 269.481445312 -199 c 128,-1,31
 219.037109375 -246 219.037109375 -246 161.037109375 -246 c 0,10,11
EndSplineSet
EndChar

StartChar: Lcaron
Encoding: 317 317 102
Width: 512
VWidth: 2441
GlyphClass: 2
Flags: HW
AnchorPoint: "Anchor-4" 123.688 762 basechar 0
AnchorPoint: "Anchor-2" 159 0 basechar 0
AnchorPoint: "Anchor-1" 257.757 1116 basechar 0
AnchorPoint: "Anchor-0" 344.902 1521 basechar 0
LayerCount: 2
Fore
SplineSet
178.90234375 1521 m 1,0,-1
 357.90234375 1521 l 1,1,-1
 355.209960938 1504 l 1,2,3
 339.993164062 1490 339.993164062 1490 333.799804688 1473 c 128,-1,4
 327.607421875 1456 327.607421875 1456 320.956054688 1414 c 2,5,-1
 128.360351562 198 l 1,6,-1
 417.360351562 198 l 1,7,-1
 386 0 l 1,8,-1
 -62 0 l 1,9,-1
 178.90234375 1521 l 1,0,-1
424.126953125 1011 m 1,10,-1
 356.104492188 1074 l 1,11,12
 397.182617188 1125 397.182617188 1125 424.838867188 1176.5 c 128,-1,13
 452.49609375 1228 452.49609375 1228 459.1484375 1270 c 0,14,15
 465.325195312 1309 465.325195312 1309 447.91796875 1338 c 128,-1,16
 430.51171875 1367 430.51171875 1367 439.064453125 1421 c 0,17,18
 447.141601562 1472 447.141601562 1472 477.97265625 1502.5 c 128,-1,19
 508.803710938 1533 508.803710938 1533 542.803710938 1533 c 0,20,21
 575.803710938 1533 575.803710938 1533 597.314453125 1501.5 c 128,-1,22
 618.825195312 1470 618.825195312 1470 607.73828125 1400 c 0,23,24
 592.69140625 1305 592.69140625 1305 545.669921875 1207 c 128,-1,25
 498.6484375 1109 498.6484375 1109 424.126953125 1011 c 1,10,-1
EndSplineSet
EndChar

StartChar: uni01C8
Encoding: 456 456 106
Width: 532
VWidth: 2362
GlyphClass: 1
Flags: HW
LayerCount: 2
Fore
SplineSet
120.037109375 -246 m 0,0,1
 81.037109375 -246 81.037109375 -246 45.5517578125 -217.5 c 128,-1,2
 10.0654296875 -189 10.0654296875 -189 -7.490234375 -142 c 1,3,-1
 83.0185546875 38 l 1,4,5
 93.2763671875 27 93.2763671875 27 86.37109375 5.5 c 128,-1,6
 79.4658203125 -16 79.4658203125 -16 102.555664062 -47 c 0,7,8
 112.813476562 -58 112.813476562 -58 120.91796875 -60.5 c 128,-1,9
 129.021484375 -63 129.021484375 -63 145.021484375 -63 c 0,10,11
 182.021484375 -63 182.021484375 -63 213.891601562 -7 c 128,-1,12
 245.760742188 49 245.760742188 49 267.776367188 188 c 2,13,-1
 397.809570312 1009 l 1,14,-1
 290.809570312 1009 l 1,15,-1
 317.418945312 1177 l 1,16,-1
 549.418945312 1177 l 1,17,-1
 392.202148438 197 l 2,18,19
 354.665039062 -40 354.665039062 -40 284.850585938 -143 c 128,-1,20
 215.037109375 -246 215.037109375 -246 120.037109375 -246 c 0,0,1
-38.8759765625 146 m 1,21,-1
 180.01171875 1528 l 1,22,-1
 328.01171875 1528 l 1,23,24
 324.52734375 1506 324.52734375 1506 318.888671875 1492.5 c 128,-1,25
 313.250976562 1479 313.250976562 1479 308.657226562 1450 c 2,26,-1
 130.633789062 326 l 1,27,-1
 228.633789062 326 l 1,28,-1
 200.124023438 146 l 1,29,-1
 -38.8759765625 146 l 1,21,-1
505.461914062 1373 m 0,30,31
 464.461914062 1373 464.461914062 1373 440.688476562 1406 c 128,-1,32
 416.915039062 1439 416.915039062 1439 423.883789062 1483 c 0,33,34
 431.328125 1530 431.328125 1530 464.896484375 1562 c 128,-1,35
 498.46484375 1594 498.46484375 1594 540.46484375 1594 c 0,36,37
 579.46484375 1594 579.46484375 1594 603.896484375 1562 c 128,-1,38
 628.328125 1530 628.328125 1530 620.883789062 1483 c 0,39,40
 613.915039062 1439 613.915039062 1439 579.188476562 1406 c 128,-1,41
 544.461914062 1373 544.461914062 1373 505.461914062 1373 c 0,30,31
EndSplineSet
EndChar

StartChar: Lslash
Encoding: 321 321 108
Width: 513
VWidth: 2441
GlyphClass: 1
Flags: HW
LayerCount: 2
Fore
SplineSet
-36 0 m 1,0,-1
 50.63671875 547 l 1,1,-1
 2.7763671875 510 l 1,2,-1
 37.9375 732 l 1,3,-1
 86.1142578125 771 l 1,4,-1
 204.90234375 1521 l 1,5,-1
 362.90234375 1521 l 2,6,7
 370.90234375 1521 370.90234375 1521 371.110351562 1516 c 0,8,9
 369.52734375 1506 369.52734375 1506 358.333984375 1489 c 128,-1,10
 347.141601562 1472 347.141601562 1472 339.756835938 1438 c 2,11,-1
 250.745117188 876 l 1,12,-1
 400.692382812 983 l 2,13,14
 418.592773438 995 418.592773438 995 431.809570312 1009 c 1,15,-1
 393.48046875 767 l 1,16,-1
 218.474609375 647 l 1,17,-1
 145.360351562 198 l 1,18,-1
 401.360351562 198 l 1,19,-1
 370 0 l 1,20,-1
 -36 0 l 1,0,-1
EndSplineSet
EndChar

StartChar: M
Encoding: 77 77 109
Width: 497
VWidth: 2441
GlyphClass: 2
Flags: HW
AnchorPoint: "Anchor-2" 154 0 basechar 0
AnchorPoint: "Anchor-0" 394.902 1521 basechar 0
LayerCount: 2
Fore
SplineSet
-70 0 m 1,0,-1
 170.90234375 1521 l 1,1,-1
 282.90234375 1521 l 1,2,-1
 307.158203125 967 l 1,3,-1
 508.219726562 1523 l 1,4,-1
 619.219726562 1523 l 1,5,-1
 378 0 l 1,6,-1
 255 0 l 1,7,-1
 423.135742188 1030 l 1,8,-1
 251.329101562 564 l 1,9,-1
 225.329101562 564 l 1,10,-1
 211.02734375 1023 l 1,11,-1
 53 0 l 1,12,-1
 -70 0 l 1,0,-1
EndSplineSet
EndChar

StartChar: N
Encoding: 78 78 111
Width: 499
VWidth: 2441
GlyphClass: 2
Flags: HW
AnchorPoint: "Anchor-2" 151 0 basechar 0
AnchorPoint: "Anchor-0" 391.902 1521 basechar 0
LayerCount: 2
Fore
SplineSet
175.90234375 1521 m 1,0,-1
 303.90234375 1521 l 1,1,-1
 338.306640625 627 l 1,2,-1
 479.90234375 1521 l 1,3,-1
 623.90234375 1521 l 1,4,-1
 621.209960938 1504 l 1,5,6
 606.993164062 1490 606.993164062 1490 601.299804688 1473 c 128,-1,7
 595.607421875 1456 595.607421875 1456 588.956054688 1414 c 2,8,-1
 365 0 l 1,9,-1
 257 0 l 1,10,-1
 215.366210938 962 l 1,11,-1
 63 0 l 1,12,-1
 -65 0 l 1,13,-1
 175.90234375 1521 l 1,0,-1
EndSplineSet
EndChar

StartChar: Eng
Encoding: 330 330 117
Width: 524
VWidth: 2344
GlyphClass: 2
Flags: HW
AnchorPoint: "Anchor-2" 181.184 159 basechar 0
AnchorPoint: "Anchor-0" 396.902 1521 basechar 0
LayerCount: 2
Fore
SplineSet
492.90234375 1521 m 1,0,-1
 626.90234375 1521 l 1,1,2
 624.84375 1508 624.84375 1508 620.1015625 1497 c 128,-1,3
 615.359375 1486 615.359375 1486 611.557617188 1462 c 2,4,-1
 405.18359375 159 l 2,5,6
 379.524414062 -3 379.524414062 -3 341.5078125 -91.5 c 128,-1,7
 303.491210938 -180 303.491210938 -180 254.263671875 -213 c 128,-1,8
 205.037109375 -246 205.037109375 -246 153.037109375 -246 c 0,9,10
 127.037109375 -246 127.037109375 -246 103.62109375 -236 c 128,-1,11
 80.205078125 -226 80.205078125 -226 61.3232421875 -200 c 1,12,-1
 132.407226562 -29 l 1,13,14
 144.981445312 -38 144.981445312 -38 145.997070312 -60 c 128,-1,15
 147.012695312 -82 147.012695312 -82 181.012695312 -82 c 0,16,17
 217.012695312 -82 217.012695312 -82 237.0703125 -18.5 c 128,-1,18
 257.126953125 45 257.126953125 45 284.78515625 207 c 1,19,-1
 231.551757812 1020 l 1,20,-1
 95.18359375 159 l 1,21,-1
 -36.81640625 159 l 1,22,-1
 178.90234375 1521 l 1,23,-1
 284.90234375 1521 l 1,24,-1
 366.037109375 720 l 1,25,-1
 492.90234375 1521 l 1,0,-1
EndSplineSet
EndChar

StartChar: O
Encoding: 79 79 120
Width: 485
VWidth: 2441
GlyphClass: 2
Flags: HW
AnchorPoint: "Anchor-4" 265.688 762 basechar 0
AnchorPoint: "Anchor-3" 182.801 24 basechar 0
AnchorPoint: "Anchor-2" 145 0 basechar 0
AnchorPoint: "Anchor-1" 496.856 1426 basechar 0
AnchorPoint: "Anchor-0" 385.902 1521 basechar 0
LayerCount: 2
Fore
SplineSet
170.81640625 163 m 128,-1,1
 198.81640625 163 198.81640625 163 225.181640625 209.5 c 128,-1,2
 251.546875 256 251.546875 256 280.161132812 383 c 128,-1,3
 308.776367188 510 308.776367188 510 347.10546875 752 c 0,4,5
 383.850585938 984 383.850585938 984 395.385742188 1110.5 c 128,-1,6
 406.921875 1237 406.921875 1237 396.078125 1288.5 c 128,-1,7
 385.235351562 1340 385.235351562 1340 357.235351562 1340 c 128,-1,8
 329.235351562 1340 329.235351562 1340 301.078125 1288.5 c 128,-1,9
 272.921875 1237 272.921875 1237 244.306640625 1110 c 128,-1,10
 215.692382812 983 215.692382812 983 179.10546875 752 c 0,11,12
 140.776367188 510 140.776367188 510 129.161132812 383 c 128,-1,13
 117.546875 256 117.546875 256 130.181640625 209.5 c 128,-1,0
 142.81640625 163 142.81640625 163 170.81640625 163 c 128,-1,1
140.723632812 -27 m 128,-1,15
 63.7236328125 -27 63.7236328125 -27 23.8349609375 40 c 128,-1,16
 -16.052734375 107 -16.052734375 107 -12.6279296875 277 c 128,-1,17
 -9.2021484375 447 -9.2021484375 447 39.10546875 752 c 0,18,19
 86.3037109375 1050 86.3037109375 1050 136.649414062 1219.5 c 128,-1,20
 186.99609375 1389 186.99609375 1389 248.741210938 1460 c 128,-1,21
 310.486328125 1531 310.486328125 1531 387.486328125 1531 c 128,-1,22
 464.486328125 1531 464.486328125 1531 503.741210938 1460 c 128,-1,23
 542.99609375 1389 542.99609375 1389 538.649414062 1219.5 c 128,-1,24
 534.303710938 1050 534.303710938 1050 487.10546875 752 c 0,25,26
 438.797851562 447 438.797851562 447 389.372070312 277 c 128,-1,27
 339.947265625 107 339.947265625 107 278.834960938 40 c 128,-1,14
 217.723632812 -27 217.723632812 -27 140.723632812 -27 c 128,-1,15
EndSplineSet
Substitution2: "Single Substitution lookup 29 subtable" ordmasculine
Substitution2: "'aalt' Access All Alternates in Latin lookup 0 subtable" ordmasculine
EndChar

StartChar: Oslash
Encoding: 216 216 148
Width: 485
VWidth: 2441
GlyphClass: 2
Flags: HW
AnchorPoint: "Anchor-4" 265.688 762 basechar 0
AnchorPoint: "Anchor-3" 182.801 24 basechar 0
AnchorPoint: "Anchor-2" 145 0 basechar 0
AnchorPoint: "Anchor-1" 496.856 1426 basechar 0
AnchorPoint: "Anchor-0" 385.902 1521 basechar 0
LayerCount: 2
Fore
SplineSet
170.81640625 163 m 0,0,1
 198.81640625 163 198.81640625 163 225.181640625 209.5 c 128,-1,2
 251.546875 256 251.546875 256 280.161132812 383 c 128,-1,3
 308.776367188 510 308.776367188 510 347.10546875 752 c 0,4,5
 367.6953125 882 367.6953125 882 380.583007812 976 c 1,6,-1
 125.913085938 252 l 1,7,8
 127.834960938 201 127.834960938 201 139.826171875 182 c 128,-1,9
 151.81640625 163 151.81640625 163 170.81640625 163 c 0,0,1
179.10546875 752 m 0,10,11
 162.158203125 645 162.158203125 645 151.329101562 564 c 1,12,-1
 399.1484375 1270 l 1,13,14
 393.235351562 1340 393.235351562 1340 357.235351562 1340 c 0,15,16
 329.235351562 1340 329.235351562 1340 301.078125 1288.5 c 128,-1,17
 272.921875 1237 272.921875 1237 244.385742188 1110.5 c 128,-1,18
 215.850585938 984 215.850585938 984 179.10546875 752 c 0,10,11
0.6865234375 -103 m 1,19,-1
 -70.978515625 -63 l 1,20,-1
 -3.0439453125 126 l 1,21,22
 -19.10546875 214 -19.10546875 214 -8.6103515625 365.5 c 128,-1,23
 1.884765625 517 1.884765625 517 39.10546875 752 c 0,24,25
 86.3037109375 1050 86.3037109375 1050 136.649414062 1219.5 c 128,-1,26
 186.99609375 1389 186.99609375 1389 248.741210938 1460 c 128,-1,27
 310.486328125 1531 310.486328125 1531 387.486328125 1531 c 0,28,29
 444.486328125 1531 444.486328125 1531 478.943359375 1496 c 1,30,-1
 538.709960938 1665 l 1,31,-1
 607.741210938 1621 l 1,32,-1
 527.3125 1391 l 1,33,34
 545.375 1303 545.375 1303 535.404296875 1148.5 c 128,-1,35
 525.434570312 994 525.434570312 994 487.10546875 752 c 0,36,37
 438.797851562 447 438.797851562 447 389.372070312 277 c 128,-1,38
 339.947265625 107 339.947265625 107 278.834960938 40 c 128,-1,39
 217.723632812 -27 217.723632812 -27 140.723632812 -27 c 0,40,41
 76.7236328125 -27 76.7236328125 -27 42.2177734375 14 c 1,42,-1
 0.6865234375 -103 l 1,19,-1
EndSplineSet
EndChar

StartChar: OE
Encoding: 338 338 154
Width: 452
VWidth: 2441
GlyphClass: 1
Flags: HW
LayerCount: 2
Fore
SplineSet
99.92578125 170 m 0,0,1
 129.92578125 170 129.92578125 170 163.108398438 329 c 1,2,-1
 296.151367188 1169 l 2,3,4
 310.46484375 1272 310.46484375 1272 307.171875 1317.5 c 128,-1,5
 303.877929688 1363 303.877929688 1363 284.877929688 1363 c 0,6,7
 269.877929688 1363 269.877929688 1363 253.012695312 1316.5 c 128,-1,8
 236.1484375 1270 236.1484375 1270 209.637695312 1140.5 c 128,-1,9
 191.963867188 1054.16699219 191.963867188 1054.16699219 170.018554688 915.611328125 c 0,0,0
 159.045898438 846.333007812 159.045898438 846.333007812 147.005859375 764 c 0,10,11
 96.005859375 442 96.005859375 442 83.4658203125 306 c 128,-1,12
 70.92578125 170 70.92578125 170 99.92578125 170 c 0,0,1
36.3076171875 -17 m 0,13,14
 6.3076171875 -17 6.3076171875 -17 -13.8076171875 17 c 128,-1,15
 -33.9228515625 51 -33.9228515625 51 -40.380859375 136.5 c 128,-1,16
 -46.8388671875 222 -46.8388671875 222 -33.1845703125 374.5 c 128,-1,17
 -19.53125 527 -19.53125 527 17.6884765625 762 c 0,18,19
 64.8876953125 1060 64.8876953125 1060 108.8125 1230 c 128,-1,20
 152.73828125 1400 152.73828125 1400 196.5625 1471.5 c 128,-1,21
 240.38671875 1543 240.38671875 1543 283.38671875 1543 c 0,22,23
 330.38671875 1543 330.38671875 1543 344.716796875 1463 c 1,24,-1
 354.219726562 1523 l 1,25,-1
 586.219726562 1523 l 1,26,-1
 555.651367188 1330 l 1,27,-1
 449.651367188 1330 l 1,28,-1
 380.279296875 892 l 1,29,-1
 470.279296875 892 l 1,30,-1
 439.235351562 696 l 1,31,-1
 349.235351562 696 l 1,32,-1
 269.250976562 191 l 1,33,-1
 373.250976562 191 l 1,34,-1
 343 0 l 1,35,-1
 111 0 l 1,36,-1
 119.552734375 54 l 1,37,38
 104.375976562 15 104.375976562 15 81.841796875 -1 c 128,-1,39
 59.3076171875 -17 59.3076171875 -17 36.3076171875 -17 c 0,13,14
EndSplineSet
EndChar

StartChar: P
Encoding: 80 80 155
Width: 512
VWidth: 2441
GlyphClass: 2
Flags: HW
AnchorPoint: "Anchor-2" 10 0 basechar 0
AnchorPoint: "Anchor-0" 396.902 1521 basechar 0
LayerCount: 2
Fore
SplineSet
221.666992188 825 m 1,0,-1
 275.666992188 825 l 2,1,2
 313.666992188 825 313.666992188 825 350.620117188 891 c 128,-1,3
 387.57421875 957 387.57421875 957 406.104492188 1074 c 0,4,5
 427.486328125 1209 427.486328125 1209 410.911132812 1268.5 c 128,-1,6
 394.334960938 1328 394.334960938 1328 355.334960938 1328 c 2,7,-1
 301.334960938 1328 l 1,8,-1
 221.666992188 825 l 1,0,-1
-62 0 m 1,9,-1
 178.90234375 1521 l 1,10,-1
 392.90234375 1521 l 2,11,12
 507.90234375 1521 507.90234375 1521 550.614257812 1415 c 128,-1,13
 593.325195312 1309 593.325195312 1309 556.896484375 1079 c 0,14,15
 523.635742188 869 523.635742188 869 438.3671875 750.5 c 128,-1,16
 353.098632812 632 353.098632812 632 258.098632812 632 c 2,17,-1
 191.098632812 632 l 1,18,-1
 91 0 l 1,19,-1
 -62 0 l 1,9,-1
EndSplineSet
EndChar

StartChar: Thorn
Encoding: 222 222 156
Width: 489
VWidth: 2441
GlyphClass: 1
Flags: HW
LayerCount: 2
Fore
SplineSet
164.745117188 554 m 1,0,-1
 232.745117188 554 l 2,1,2
 282.745117188 554 282.745117188 554 313.935546875 621.5 c 128,-1,3
 345.126953125 689 345.126953125 689 362.866210938 801 c 128,-1,4
 380.60546875 913 380.60546875 913 369.350585938 984 c 128,-1,5
 358.095703125 1055 358.095703125 1055 304.095703125 1055 c 2,6,-1
 244.095703125 1055 l 1,7,-1
 164.745117188 554 l 1,0,-1
-68 0 m 1,8,-1
 172.90234375 1521 l 1,9,-1
 328.90234375 1521 l 2,10,11
 330.5859375 1519 330.5859375 1519 329.793945312 1514 c 0,12,13
 328.685546875 1507 328.685546875 1507 319.651367188 1491 c 128,-1,14
 310.6171875 1475 310.6171875 1475 307.1328125 1453 c 2,15,-1
 275.772460938 1255 l 1,16,-1
 356.772460938 1255 l 2,17,18
 461.772460938 1255 461.772460938 1255 500.791015625 1132 c 128,-1,19
 539.809570312 1009 539.809570312 1009 507.658203125 806 c 0,20,21
 474.080078125 594 474.080078125 594 395.024414062 480 c 128,-1,22
 315.96875 366 315.96875 366 202.96875 366 c 2,23,-1
 134.96875 366 l 1,24,-1
 77 0 l 1,25,-1
 -68 0 l 1,8,-1
EndSplineSet
EndChar

StartChar: Q
Encoding: 81 81 157
Width: 485
VWidth: 2391
GlyphClass: 2
Flags: HW
AnchorPoint: "Anchor-2" 158.146 83 basechar 0
AnchorPoint: "Anchor-0" 386.062 1522 basechar 0
LayerCount: 2
Fore
SplineSet
187.329101562 242 m 0,0,1
 229.329101562 242 229.329101562 242 266.518554688 360 c 128,-1,2
 303.708007812 478 303.708007812 478 348.688476562 762 c 0,3,4
 385.592773438 995 385.592773438 995 396.603515625 1124.5 c 128,-1,5
 407.614257812 1254 407.614257812 1254 396.612304688 1304.5 c 128,-1,6
 385.611328125 1355 385.611328125 1355 359.611328125 1355 c 128,-1,7
 333.611328125 1355 333.611328125 1355 306.9296875 1306.5 c 128,-1,8
 280.248046875 1258 280.248046875 1258 252.533203125 1143 c 128,-1,9
 224.819335938 1028 224.819335938 1028 193.458984375 830 c 0,10,11
 158.297851562 608 158.297851562 608 147.287109375 478.5 c 128,-1,12
 136.276367188 349 136.276367188 349 146.802734375 295.5 c 128,-1,13
 157.329101562 242 157.329101562 242 187.329101562 242 c 0,0,1
255.196289062 -245 m 1,14,15
 244.19140625 -246.005859375 244.19140625 -246.005859375 233.890625 -246.005859375 c 0,16,17
 152.0546875 -246.005859375 152.0546875 -246.005859375 114.594726562 -182.5 c 0,18,19
 72.4189453125 -111 72.4189453125 -111 100.611328125 67 c 1,20,21
 50.046875 95 50.046875 95 24.083984375 171 c 128,-1,22
 -1.87890625 247 -1.87890625 247 2.220703125 396 c 128,-1,23
 6.3193359375 545 6.3193359375 545 45.916015625 795 c 0,24,25
 82.501953125 1026 82.501953125 1026 124.047851562 1171.5 c 128,-1,26
 165.592773438 1317 165.592773438 1317 209.68359375 1396.5 c 128,-1,27
 253.775390625 1476 253.775390625 1476 299.685546875 1507 c 128,-1,28
 345.595703125 1538 345.595703125 1538 388.595703125 1538 c 0,29,30
 433.595703125 1538 433.595703125 1538 469.185546875 1507 c 128,-1,31
 504.775390625 1476 504.775390625 1476 523.18359375 1396.5 c 128,-1,32
 541.592773438 1317 541.592773438 1317 536.206054688 1172.5 c 128,-1,33
 530.819335938 1028 530.819335938 1028 494.866210938 801 c 0,34,35
 455.111328125 550 455.111328125 550 414.061523438 395 c 128,-1,36
 373.012695312 240 373.012695312 240 326.474609375 164 c 128,-1,37
 279.9375 88 279.9375 88 223.611328125 67 c 1,38,39
 215.416015625 -10 215.416015625 -10 222.634765625 -46.5 c 128,-1,40
 229.854492188 -83 229.854492188 -83 263.854492188 -83 c 2,41,-1
 322.646484375 -78 l 1,42,-1
 294.196289062 -245 l 1,43,-1
 255.196289062 -245 l 1,14,15
EndSplineSet
EndChar

StartChar: R
Encoding: 82 82 158
Width: 512
VWidth: 2441
GlyphClass: 2
Flags: HW
AnchorPoint: "Anchor-2" 151 0 basechar 0
AnchorPoint: "Anchor-0" 391.902 1521 basechar 0
LayerCount: 2
Fore
SplineSet
220.458984375 830 m 1,0,-1
 272.458984375 830 l 2,1,2
 305.458984375 830 305.458984375 830 336.408203125 886.5 c 128,-1,3
 367.356445312 943 367.356445312 943 389.688476562 1084 c 0,4,5
 412.1796875 1226 412.1796875 1226 397.756835938 1277 c 128,-1,6
 383.334960938 1328 383.334960938 1328 351.334960938 1328 c 2,7,-1
 299.334960938 1328 l 1,8,-1
 220.458984375 830 l 1,0,-1
-62 0 m 1,9,-1
 178.90234375 1521 l 1,10,-1
 367.90234375 1521 l 2,11,12
 606.90234375 1521 606.90234375 1521 538.688476562 1084 c 0,13,14
 509.229492188 898 509.229492188 898 466.737304688 806.5 c 128,-1,15
 424.245117188 715 424.245117188 715 358.750976562 674 c 1,16,-1
 386 0 l 1,17,-1
 244 0 l 1,18,-1
 221.950195312 650 l 1,19,-1
 191.950195312 650 l 1,20,-1
 89 0 l 1,21,-1
 -62 0 l 1,9,-1
EndSplineSet
EndChar

StartChar: S
Encoding: 83 83 166
Width: 512
VWidth: 2441
GlyphClass: 2
Flags: HW
AnchorPoint: "Anchor-2" 158 0 basechar 0
AnchorPoint: "Anchor-0" 412.902 1521 basechar 0
LayerCount: 2
Fore
SplineSet
146.19921875 -24 m 0,0,1
 72.19921875 -24 72.19921875 -24 27.42578125 9 c 128,-1,2
 -17.34765625 42 -17.34765625 42 -45.052734375 107 c 1,3,-1
 41.7421875 333 l 1,4,-1
 49.384765625 356 l 1,5,-1
 62.7509765625 352 l 1,6,7
 67.7177734375 336.092773438 67.7177734375 336.092773438 62.5205078125 303.28125 c 0,8,9
 57.8828125 274 57.8828125 274 69.0126953125 240 c 0,10,11
 101.450195312 167 101.450195312 167 162.291992188 166 c 0,12,13
 211.291992188 166 211.291992188 166 245.690429688 228.5 c 128,-1,14
 280.08984375 291 280.08984375 291 298.145507812 405 c 0,15,16
 311.766601562 491 311.766601562 491 309.37890625 558 c 128,-1,17
 306.990234375 625 306.990234375 625 243.819335938 706 c 1,18,19
 168.440429688 792 168.440429688 792 146.729492188 898 c 128,-1,20
 125.017578125 1004 125.017578125 1004 148.142578125 1150 c 0,21,22
 179.185546875 1346 179.185546875 1346 252.048828125 1443 c 128,-1,23
 324.912109375 1540 324.912109375 1540 417.912109375 1540 c 0,24,25
 550.912109375 1540 550.912109375 1540 594.372070312 1404 c 1,26,-1
 523.6953125 1204 l 1,27,-1
 515.735351562 1179 l 1,28,-1
 504.051757812 1181 l 1,29,30
 496.744140625 1198 496.744140625 1198 500.654296875 1229 c 128,-1,31
 504.564453125 1260 504.564453125 1260 491.791015625 1293 c 0,32,33
 475.859375 1325 475.859375 1325 455.1015625 1336 c 128,-1,34
 434.34375 1347 434.34375 1347 411.34375 1347 c 0,35,36
 329.33203125 1347 329.33203125 1347 300.724609375 1166.37890625 c 0,37,38
 284.990234375 1067.0390625 284.990234375 1067.0390625 295.592773438 995 c 128,-1,39
 306.188476562 923 306.188476562 923 373.834960938 845 c 0,40,41
 442.005859375 764 442.005859375 764 457.716796875 658 c 128,-1,42
 473.427734375 552 473.427734375 552 453.947265625 429 c 0,43,44
 419.260742188 210 419.260742188 210 330.229492188 93 c 128,-1,45
 241.19921875 -24 241.19921875 -24 146.19921875 -24 c 0,0,1
EndSplineSet
EndChar

StartChar: uni1E9E
Encoding: 7838 7838 177
Width: 495
VWidth: 2441
GlyphClass: 1
Flags: HW
LayerCount: 2
Fore
SplineSet
198.990234375 -19 m 0,0,1
 141.990234375 -19 141.990234375 -19 107.276367188 27 c 1,2,-1
 156.577148438 212 l 1,3,4
 173.400390625 173 173.400390625 173 199.400390625 173 c 0,5,6
 234.400390625 173 234.400390625 173 259.645507812 244 c 128,-1,7
 284.890625 315 284.890625 315 308.490234375 464 c 0,8,9
 331.772460938 611 331.772460938 611 326.389648438 687.5 c 128,-1,10
 321.005859375 764 321.005859375 764 267.005859375 764 c 2,11,-1
 246.005859375 764 l 1,12,-1
 278.158203125 967 l 1,13,-1
 408.704101562 1223 l 1,14,15
 423.43359375 1316 423.43359375 1316 418.595703125 1377 c 128,-1,16
 413.756835938 1438 413.756835938 1438 371.756835938 1438 c 0,17,18
 334.756835938 1438 334.756835938 1438 308.436523438 1376 c 128,-1,19
 282.1171875 1314 282.1171875 1314 257.725585938 1160 c 2,20,-1
 74 0 l 1,21,-1
 -66 0 l 1,22,-1
 112.657226562 1128 l 2,23,24
 145.91796875 1338 145.91796875 1338 192.682617188 1447 c 128,-1,25
 239.446289062 1556 239.446289062 1556 294.543945312 1594.5 c 128,-1,26
 349.641601562 1633 349.641601562 1633 404.641601562 1633 c 0,27,28
 497.641601562 1633 497.641601562 1633 535.01171875 1528 c 128,-1,29
 572.380859375 1423 572.380859375 1423 535.319335938 1189 c 1,30,-1
 386.614257812 932 l 1,31,32
 456.645507812 888 456.645507812 888 469.84765625 763 c 128,-1,33
 483.048828125 638 483.048828125 638 452.005859375 442 c 0,34,35
 412.884765625 195 412.884765625 195 349.4375 88 c 128,-1,36
 285.990234375 -19 285.990234375 -19 198.990234375 -19 c 0,0,1
EndSplineSet
EndChar

StartChar: T
Encoding: 84 84 179
Width: 495
VWidth: 2441
GlyphClass: 2
Flags: HW
AnchorPoint: "Anchor-4" 266.688 762 basechar 0
AnchorPoint: "Anchor-2" 152 0 basechar 0
AnchorPoint: "Anchor-0" 392.902 1521 basechar 0
LayerCount: 2
Fore
SplineSet
74 0 m 1,0,-1
 284.651367188 1330 l 1,1,-1
 136.651367188 1330 l 1,2,-1
 167.219726562 1523 l 1,3,-1
 615.219726562 1523 l 1,4,-1
 584.651367188 1330 l 1,5,-1
 430.651367188 1330 l 1,6,-1
 220 0 l 1,7,-1
 74 0 l 1,0,-1
EndSplineSet
EndChar

StartChar: Tbar
Encoding: 358 358 180
Width: 495
VWidth: 2441
GlyphClass: 2
Flags: HW
AnchorPoint: "Anchor-4" 266.688 762 basechar 0
AnchorPoint: "Anchor-2" 152 0 basechar 0
AnchorPoint: "Anchor-0" 392.902 1521 basechar 0
LayerCount: 2
Fore
SplineSet
74 0 m 1,0,-1
 181.384765625 678 l 1,1,-1
 89.384765625 678 l 1,2,-1
 119.953125 871 l 1,3,-1
 211.953125 871 l 1,4,-1
 284.651367188 1330 l 1,5,-1
 136.651367188 1330 l 1,6,-1
 167.219726562 1523 l 1,7,-1
 615.219726562 1523 l 1,8,-1
 584.651367188 1330 l 1,9,-1
 430.651367188 1330 l 1,10,-1
 357.953125 871 l 1,11,-1
 449.953125 871 l 1,12,-1
 419.384765625 678 l 1,13,-1
 327.384765625 678 l 1,14,-1
 220 0 l 1,15,-1
 74 0 l 1,0,-1
EndSplineSet
EndChar

StartChar: U
Encoding: 85 85 186
Width: 512
VWidth: 2441
GlyphClass: 2
Flags: HW
AnchorPoint: "Anchor-3" 218.801 24 basechar 0
AnchorPoint: "Anchor-2" 160 0 basechar 0
AnchorPoint: "Anchor-1" 618.902 1521 basechar 0
AnchorPoint: "Anchor-0" 400.902 1521 basechar 0
LayerCount: 2
Fore
SplineSet
157.723632812 -27 m 0,0,1
 21.7236328125 -27 21.7236328125 -27 -2.794921875 96 c 128,-1,2
 -27.3134765625 219 -27.3134765625 219 13.390625 476 c 2,3,-1
 178.90234375 1521 l 1,4,-1
 351.90234375 1521 l 1,5,-1
 349.209960938 1504 l 1,6,7
 333.993164062 1490 333.993164062 1490 327.799804688 1473 c 128,-1,8
 321.607421875 1456 321.607421875 1456 314.956054688 1414 c 2,9,-1
 165.916015625 473 l 2,10,11
 139.624023438 307 139.624023438 307 143.220703125 235 c 128,-1,12
 146.81640625 163 146.81640625 163 187.81640625 163 c 0,13,14
 230.81640625 163 230.81640625 163 257.803710938 245 c 128,-1,15
 284.791992188 327 284.791992188 327 309.024414062 480 c 2,16,-1
 473.90234375 1521 l 1,17,-1
 626.90234375 1521 l 1,18,-1
 462.658203125 484 l 2,19,20
 418.15234375 203 418.15234375 203 350.9375 88 c 128,-1,21
 283.723632812 -27 283.723632812 -27 157.723632812 -27 c 0,0,1
EndSplineSet
EndChar

StartChar: V
Encoding: 86 86 209
Width: 466
VWidth: 2441
GlyphClass: 2
Flags: HW
AnchorPoint: "Anchor-2" 133 0 basechar 0
AnchorPoint: "Anchor-0" 373.902 1521 basechar 0
LayerCount: 2
Fore
SplineSet
78.416015625 -10 m 1,0,-1
 151.219726562 1523 l 1,1,-1
 288.219726562 1523 l 1,2,-1
 223.151367188 525 l 1,3,-1
 464.90234375 1521 l 1,4,-1
 598.90234375 1521 l 1,5,-1
 188.416015625 -10 l 1,6,-1
 78.416015625 -10 l 1,0,-1
EndSplineSet
EndChar

StartChar: W
Encoding: 87 87 210
Width: 437
VWidth: 2441
GlyphClass: 2
Flags: HW
AnchorPoint: "Anchor-2" 117 0 basechar 0
AnchorPoint: "Anchor-0" 362.902 1521 basechar 0
LayerCount: 2
Fore
SplineSet
-25 0 m 1,0,-1
 131.90234375 1521 l 1,1,-1
 241.90234375 1521 l 1,2,-1
 142.068359375 676 l 1,3,-1
 299.225585938 1321 l 1,4,-1
 361.225585938 1321 l 1,5,-1
 317.750976562 674 l 1,6,-1
 474.90234375 1521 l 1,7,-1
 579.90234375 1521 l 1,8,-1
 255 0 l 1,9,-1
 186 0 l 1,10,-1
 242.22265625 778 l 1,11,-1
 48 0 l 1,12,-1
 -25 0 l 1,0,-1
EndSplineSet
EndChar

StartChar: X
Encoding: 88 88 215
Width: 519
VWidth: 2441
GlyphClass: 2
Flags: HW
AnchorPoint: "Anchor-2" 158 0 basechar 0
AnchorPoint: "Anchor-0" 398.902 1521 basechar 0
LayerCount: 2
Fore
SplineSet
-62 0 m 1,0,-1
 198.90625 776 l 1,1,-1
 183.219726562 1523 l 1,2,-1
 317.219726562 1523 l 1,3,-1
 320.819335938 1028 l 1,4,-1
 483.219726562 1523 l 1,5,-1
 607.219726562 1523 l 1,6,-1
 363.22265625 778 l 1,7,-1
 386 0 l 1,8,-1
 254 0 l 1,9,-1
 240.360351562 520 l 1,10,-1
 66 0 l 1,11,-1
 -62 0 l 1,0,-1
EndSplineSet
EndChar

StartChar: Y
Encoding: 89 89 216
Width: 483
VWidth: 2441
GlyphClass: 2
Flags: HW
AnchorPoint: "Anchor-2" 151 0 basechar 0
AnchorPoint: "Anchor-0" 383.902 1521 basechar 0
LayerCount: 2
Fore
SplineSet
82 0 m 1,0,-1
 168.63671875 547 l 1,1,-1
 160.90234375 1521 l 1,2,-1
 298.90234375 1521 l 1,3,-1
 289.427734375 874 l 1,4,-1
 476.90234375 1521 l 1,5,-1
 608.90234375 1521 l 1,6,-1
 304.63671875 547 l 1,7,-1
 218 0 l 1,8,-1
 82 0 l 1,0,-1
EndSplineSet
EndChar

StartChar: Z
Encoding: 90 90 226
Width: 524
VWidth: 2441
GlyphClass: 2
Flags: HW
AnchorPoint: "Anchor-2" 175 0 basechar 0
AnchorPoint: "Anchor-0" 405.902 1521 basechar 0
LayerCount: 2
Fore
SplineSet
-44.578125 110 m 1,0,-1
 413.334960938 1328 l 1,1,-1
 160.334960938 1328 l 1,2,-1
 190.90234375 1521 l 1,3,-1
 614.90234375 1521 l 1,4,-1
 597.48046875 1411 l 1,5,-1
 139.568359375 193 l 1,6,-1
 324.568359375 193 l 2,7,8
 358.568359375 193 358.568359375 193 375.360351562 198 c 128,-1,9
 392.15234375 203 392.15234375 203 406.369140625 217 c 1,10,-1
 420.369140625 217 l 1,11,-1
 386 0 l 1,12,-1
 -62 0 l 1,13,-1
 -44.578125 110 l 1,0,-1
EndSplineSet
EndChar

StartChar: a
Encoding: 97 97 232
Width: 512
VWidth: 2441
GlyphClass: 2
Flags: HW
AnchorPoint: "Anchor-3" 341 0 basechar 0
AnchorPoint: "Anchor-2" 132 0 basechar 0
AnchorPoint: "Anchor-0" 348.748 1097 basechar 0
LayerCount: 2
Fore
SplineSet
134.375976562 337 m 0,0,1
 122.497070312 262 122.497070312 262 132.102539062 209 c 128,-1,2
 141.708007812 156 141.708007812 156 173.708007812 156 c 0,3,4
 220.708007812 156 220.708007812 156 255.75 241.5 c 128,-1,5
 290.791992188 327 290.791992188 327 324.151367188 525 c 1,6,7
 307.46875 527 307.46875 527 286.46875 527 c 0,8,9
 229.46875 527 229.46875 527 190.237304688 484.5 c 128,-1,10
 151.005859375 442 151.005859375 442 134.375976562 337 c 0,0,1
106.723632812 -27 m 0,11,12
 23.7236328125 -27 23.7236328125 -27 -5.67578125 71.5 c 128,-1,13
 -35.07421875 170 -35.07421875 170 -12.583984375 312 c 0,14,15
 22.5771484375 534 22.5771484375 534 110.411132812 624.5 c 128,-1,16
 198.245117188 715 198.245117188 715 309.245117188 715 c 0,17,18
 328.245117188 715 328.245117188 715 351.453125 710 c 1,19,20
 367.508789062 824 367.508789062 824 367.932617188 883.5 c 128,-1,21
 368.356445312 943 368.356445312 943 352.524414062 963 c 128,-1,22
 336.692382812 983 336.692382812 983 304.692382812 983 c 0,23,24
 268.692382812 983 268.692382812 983 241.024414062 963 c 128,-1,25
 213.356445312 943 213.356445312 943 180.387695312 899 c 1,26,-1
 129.34375 1025 l 1,27,28
 168.213867188 1081 168.213867188 1081 222.627929688 1121.5 c 128,-1,29
 277.04296875 1162 277.04296875 1162 356.04296875 1162 c 128,-1,30
 435.04296875 1162 435.04296875 1162 474.07421875 1118 c 128,-1,31
 513.104492188 1074 513.104492188 1074 515.282226562 952 c 128,-1,32
 517.458984375 830 517.458984375 830 480.080078125 594 c 2,33,-1
 386 0 l 1,34,-1
 243 0 l 1,35,-1
 261.055664062 114 l 1,36,37
 226.91015625 31 226.91015625 31 188.31640625 2 c 128,-1,38
 149.723632812 -27 149.723632812 -27 106.723632812 -27 c 0,11,12
EndSplineSet
Substitution2: "Single Substitution lookup 29 subtable" ordfeminine
Substitution2: "'aalt' Access All Alternates in Latin lookup 0 subtable" ordfeminine
EndChar

StartChar: ae
Encoding: 230 230 257
Width: 434
VWidth: 2441
GlyphClass: 1
Flags: HW
LayerCount: 2
Fore
SplineSet
44.6982421875 137 m 0,0,1
 77.6982421875 137 77.6982421875 137 95.9873046875 243 c 128,-1,2
 114.276367188 349 114.276367188 349 140.884765625 517 c 1,3,4
 103.092773438 512 103.092773438 512 81.515625 461 c 128,-1,5
 59.9375 410 59.9375 410 42.1982421875 298 c 0,6,7
 29.369140625 217 29.369140625 217 29.0341796875 177 c 128,-1,8
 28.6982421875 137 28.6982421875 137 44.6982421875 137 c 0,0,1
272.235351562 696 m 1,9,-1
 340.344726562 703 l 1,10,11
 363.151367188 847 363.151367188 847 366.708984375 910.5 c 128,-1,12
 370.266601562 974 370.266601562 974 353.266601562 974 c 0,13,14
 332.266601562 974 332.266601562 974 313.654296875 907 c 128,-1,15
 295.04296875 840 295.04296875 840 272.235351562 696 c 1,9,-1
5.7236328125 -27 m 0,16,17
 -59.2763671875 -27 -59.2763671875 -27 -72.7294921875 68 c 128,-1,18
 -86.18359375 163 -86.18359375 163 -64.484375 300 c 0,19,20
 -43.578125 432 -43.578125 432 -17.14453125 510.5 c 128,-1,21
 9.2880859375 589 9.2880859375 589 52.6240234375 629 c 128,-1,22
 95.958984375 669 95.958984375 669 167.176757812 683 c 1,23,24
 192.359375 842 192.359375 842 192.313476562 908 c 128,-1,25
 192.266601562 974 192.266601562 974 162.266601562 974 c 0,26,27
 125.266601562 974 125.266601562 974 92.60546875 913 c 1,28,-1
 76.0361328125 1042 l 1,29,30
 128.55859375 1140 128.55859375 1140 194.55859375 1140 c 0,31,32
 229.55859375 1140 229.55859375 1140 250.77734375 1103.5 c 128,-1,33
 271.99609375 1067 271.99609375 1067 276.918945312 1016 c 1,34,35
 294.788085938 1072 294.788085938 1072 330.672851562 1106 c 128,-1,36
 366.55859375 1140 366.55859375 1140 394.55859375 1140 c 0,37,38
 457.55859375 1140 457.55859375 1140 465.97265625 1019.5 c 128,-1,39
 474.387695312 899 474.387695312 899 433.366210938 640 c 2,40,-1
 419.427734375 552 l 1,41,-1
 247.2109375 538 l 1,42,-1
 229.629882812 427 l 2,43,44
 207.139648438 285 207.139648438 285 213.760742188 210 c 128,-1,45
 220.381835938 135 220.381835938 135 257.381835938 135 c 0,46,47
 280.381835938 135 280.381835938 135 297.495117188 151.5 c 128,-1,48
 314.608398438 168 314.608398438 168 327.568359375 193 c 1,49,-1
 345.978515625 63 l 1,50,51
 295.124023438 -27.0107421875 295.124023438 -27.0107421875 227.217773438 -27.0107421875 c 0,52,53
 226.471679688 -27.0107421875 226.471679688 -27.0107421875 225.723632812 -27 c 0,54,55
 195.723632812 -27 195.723632812 -27 163.633789062 4 c 128,-1,56
 131.54296875 35 131.54296875 35 124.413085938 91 c 1,57,58
 72.7236328125 -27 72.7236328125 -27 5.7236328125 -27 c 0,16,17
EndSplineSet
EndChar

StartChar: b
Encoding: 98 98 259
Width: 493
VWidth: 2441
GlyphClass: 2
Flags: HW
AnchorPoint: "Anchor-2" 392 0 basechar 0
AnchorPoint: "Anchor-0" 568.757 1116 basechar 0
LayerCount: 2
Fore
SplineSet
183.5 161 m 0,0,1
 212.5 161 212.5 161 234.642578125 184 c 128,-1,2
 256.78515625 207 256.78515625 207 279.327148438 292.5 c 128,-1,3
 301.869140625 378 301.869140625 378 330.537109375 559 c 0,4,5
 357.461914062 729 357.461914062 729 362.875 820 c 128,-1,6
 368.288085938 911 368.288085938 911 355.33203125 946 c 128,-1,7
 342.375 981 342.375 981 313.375 981 c 0,8,9
 278.375 981 278.375 981 235.932617188 883.5 c 128,-1,10
 193.490234375 786 193.490234375 786 156.745117188 554 c 0,11,12
 121.266601562 330 121.266601562 330 129.883789062 245.5 c 128,-1,13
 138.5 161 138.5 161 183.5 161 c 0,0,1
180.723632812 -27 m 0,14,15
 137.723632812 -27 137.723632812 -27 110.2421875 11 c 128,-1,16
 82.7607421875 49 82.7607421875 49 84.9072265625 132 c 1,17,-1
 54 0 l 1,18,-1
 -68 0 l 1,19,-1
 189.216796875 1624 l 1,20,-1
 343.216796875 1624 l 1,21,-1
 340.5234375 1607 l 1,22,23
 328.306640625 1593 328.306640625 1593 322.03515625 1575.5 c 128,-1,24
 315.762695312 1558 315.762695312 1558 309.110351562 1516 c 2,25,-1
 225.483398438 988 l 1,26,27
 258.530273438 1083 258.530273438 1083 306.786132812 1122.5 c 128,-1,28
 355.04296875 1162 355.04296875 1162 387.04296875 1162 c 0,29,30
 443.04296875 1162 443.04296875 1162 475.07421875 1118 c 128,-1,31
 507.104492188 1074 507.104492188 1074 508.33203125 946 c 128,-1,32
 509.55859375 818 509.55859375 818 470.12109375 569 c 0,33,34
 439.869140625 378 439.869140625 378 405.837890625 261 c 128,-1,35
 371.807617188 144 371.807617188 144 335.908203125 81.5 c 128,-1,36
 300.009765625 19 300.009765625 19 260.866210938 -4 c 128,-1,37
 221.723632812 -27 221.723632812 -27 180.723632812 -27 c 0,14,15
EndSplineSet
EndChar

StartChar: c
Encoding: 99 99 261
Width: 512
VWidth: 2441
GlyphClass: 2
Flags: HW
AnchorPoint: "Anchor-2" 193 0 basechar 0
AnchorPoint: "Anchor-0" 373.559 1140 basechar 0
LayerCount: 2
Fore
SplineSet
203.723632812 -27 m 0,0,1
 68.7236328125 -27 68.7236328125 -27 23.318359375 112.5 c 128,-1,2
 -22.0869140625 252 -22.0869140625 252 27.6455078125 566 c 0,3,4
 63.1240234375 790 63.1240234375 790 119.713867188 920 c 128,-1,5
 176.303710938 1050 176.303710938 1050 243.672851562 1106 c 128,-1,6
 311.04296875 1162 311.04296875 1162 379.04296875 1162 c 0,7,8
 518.04296875 1162 518.04296875 1162 545.809570312 1009 c 1,9,-1
 472.309570312 848 l 1,10,-1
 462.350585938 823 l 1,11,-1
 450.458984375 830 l 1,12,13
 447.151367188 847 447.151367188 847 449.374023438 870.5 c 128,-1,14
 451.595703125 894 451.595703125 894 436.188476562 923 c 0,15,16
 409.366210938 962 409.366210938 962 368.366210938 962 c 0,17,18
 337.366210938 962 337.366210938 962 303.53515625 931.5 c 128,-1,19
 269.704101562 901 269.704101562 901 237.321289062 816.5 c 128,-1,20
 204.9375 732 204.9375 732 178.645507812 566 c 0,21,22
 153.462890625 407 153.462890625 407 155.4453125 318.5 c 128,-1,23
 157.428710938 230 157.428710938 230 181.068359375 193 c 128,-1,24
 204.708007812 156 204.708007812 156 240.708007812 156 c 0,25,26
 307.708007812 156 307.708007812 156 368.229492188 254 c 1,27,-1
 385.829101562 81 l 1,28,29
 309.723632812 -27 309.723632812 -27 203.723632812 -27 c 0,0,1
EndSplineSet
EndChar

StartChar: d
Encoding: 100 100 268
Width: 491
VWidth: 2441
GlyphClass: 2
Flags: HW
AnchorPoint: "Anchor-4" 474.235 1340 basechar 0
AnchorPoint: "Anchor-2" 151 0 basechar 0
AnchorPoint: "Anchor-1" 548.757 1116 basechar 0
AnchorPoint: "Anchor-0" 327.757 1116 basechar 0
LayerCount: 2
Fore
SplineSet
158.81640625 163 m 0,0,1
 244.81640625 163 244.81640625 163 309.329101562 564 c 0,2,3
 344.490234375 786 344.490234375 786 338.932617188 883.5 c 128,-1,4
 333.375 981 333.375 981 298.375 981 c 0,5,6
 273.375 981 273.375 981 250.385742188 949.5 c 128,-1,7
 227.396484375 918 227.396484375 918 205.750976562 835 c 128,-1,8
 184.10546875 752 184.10546875 752 159.397460938 596 c 0,9,10
 131.997070312 423 131.997070312 423 125.608398438 329 c 128,-1,11
 119.220703125 235 119.220703125 235 130.018554688 199 c 128,-1,12
 140.81640625 163 140.81640625 163 158.81640625 163 c 0,0,1
97.19921875 -24 m 0,13,14
 59.19921875 -24 59.19921875 -24 31.2626953125 -1.5 c 128,-1,15
 3.326171875 21 3.326171875 21 -9.537109375 85 c 128,-1,16
 -22.400390625 149 -22.400390625 149 -16.791015625 266.5 c 128,-1,17
 -11.1806640625 384 -11.1806640625 384 18.12109375 569 c 0,18,19
 56.1328125 809 56.1328125 809 97.40625 937 c 128,-1,20
 138.6796875 1065 138.6796875 1065 185.861328125 1113.5 c 128,-1,21
 233.04296875 1162 233.04296875 1162 287.04296875 1162 c 0,22,23
 387.04296875 1162 387.04296875 1162 378.225585938 999 c 1,24,-1
 477.216796875 1624 l 1,25,-1
 633.216796875 1624 l 1,26,-1
 630.5234375 1607 l 1,27,28
 616.306640625 1593 616.306640625 1593 610.53515625 1575.5 c 128,-1,29
 604.762695312 1558 604.762695312 1558 598.110351562 1516 c 2,30,-1
 385.400390625 173 l 2,31,32
 378.431640625 129 378.431640625 129 372.700195312 86.5 c 128,-1,33
 366.96875 44 366.96875 44 368 0 c 1,34,-1
 234 0 l 1,35,36
 230.751953125 30 230.751953125 30 230.344726562 59 c 128,-1,37
 229.9375 88 229.9375 88 236.907226562 132 c 1,38,39
 209.8203125 62 209.8203125 62 169.509765625 19 c 128,-1,40
 129.19921875 -24 129.19921875 -24 97.19921875 -24 c 0,13,14
EndSplineSet
EndChar

StartChar: eth
Encoding: 240 240 269
Width: 512
VWidth: 2441
GlyphClass: 1
Flags: HW
LayerCount: 2
Fore
SplineSet
192.708007812 156 m 0,0,1
 217.708007812 156 217.708007812 156 241.434570312 189 c 128,-1,2
 265.161132812 222 265.161132812 222 288.099609375 310 c 128,-1,3
 311.037109375 398 311.037109375 398 337.645507812 566 c 0,4,5
 369.005859375 764 369.005859375 764 362.34375 864 c 128,-1,6
 355.682617188 964 355.682617188 964 318.682617188 964 c 0,7,8
 273.366210938 962 273.366210938 962 236.927734375 874 c 128,-1,9
 200.490234375 786 200.490234375 786 165.645507812 566 c 0,10,11
 130.166992188 342 130.166992188 342 138.9375 249 c 128,-1,12
 147.708007812 156 147.708007812 156 192.708007812 156 c 0,0,1
163.248046875 -30 m 0,13,14
 104.248046875 -30 104.248046875 -30 58.8505859375 18 c 128,-1,15
 13.453125 66 13.453125 66 0.671875 190.5 c 128,-1,16
 -12.109375 315 -12.109375 315 24.3193359375 545 c 0,17,18
 60.1142578125 771 60.1142578125 771 108.283203125 901.5 c 128,-1,19
 156.453125 1032 156.453125 1032 210.505859375 1086 c 128,-1,20
 264.55859375 1140 264.55859375 1140 317.55859375 1140 c 0,21,22
 348.55859375 1140 348.55859375 1140 371.603515625 1124.5 c 128,-1,23
 394.6484375 1109 394.6484375 1109 405.788085938 1072 c 1,24,25
 403.766601562 1135 403.766601562 1135 396.611328125 1194 c 128,-1,26
 389.456054688 1253 389.456054688 1253 375.008789062 1307 c 1,27,-1
 278.456054688 1253 l 1,28,-1
 243.99609375 1389 l 1,29,-1
 349.390625 1442 l 1,30,31
 333.67578125 1488 333.67578125 1488 320.169921875 1529 c 128,-1,32
 306.663085938 1570 306.663085938 1570 281.573242188 1601 c 1,33,-1
 418.225585938 1643 l 1,34,35
 433.157226562 1611 433.157226562 1611 445.826171875 1580.5 c 128,-1,36
 458.49609375 1550 458.49609375 1550 472.209960938 1504 c 1,37,-1
 570.080078125 1560 l 1,38,-1
 596.272460938 1416 l 1,39,-1
 504.194335938 1365 l 1,40,41
 524.782226562 1274 524.782226562 1274 530.047851562 1171.5 c 128,-1,42
 535.3125 1069 535.3125 1069 524.248046875 936 c 128,-1,43
 513.182617188 803 513.182617188 803 483.723632812 617 c 0,44,45
 441.592773438 351 441.592773438 351 393.077148438 212 c 128,-1,46
 344.5625 73 344.5625 73 287.905273438 21.5 c 128,-1,47
 231.248046875 -30 231.248046875 -30 163.248046875 -30 c 0,13,14
EndSplineSet
EndChar

StartChar: dcaron
Encoding: 271 271 270
Width: 444
VWidth: 2441
GlyphClass: 1
Flags: HW
LayerCount: 2
Fore
SplineSet
78.5 161 m 0,0,1
 139.5 161 139.5 161 202.853515625 561 c 0,2,3
 238.6484375 787 238.6484375 787 240.408203125 886.5 c 128,-1,4
 242.166992188 986 242.166992188 986 221.166992188 986 c 0,5,6
 208.166992188 986 208.166992188 986 192.232421875 958 c 128,-1,7
 176.297851562 930 176.297851562 930 157.651367188 847 c 128,-1,8
 139.005859375 764 139.005859375 764 113.189453125 601 c 0,9,10
 84.521484375 420 84.521484375 420 73.1337890625 326 c 128,-1,11
 61.7451171875 232 61.7451171875 232 64.6220703125 196.5 c 128,-1,12
 67.5 161 67.5 161 78.5 161 c 0,0,1
18.19921875 -24 m 0,13,14
 -8.80078125 -24 -8.80078125 -24 -27.5546875 -3.5 c 128,-1,15
 -46.3076171875 17 -46.3076171875 17 -52.646484375 78 c 128,-1,16
 -58.984375 139 -58.984375 139 -49.953125 256 c 128,-1,17
 -40.9228515625 373 -40.9228515625 373 -10.3544921875 566 c 0,18,19
 29.0830078125 815 29.0830078125 815 62.435546875 943.5 c 128,-1,20
 95.7880859375 1072 95.7880859375 1072 131.153320312 1118.5 c 128,-1,21
 166.517578125 1165 166.517578125 1165 207.517578125 1165 c 0,22,23
 254.517578125 1165 254.517578125 1165 268.603515625 1124.5 c 128,-1,24
 282.688476562 1084 282.688476562 1084 271.434570312 994 c 1,25,-1
 370.741210938 1621 l 1,26,-1
 505.741210938 1621 l 1,27,-1
 503.20703125 1605 l 1,28,29
 489.989257812 1591 489.989257812 1591 483.98046875 1572 c 128,-1,30
 477.970703125 1553 477.970703125 1553 471.793945312 1514 c 2,31,-1
 419.52734375 1184 l 1,32,33
 443.080078125 1238 443.080078125 1238 460.26171875 1286.5 c 128,-1,34
 477.443359375 1335 477.443359375 1335 483.620117188 1374 c 0,35,36
 490.90625 1420 490.90625 1420 486.5234375 1446 c 128,-1,37
 482.9765625 1467.04785156 482.9765625 1467.04785156 489.943359375 1511.03222656 c 0,0,0
 491.58203125 1521.38085938 491.58203125 1521.38085938 493.803710938 1533 c 0,38,39
 502.772460938 1577 502.772460938 1577 520.048828125 1604 c 128,-1,40
 537.325195312 1631 537.325195312 1631 557.325195312 1631 c 0,41,42
 606.325195312 1631 606.325195312 1631 586.209960938 1504 c 0,43,44
 574.331054688 1429 574.331054688 1429 545.309570312 1331 c 128,-1,45
 516.288085938 1233 516.288085938 1233 460.96484375 1111 c 1,46,-1
 413.508789062 1146 l 1,47,-1
 260.350585938 179 l 2,48,49
 253.065429688 133 253.065429688 133 247.016601562 88.5 c 128,-1,50
 240.96875 44 240.96875 44 239 0 c 1,51,-1
 125 0 l 1,52,53
 123.276367188 27 123.276367188 27 123.107421875 57.5 c 128,-1,54
 122.9375 88 122.9375 88 129.907226562 132 c 1,55,56
 107.8203125 62 107.8203125 62 73.509765625 19 c 128,-1,57
 39.19921875 -24 39.19921875 -24 18.19921875 -24 c 0,13,14
EndSplineSet
EndChar

StartChar: e
Encoding: 101 101 274
Width: 512
VWidth: 2441
GlyphClass: 2
Flags: HW
AnchorPoint: "Anchor-3" 257.801 24 basechar 0
AnchorPoint: "Anchor-2" 215 0 basechar 0
AnchorPoint: "Anchor-0" 348.757 1116 basechar 0
LayerCount: 2
Fore
SplineSet
199.493164062 685 m 1,0,-1
 347.493164062 685 l 1,1,2
 371.884765625 839 371.884765625 839 371.575195312 906.5 c 128,-1,3
 371.266601562 974 371.266601562 974 324.266601562 974 c 0,4,5
 285.266601562 974 285.266601562 974 257.971679688 909 c 128,-1,6
 230.676757812 844 230.676757812 844 199.493164062 685 c 1,0,-1
185.19921875 -24 m 0,7,8
 63.19921875 -24 63.19921875 -24 19.3681640625 106.5 c 128,-1,9
 -24.462890625 237 -24.462890625 237 25.7451171875 554 c 0,10,11
 61.5400390625 780 61.5400390625 780 108.263671875 914 c 128,-1,12
 154.987304688 1048 154.987304688 1048 217.014648438 1105 c 128,-1,13
 279.04296875 1162 279.04296875 1162 359.04296875 1162 c 0,14,15
 434.04296875 1162 434.04296875 1162 471.911132812 1107.5 c 128,-1,16
 509.779296875 1053 509.779296875 1053 510.926757812 924.5 c 128,-1,17
 512.07421875 796 512.07421875 796 477.229492188 576 c 0,18,19
 473.427734375 552 473.427734375 552 470.89453125 536 c 128,-1,20
 468.360351562 520 468.360351562 520 463.350585938 501 c 1,21,-1
 166.350585938 501 l 1,22,23
 138.990234375 303 138.990234375 303 152.641601562 234.5 c 128,-1,24
 166.291992188 166 166.291992188 166 221.81640625 163 c 0,25,26
 260.81640625 163 260.81640625 163 288.750976562 191 c 128,-1,27
 316.686523438 219 316.686523438 219 339.337890625 261 c 1,28,-1
 392.956054688 126 l 1,29,30
 354.978515625 63 354.978515625 63 300.588867188 19.5 c 128,-1,31
 246.19921875 -24 246.19921875 -24 185.19921875 -24 c 0,7,8
EndSplineSet
EndChar

StartChar: uni029A
Encoding: 666 666 296
Width: 512
VWidth: 2441
GlyphClass: 1
Flags: HW
LayerCount: 2
Fore
SplineSet
181.291992188 166 m 0,0,1
 215.291992188 166 215.291992188 166 238.755859375 200.5 c 128,-1,2
 262.220703125 235 262.220703125 235 283.420898438 321.5 c 128,-1,3
 304.62109375 408 304.62109375 408 328.853515625 561 c 0,4,5
 365.598632812 793 365.598632812 793 362.432617188 883.5 c 128,-1,6
 359.266601562 974 359.266601562 974 319.266601562 974 c 0,7,8
 294.266601562 974 294.266601562 974 273.559570312 928.5 c 128,-1,9
 252.853515625 883 252.853515625 883 243.984375 827 c 0,10,11
 222.9140625 693.970703125 222.9140625 693.970703125 265.638671875 693.970703125 c 0,0,0
 266.271484375 693.970703125 266.271484375 693.970703125 266.918945312 694 c 0,12,13
 272.918945312 694 272.918945312 694 278.918945312 694 c 128,-1,14
 284.918945312 694 284.918945312 694 291.235351562 696 c 1,15,-1
 259.875 498 l 1,16,17
 250.192382812 500 250.192382812 500 242.587890625 502.5 c 128,-1,18
 234.984375 505 234.984375 505 224.984375 505 c 0,19,20
 204.984375 505 204.984375 505 179.465820312 467 c 128,-1,21
 153.947265625 429 153.947265625 429 139.05859375 335 c 0,22,23
 126.546875 256 126.546875 256 137.918945312 211 c 128,-1,24
 149.291992188 166 149.291992188 166 181.291992188 166 c 0,0,1
147.990234375 -19 m 0,25,26
 50.3076171875 -17 50.3076171875 -17 7.4580078125 75.5 c 128,-1,27
 -35.3916015625 168 -35.3916015625 168 -6.7236328125 349 c 0,28,29
 9.58984375 452 9.58984375 452 46.8349609375 523 c 128,-1,30
 84.080078125 594 84.080078125 594 129.40625 615 c 1,31,32
 78.552734375 698 78.552734375 698 100.04296875 840 c 0,33,34
 123.958984375 991 123.958984375 991 194.258789062 1065.5 c 128,-1,35
 264.55859375 1140 264.55859375 1140 339.55859375 1140 c 0,36,37
 456.55859375 1140 456.55859375 1140 490.09765625 1004.5 c 128,-1,38
 523.635742188 869 523.635742188 869 474.537109375 559 c 0,39,40
 424.012695312 240 424.012695312 240 344.342773438 109.5 c 128,-1,41
 265.876953125 -19.0302734375 265.876953125 -19.0302734375 151.504882812 -19.0302734375 c 0,0,0
 149.751953125 -19.0302734375 149.751953125 -19.0302734375 147.990234375 -19 c 0,25,26
EndSplineSet
EndChar

StartChar: f
Encoding: 102 102 300
Width: 476
VWidth: 2441
GlyphClass: 1
Flags: HW
LayerCount: 2
Fore
SplineSet
161.256835938 955 m 1,0,-1
 67.2568359375 955 l 1,1,-1
 95.7666015625 1135 l 1,2,-1
 189.766601562 1135 l 1,3,-1
 201.486328125 1209 l 2,4,5
 236.96484375 1433 236.96484375 1433 314.19921875 1535.5 c 128,-1,6
 391.43359375 1638 391.43359375 1638 464.43359375 1638 c 0,7,8
 505.43359375 1638 505.43359375 1638 548.444335938 1606.5 c 128,-1,9
 591.455078125 1575 591.455078125 1575 602.685546875 1507 c 1,10,-1
 540.34375 1347 l 1,11,-1
 527.54296875 1323 l 1,12,-1
 515.651367188 1330 l 1,13,14
 512.34375 1347 512.34375 1347 512.224609375 1371.5 c 128,-1,15
 512.104492188 1396 512.104492188 1396 494.856445312 1426 c 0,16,17
 481.657226562 1450 481.657226562 1450 451.815429688 1451 c 0,18,19
 419.815429688 1451 419.815429688 1451 388.129882812 1393 c 128,-1,20
 356.443359375 1335 356.443359375 1335 336.486328125 1209 c 2,21,-1
 324.766601562 1135 l 1,22,-1
 450.766601562 1135 l 1,23,-1
 422.256835938 955 l 1,24,-1
 296.256835938 955 l 1,25,-1
 145 0 l 1,26,-1
 10 0 l 1,27,-1
 161.256835938 955 l 1,0,-1
EndSplineSet
EndChar

StartChar: g
Encoding: 103 103 301
Width: 470
VWidth: 2301
GlyphClass: 2
Flags: HW
AnchorPoint: "Anchor-2" 110.363 -225 basechar 0
AnchorPoint: "Anchor-0" 296.707 1122 basechar 0
LayerCount: 2
Fore
SplineSet
48.384765625 34 m 0,0,1
 28.1123046875 -94 28.1123046875 -94 116.112304688 -94 c 0,2,3
 159.112304688 -94 159.112304688 -94 188.184570312 -52.5 c 128,-1,4
 217.2578125 -11 217.2578125 -11 225.810546875 43 c 0,5,6
 237.213867188 115 237.213867188 115 220.83203125 141 c 128,-1,7
 204.450195312 167 204.450195312 167 172.450195312 167 c 0,8,9
 150.450195312 167 150.450195312 167 131.608398438 168 c 128,-1,10
 112.766601562 169 112.766601562 169 93.400390625 173 c 1,11,12
 61.84765625 119 61.84765625 119 48.384765625 34 c 0,0,1
218.08984375 613 m 0,13,14
 251.08984375 613 251.08984375 613 265.454101562 659.5 c 128,-1,15
 279.819335938 706 279.819335938 706 296.766601562 813 c 0,16,17
 313.555664062 919 313.555664062 919 314.499023438 966 c 128,-1,18
 315.443359375 1013 315.443359375 1013 281.443359375 1013 c 0,19,20
 251.443359375 1013 251.443359375 1013 235.499023438 966 c 128,-1,21
 219.555664062 919 219.555664062 919 202.766601562 813 c 128,-1,22
 185.977539062 707 185.977539062 707 187.034179688 660 c 128,-1,23
 188.08984375 613 188.08984375 613 218.08984375 613 c 0,13,14
194.490234375 464 m 0,24,25
 172.490234375 464 172.490234375 464 156.440429688 470 c 1,26,27
 145.748046875 453 145.748046875 453 137.213867188 437 c 128,-1,28
 128.6796875 421 128.6796875 421 125.987304688 404 c 0,29,30
 119.810546875 365 119.810546875 365 141.5390625 347.5 c 128,-1,31
 163.266601562 330 163.266601562 330 232.266601562 330 c 0,32,33
 320.266601562 330 320.266601562 330 346.971679688 265 c 128,-1,34
 373.676757812 200 373.676757812 200 351.661132812 61 c 0,35,36
 331.388671875 -67 331.388671875 -67 265.712890625 -156.5 c 128,-1,37
 200.037109375 -246 200.037109375 -246 92.037109375 -246 c 0,38,39
 -17.962890625 -246 -17.962890625 -246 -61.7216796875 -184.5 c 128,-1,40
 -105.481445312 -123 -105.481445312 -123 -83.3076171875 17 c 0,41,42
 -71.5869140625 91 -71.5869140625 91 -47.3505859375 143 c 128,-1,43
 -23.115234375 195 -23.115234375 195 10.4287109375 230 c 1,44,45
 -13.81640625 273.37109375 -13.81640625 273.37109375 -0.611328125 356.747070312 c 0,46,47
 0.189453125 361.799804688 0.189453125 361.799804688 1.126953125 367 c 0,48,49
 9.62109375 408 9.62109375 408 30.693359375 449.5 c 128,-1,50
 51.7666015625 491 51.7666015625 491 79.626953125 528 c 1,51,52
 36.7724609375 611 36.7724609375 611 67.7666015625 813 c 0,53,54
 96.4345703125 994 96.4345703125 994 159.29296875 1081.5 c 128,-1,55
 222.151367188 1169 222.151367188 1169 306.151367188 1169 c 128,-1,56
 390.151367188 1169 390.151367188 1169 424.1640625 1087 c 1,57,58
 452.340820312 1126 452.340820312 1126 480.770507812 1144.5 c 128,-1,59
 509.201171875 1163 509.201171875 1163 538.567382812 1159 c 1,60,-1
 521.017578125 1004 l 1,61,62
 514.729492188 1005.33300781 514.729492188 1005.33300781 508.423828125 1005.33300781 c 0,63,64
 476.895507812 1005.33300781 476.895507812 1005.33300781 444.94921875 972 c 1,65,66
 445.337890625 905 445.337890625 905 431.766601562 813 c 0,67,68
 401.514648438 622 401.514648438 622 335.502929688 543 c 128,-1,69
 269.490234375 464 269.490234375 464 194.490234375 464 c 0,24,25
EndSplineSet
EndChar

StartChar: h
Encoding: 104 104 308
Width: 512
VWidth: 2441
GlyphClass: 2
Flags: HW
AnchorPoint: "Anchor-4" 239.235 1340 basechar 0
AnchorPoint: "Anchor-2" 160 0 basechar 0
AnchorPoint: "Anchor-0" 271.217 1624 basechar 0
LayerCount: 2
Fore
SplineSet
195.216796875 1624 m 1,0,-1
 368.216796875 1624 l 1,1,-1
 365.5234375 1607 l 1,2,3
 350.306640625 1593 350.306640625 1593 344.53515625 1575.5 c 128,-1,4
 338.762695312 1558 338.762695312 1558 332.110351562 1516 c 2,5,-1
 245.94921875 972 l 1,6,7
 283.788085938 1072 283.788085938 1072 330.415039062 1117 c 128,-1,8
 377.04296875 1162 377.04296875 1162 433.04296875 1162 c 0,9,10
 511.04296875 1162 511.04296875 1162 524.862304688 1063 c 128,-1,11
 538.682617188 964 538.682617188 964 497.819335938 706 c 2,12,-1
 386 0 l 1,13,-1
 233 0 l 1,14,-1
 344.02734375 701 l 2,15,16
 368.418945312 855 368.418945312 855 367.288085938 911 c 128,-1,17
 366.158203125 967 366.158203125 967 334.158203125 967 c 0,18,19
 296.158203125 967 296.158203125 967 257.908203125 886.5 c 128,-1,20
 219.658203125 806 219.658203125 806 193.840820312 643 c 2,21,-1
 92 0 l 1,22,-1
 -62 0 l 1,23,-1
 195.216796875 1624 l 1,0,-1
EndSplineSet
EndChar

StartChar: i
Encoding: 105 105 313
Width: 503
VWidth: 2441
GlyphClass: 2
Flags: HW
AnchorPoint: "Anchor-3" 277 0 basechar 0
AnchorPoint: "Anchor-2" 160 0 basechar 0
AnchorPoint: "Anchor-0" 396.943 1496 basechar 0
LayerCount: 2
Fore
SplineSet
-62 0 m 1,0,-1
 -32.5400390625 186 l 1,1,-1
 111.459960938 186 l 1,2,-1
 232.782226562 952 l 1,3,-1
 95.7822265625 952 l 1,4,-1
 124.766601562 1135 l 1,5,-1
 427.766601562 1135 l 1,6,-1
 277.459960938 186 l 1,7,-1
 406.459960938 186 l 1,8,-1
 377 0 l 1,9,-1
 -62 0 l 1,0,-1
374.303710938 1372 m 128,-1,11
 328.303710938 1372 328.303710938 1372 299.084960938 1408.5 c 128,-1,12
 269.865234375 1445 269.865234375 1445 277.625976562 1494 c 0,13,14
 285.704101562 1545 285.704101562 1545 324.826171875 1580.5 c 128,-1,15
 363.94921875 1616 363.94921875 1616 412.94921875 1616 c 0,16,17
 458.94921875 1616 458.94921875 1616 487.826171875 1580.5 c 128,-1,18
 516.704101562 1545 516.704101562 1545 508.625976562 1494 c 0,19,20
 500.865234375 1445 500.865234375 1445 460.584960938 1408.5 c 128,-1,10
 420.303710938 1372 420.303710938 1372 374.303710938 1372 c 128,-1,11
EndSplineSet
Substitution2: "'locl' Localized Forms in Latin lookup 18 subtable" i.loclTRK
Substitution2: "'locl' Localized Forms in Latin lookup 17 subtable" i.loclTRK
Substitution2: "'locl' Localized Forms in Latin lookup 16 subtable" i.loclTRK
Substitution2: "'locl' Localized Forms in Latin lookup 15 subtable" i.loclTRK
Substitution2: "'locl' Localized Forms in Latin lookup 14 subtable" i.loclTRK
Substitution2: "Single Substitution lookup 4 subtable" dotlessi
Substitution2: "Single Substitution lookup 3 subtable" dotlessi
AlternateSubs2: "'aalt' Access All Alternates in Latin lookup 1 subtable" dotlessi i.loclTRK
EndChar

StartChar: dotlessi
Encoding: 305 305 314
Width: 503
VWidth: 2441
GlyphClass: 2
Flags: HW
AnchorPoint: "Anchor-3" 277 0 basechar 0
AnchorPoint: "Anchor-2" 160 0 basechar 0
AnchorPoint: "Anchor-0" 339.767 1135 basechar 0
LayerCount: 2
Fore
SplineSet
-62 0 m 1,0,-1
 -32.5400390625 186 l 1,1,-1
 111.459960938 186 l 1,2,-1
 232.782226562 952 l 1,3,-1
 95.7822265625 952 l 1,4,-1
 124.766601562 1135 l 1,5,-1
 427.766601562 1135 l 1,6,-1
 277.459960938 186 l 1,7,-1
 406.459960938 186 l 1,8,-1
 377 0 l 1,9,-1
 -62 0 l 1,0,-1
EndSplineSet
EndChar

StartChar: j
Encoding: 106 106 329
Width: 538
VWidth: 2367
GlyphClass: 2
Flags: HW
AnchorPoint: "Anchor-2" 157.336 -282 basechar 0
AnchorPoint: "Anchor-0" 518.686 1507 basechar 0
LayerCount: 2
Fore
SplineSet
79.037109375 -246 m 0,0,1
 30.037109375 -246 30.037109375 -246 -16.13671875 -225 c 128,-1,2
 -62.310546875 -204 -62.310546875 -204 -90.974609375 -164 c 1,3,-1
 -9.158203125 -1 l 1,4,-1
 0.326171875 21 l 1,5,-1
 12.5341796875 16 l 1,6,7
 16.841796875 -1 16.841796875 -1 18.990234375 -19 c 128,-1,8
 21.1396484375 -37 21.1396484375 -37 39.6552734375 -59 c 1,9,10
 54.9130859375 -70 54.9130859375 -70 71.517578125 -72.5 c 128,-1,11
 88.12109375 -75 88.12109375 -75 104.12109375 -75 c 0,12,13
 149.12109375 -75 149.12109375 -75 175.861328125 -13.5 c 128,-1,14
 202.602539062 48 202.602539062 48 223.826171875 182 c 2,15,-1
 354.651367188 1008 l 1,16,-1
 165.651367188 1008 l 1,17,-1
 192.418945312 1177 l 1,18,-1
 536.418945312 1177 l 1,19,-1
 380.092773438 190 l 2,20,21
 353.16796875 20 353.16796875 20 307.700195312 -74.5 c 128,-1,22
 262.233398438 -169 262.233398438 -169 205.134765625 -207.5 c 128,-1,23
 148.037109375 -246 148.037109375 -246 79.037109375 -246 c 0,0,1
498.629882812 1393 m 128,-1,25
 456.629882812 1393 456.629882812 1393 429.435546875 1426.5 c 128,-1,26
 402.241210938 1460 402.241210938 1460 409.209960938 1504 c 0,27,28
 416.654296875 1551 416.654296875 1551 452.801757812 1583.5 c 128,-1,29
 488.94921875 1616 488.94921875 1616 533.94921875 1616 c 0,30,31
 575.94921875 1616 575.94921875 1616 601.801757812 1583.5 c 128,-1,32
 627.654296875 1551 627.654296875 1551 620.209960938 1504 c 0,33,34
 613.083007812 1459 613.083007812 1459 576.856445312 1426 c 128,-1,24
 540.629882812 1393 540.629882812 1393 498.629882812 1393 c 128,-1,25
EndSplineSet
Substitution2: "Single Substitution lookup 4 subtable" uni0237
Substitution2: "Single Substitution lookup 3 subtable" uni0237
Substitution2: "'aalt' Access All Alternates in Latin lookup 0 subtable" uni0237
EndChar

StartChar: uni0237
Encoding: 567 567 330
Width: 491
VWidth: 2290
GlyphClass: 2
Flags: HW
AnchorPoint: "Anchor-2" 148.494 -281 basechar 0
AnchorPoint: "Anchor-0" 448.767 1135 basechar 0
LayerCount: 2
Fore
SplineSet
73.037109375 -246 m 0,0,1
 25.037109375 -246 25.037109375 -246 -19.7158203125 -225.5 c 128,-1,2
 -64.46875 -205 -64.46875 -205 -91.4501953125 -167 c 1,3,-1
 -13.2666015625 -8 l 1,4,-1
 -2.94140625 13 l 1,5,-1
 8.2666015625 8 l 1,6,7
 11.57421875 -9 11.57421875 -9 13.8818359375 -26 c 128,-1,8
 16.189453125 -43 16.189453125 -43 33.86328125 -64 c 1,9,10
 49.12109375 -75 49.12109375 -75 65.2255859375 -77.5 c 128,-1,11
 81.3291015625 -80 81.3291015625 -80 97.3291015625 -80 c 0,12,13
 140.329101562 -80 140.329101562 -80 166.752929688 -20.5 c 128,-1,14
 193.176757812 39 193.176757812 39 213.766601562 169 c 2,15,-1
 340.791015625 971 l 1,16,-1
 156.791015625 971 l 1,17,-1
 182.766601562 1135 l 1,18,-1
 516.766601562 1135 l 1,19,-1
 365.034179688 177 l 2,20,21
 338.900390625 12 338.900390625 12 294.908203125 -79.5 c 128,-1,22
 250.916015625 -171 250.916015625 -171 195.4765625 -208.5 c 128,-1,23
 140.037109375 -246 140.037109375 -246 73.037109375 -246 c 0,0,1
EndSplineSet
EndChar

StartChar: k
Encoding: 107 107 332
Width: 481
VWidth: 2441
GlyphClass: 2
Flags: HW
AnchorPoint: "Anchor-2" 140 0 basechar 0
AnchorPoint: "Anchor-0" 251.217 1624 basechar 0
LayerCount: 2
Fore
SplineSet
167.015625 461 m 1,0,-1
 126.869140625 378 l 1,1,-1
 65 0 l 1,2,-1
 -73 0 l 1,3,-1
 184.216796875 1624 l 1,4,-1
 341.216796875 1624 l 1,5,-1
 338.5234375 1607 l 1,6,7
 324.306640625 1593 324.306640625 1593 318.03515625 1575.5 c 128,-1,8
 311.762695312 1558 311.762695312 1558 305.110351562 1516 c 2,9,-1
 166.366210938 640 l 1,10,-1
 415.508789062 1146 l 1,11,12
 430.399414062 1139 430.399414062 1139 453.028320312 1133.5 c 128,-1,13
 475.657226562 1128 475.657226562 1128 496.657226562 1128 c 2,14,-1
 534.657226562 1128 l 1,15,-1
 286.198242188 620 l 1,16,-1
 375 0 l 1,17,-1
 230.416015625 -10 l 1,18,-1
 167.015625 461 l 1,0,-1
EndSplineSet
EndChar

StartChar: kgreenlandic
Encoding: 312 312 334
Width: 481
VWidth: 2441
GlyphClass: 2
Flags: HW
AnchorPoint: "Anchor-2" 138 0 basechar 0
AnchorPoint: "Anchor-0" 167.757 1116 basechar 0
LayerCount: 2
Fore
SplineSet
167.015625 461 m 1,0,-1
 126.869140625 378 l 1,1,-1
 65 0 l 1,2,-1
 -73 0 l 1,3,-1
 106.766601562 1135 l 1,4,-1
 263.766601562 1135 l 1,5,-1
 261.07421875 1118 l 1,6,7
 246.856445312 1104 246.856445312 1104 240.584960938 1086.5 c 128,-1,8
 234.3125 1069 234.3125 1069 227.819335938 1028 c 2,9,-1
 166.366210938 640 l 1,10,-1
 415.508789062 1146 l 1,11,12
 430.399414062 1139 430.399414062 1139 453.028320312 1133.5 c 128,-1,13
 475.657226562 1128 475.657226562 1128 496.657226562 1128 c 2,14,-1
 534.657226562 1128 l 1,15,-1
 286.198242188 620 l 1,16,-1
 375 0 l 1,17,-1
 230.416015625 -10 l 1,18,-1
 167.015625 461 l 1,0,-1
EndSplineSet
EndChar

StartChar: l
Encoding: 108 108 335
Width: 512
VWidth: 2441
GlyphClass: 2
Flags: HW
AnchorPoint: "Anchor-4" 251.537 559 basechar 0
AnchorPoint: "Anchor-2" 163 0 basechar 0
AnchorPoint: "Anchor-1" 603.757 1116 basechar 0
AnchorPoint: "Anchor-0" 420.217 1624 basechar 0
LayerCount: 2
Fore
SplineSet
-62 0 m 1,0,-1
 -32.2236328125 188 l 1,1,-1
 114.776367188 188 l 1,2,-1
 312.28125 1435 l 1,3,-1
 172.28125 1435 l 1,4,-1
 202.216796875 1624 l 1,5,-1
 501.216796875 1624 l 1,6,-1
 273.776367188 188 l 1,7,-1
 415.776367188 188 l 1,8,-1
 386 0 l 1,9,-1
 -62 0 l 1,0,-1
EndSplineSet
EndChar

StartChar: ldot
Encoding: 320 320 339
Width: 539
VWidth: 2441
GlyphClass: 1
Flags: HW
LayerCount: 2
Fore
SplineSet
393.443359375 691 m 128,-1,1
 352.443359375 691 352.443359375 691 328.724609375 727.5 c 128,-1,2
 305.005859375 764 305.005859375 764 313.083007812 815 c 0,3,4
 321.635742188 869 321.635742188 869 356.99609375 906 c 128,-1,5
 392.356445312 943 392.356445312 943 433.356445312 943 c 128,-1,6
 474.356445312 943 474.356445312 943 498.99609375 906 c 128,-1,7
 523.635742188 869 523.635742188 869 515.083007812 815 c 0,8,9
 507.005859375 764 507.005859375 764 470.724609375 727.5 c 128,-1,0
 434.443359375 691 434.443359375 691 393.443359375 691 c 128,-1,1
-62 0 m 1,10,-1
 -32.2236328125 188 l 1,11,-1
 69.7763671875 188 l 1,12,-1
 267.28125 1435 l 1,13,-1
 172.28125 1435 l 1,14,-1
 202.216796875 1624 l 1,15,-1
 439.216796875 1624 l 1,16,-1
 211.776367188 188 l 1,17,-1
 347.776367188 188 l 1,18,-1
 316 0 l 1,19,-1
 -62 0 l 1,10,-1
EndSplineSet
EndChar

StartChar: uni01C9
Encoding: 457 457 341
Width: 462
VWidth: 2368
GlyphClass: 1
Flags: HW
LayerCount: 2
Fore
SplineSet
97.037109375 -246 m 0,0,1
 55.037109375 -246 55.037109375 -246 20.734375 -219.5 c 128,-1,2
 -13.568359375 -193 -13.568359375 -193 -27.8662109375 -157 c 1,3,-1
 50.2265625 33 l 1,4,5
 57.80078125 24 57.80078125 24 56.296875 14.5 c 128,-1,6
 54.7919921875 5 54.7919921875 5 56.8369140625 -10.5 c 128,-1,7
 58.8818359375 -26 58.8818359375 -26 81.0810546875 -50 c 0,8,9
 90.3388671875 -61 90.3388671875 -61 100.205078125 -65 c 128,-1,10
 110.071289062 -69 110.071289062 -69 124.071289062 -69 c 0,11,12
 166.071289062 -69 166.071289062 -69 191.465820312 -16 c 128,-1,13
 216.860351562 37 216.860351562 37 239.826171875 182 c 2,14,-1
 370.809570312 1009 l 1,15,-1
 277.809570312 1009 l 1,16,-1
 304.418945312 1177 l 1,17,-1
 518.418945312 1177 l 1,18,-1
 362.092773438 190 l 2,19,20
 335.16796875 20 335.16796875 20 296.700195312 -74.5 c 128,-1,21
 258.233398438 -169 258.233398438 -169 207.293945312 -206.5 c 128,-1,22
 156.354492188 -244 156.354492188 -244 97.037109375 -246 c 0,0,1
479.095703125 1377 m 128,-1,24
 442.095703125 1377 442.095703125 1377 419.822265625 1410 c 128,-1,25
 397.548828125 1443 397.548828125 1443 404.67578125 1488 c 0,26,27
 412.120117188 1535 412.120117188 1535 444.188476562 1567 c 128,-1,28
 476.256835938 1599 476.256835938 1599 514.256835938 1599 c 0,29,30
 551.256835938 1599 551.256835938 1599 573.109375 1566.5 c 128,-1,31
 594.961914062 1534 594.961914062 1534 587.67578125 1488 c 0,32,33
 580.548828125 1443 580.548828125 1443 548.322265625 1410 c 128,-1,23
 516.095703125 1377 516.095703125 1377 479.095703125 1377 c 128,-1,24
-73.66796875 141 m 1,34,-1
 -44.42578125 313 l 1,35,-1
 7.57421875 313 l 1,36,-1
 187.974609375 1452 l 1,37,-1
 141.974609375 1452 l 1,38,-1
 167.216796875 1624 l 1,39,-1
 334.216796875 1624 l 1,40,-1
 126.57421875 313 l 1,41,-1
 211.57421875 313 l 1,42,-1
 184.33203125 141 l 1,43,-1
 -73.66796875 141 l 1,34,-1
EndSplineSet
EndChar

StartChar: lslash
Encoding: 322 322 343
Width: 512
VWidth: 2441
GlyphClass: 1
Flags: HW
LayerCount: 2
Fore
SplineSet
-62 0 m 1,0,-1
 -32.2236328125 188 l 1,1,-1
 105.776367188 188 l 1,2,-1
 173.723632812 617 l 1,3,-1
 92.2197265625 557 l 1,4,-1
 132.450195312 811 l 1,5,-1
 213.953125 871 l 1,6,-1
 303.28125 1435 l 1,7,-1
 172.28125 1435 l 1,8,-1
 202.216796875 1624 l 1,9,-1
 502.216796875 1624 l 1,10,-1
 398.158203125 967 l 1,11,-1
 495.927734375 1035 l 1,12,-1
 455.22265625 778 l 1,13,-1
 357.135742188 708 l 1,14,-1
 274.776367188 188 l 1,15,-1
 415.776367188 188 l 1,16,-1
 384 0 l 1,17,-1
 -62 0 l 1,0,-1
EndSplineSet
EndChar

StartChar: m
Encoding: 109 109 344
Width: 487
VWidth: 2441
GlyphClass: 2
Flags: HW
AnchorPoint: "Anchor-2" 155 0 basechar 0
AnchorPoint: "Anchor-0" 566.757 1116 basechar 0
LayerCount: 2
Fore
SplineSet
-76 0 m 1,0,-1
 103.766601562 1135 l 1,1,-1
 208.766601562 1135 l 1,2,-1
 191.34375 1025 l 1,3,4
 213.005859375 1086 213.005859375 1086 236.024414062 1124 c 128,-1,5
 259.04296875 1162 259.04296875 1162 287.04296875 1162 c 0,6,7
 317.04296875 1162 317.04296875 1162 326.915039062 1117 c 128,-1,8
 336.788085938 1072 336.788085938 1072 331.225585938 999 c 1,9,10
 354.788085938 1072 354.788085938 1072 386.415039062 1117 c 128,-1,11
 418.04296875 1162 418.04296875 1162 453.04296875 1162 c 0,12,13
 499.04296875 1162 499.04296875 1162 516.530273438 1083 c 0,14,15
 532.427734375 1011.18164062 532.427734375 1011.18164062 512.15234375 883.165039062 c 0,16,17
 510.125 870.36328125 510.125 870.36328125 507.735351562 857 c 2,18,-1
 372 0 l 1,19,-1
 255 0 l 1,20,-1
 384.875 820 l 2,21,22
 402.614257812 932 402.614257812 932 403.26171875 964.5 c 128,-1,23
 403.909179688 997 403.909179688 997 393.909179688 997 c 0,24,25
 371.909179688 997 371.909179688 997 354.930664062 934 c 128,-1,26
 337.953125 871 337.953125 871 321.48046875 767 c 2,27,-1
 200 0 l 1,28,-1
 95 0 l 1,29,-1
 222.658203125 806 l 2,30,31
 240.713867188 920 240.713867188 920 243.07421875 957 c 128,-1,32
 245.434570312 994 245.434570312 994 232.434570312 994 c 0,33,34
 218.434570312 994 218.434570312 994 200.540039062 941 c 128,-1,35
 182.645507812 888 182.645507812 888 164.58984375 774 c 2,36,-1
 42 0 l 1,37,-1
 -76 0 l 1,0,-1
EndSplineSet
EndChar

StartChar: n
Encoding: 110 110 346
Width: 512
VWidth: 2441
GlyphClass: 2
Flags: HW
AnchorPoint: "Anchor-2" 171 0 basechar 0
AnchorPoint: "Anchor-0" 353.757 1116 basechar 0
LayerCount: 2
Fore
SplineSet
-62 0 m 1,0,-1
 117.766601562 1135 l 1,1,-1
 271.766601562 1135 l 1,2,-1
 245.94921875 972 l 1,3,4
 281.887695312 1060 281.887695312 1060 326.46484375 1111 c 128,-1,5
 371.04296875 1162 371.04296875 1162 422.04296875 1162 c 0,6,7
 471.04296875 1162 471.04296875 1162 498.553710938 1130.5 c 128,-1,8
 526.064453125 1099 526.064453125 1099 528.334960938 1006 c 128,-1,9
 530.60546875 913 530.60546875 913 501.62109375 730 c 2,10,-1
 386 0 l 1,11,-1
 233 0 l 1,12,-1
 347.829101562 725 l 2,13,14
 370.635742188 869 370.635742188 869 367.396484375 918 c 128,-1,15
 364.158203125 967 364.158203125 967 338.158203125 967 c 0,16,17
 302.158203125 967 302.158203125 967 261.620117188 891 c 128,-1,18
 221.083007812 815 221.083007812 815 197.484375 666 c 2,19,-1
 92 0 l 1,20,-1
 -62 0 l 1,0,-1
EndSplineSet
EndChar

StartChar: eng
Encoding: 331 331 352
Width: 501
VWidth: 2292
GlyphClass: 1
Flags: HW
LayerCount: 2
Fore
SplineSet
128.037109375 -246 m 0,0,1
 100.037109375 -246 100.037109375 -246 63.17578125 -232.5 c 128,-1,2
 26.3134765625 -219 26.3134765625 -219 7.2236328125 -188 c 1,3,-1
 69.7236328125 -27 l 1,4,5
 80.4072265625 -29 80.4072265625 -29 82.7685546875 -42.5 c 128,-1,6
 85.130859375 -56 85.130859375 -56 92.333984375 -70.5 c 128,-1,7
 99.537109375 -85 99.537109375 -85 130.537109375 -85 c 0,8,9
 184.537109375 -85 184.537109375 -85 210.336914062 -10.5 c 128,-1,10
 236.13671875 64 236.13671875 64 262.586914062 231 c 2,11,-1
 341.303710938 728 l 2,12,13
 366.645507812 888 366.645507812 888 363.643554688 938.5 c 128,-1,14
 360.642578125 989 360.642578125 989 335.642578125 989 c 0,15,16
 298.642578125 989 298.642578125 989 260.080078125 916 c 128,-1,17
 221.518554688 843 221.518554688 843 199.185546875 702 c 2,18,-1
 109.223632812 134 l 1,19,-1
 -40.7763671875 134 l 1,20,-1
 118.241210938 1138 l 1,21,-1
 268.241210938 1138 l 1,22,-1
 245.275390625 993 l 1,23,24
 283.688476562 1084 283.688476562 1084 318.366210938 1123 c 128,-1,25
 353.04296875 1162 353.04296875 1162 410.04296875 1162 c 0,26,27
 453.04296875 1162 453.04296875 1162 480.919921875 1126.5 c 128,-1,28
 508.797851562 1091 508.797851562 1091 513.409179688 997 c 128,-1,29
 518.021484375 903 518.021484375 903 490.9375 732 c 2,30,-1
 415.387695312 255 l 2,31,32
 385.611328125 67 385.611328125 67 344.34765625 -42 c 128,-1,33
 303.083984375 -151 303.083984375 -151 250.560546875 -198.5 c 128,-1,34
 198.037109375 -246 198.037109375 -246 128.037109375 -246 c 0,0,1
EndSplineSet
EndChar

StartChar: o
Encoding: 111 111 355
Width: 495
VWidth: 2441
GlyphClass: 2
Flags: HW
AnchorPoint: "Anchor-4" 241.537 559 basechar 0
AnchorPoint: "Anchor-3" 188.801 24 basechar 0
AnchorPoint: "Anchor-2" 153 0 basechar 0
AnchorPoint: "Anchor-1" 430.68 1065 basechar 0
AnchorPoint: "Anchor-0" 329.757 1116 basechar 0
LayerCount: 2
Fore
SplineSet
179.291992188 166 m 128,-1,1
 225.291992188 166 225.291992188 166 258.625976562 256.5 c 128,-1,2
 291.958984375 347 291.958984375 347 326.329101562 564 c 0,3,4
 361.806640625 788 361.806640625 788 357.537109375 881 c 128,-1,5
 353.266601562 974 353.266601562 974 307.266601562 974 c 0,6,7
 263.266601562 974 263.266601562 974 227.616210938 881.5 c 128,-1,8
 191.96484375 789 191.96484375 789 156.329101562 564 c 0,9,10
 121.958984375 347 121.958984375 347 127.625976562 256.5 c 128,-1,0
 133.291992188 166 133.291992188 166 179.291992188 166 c 128,-1,1
149.990234375 -19 m 128,-1,12
 80.990234375 -19 80.990234375 -19 39.068359375 32 c 128,-1,13
 -2.8544921875 83 -2.8544921875 83 -10.8974609375 209 c 128,-1,14
 -18.94140625 335 -18.94140625 335 16.537109375 559 c 0,15,16
 54.07421875 796 54.07421875 796 102.743164062 926.5 c 128,-1,17
 151.412109375 1057 151.412109375 1057 209.727539062 1109.5 c 128,-1,18
 268.04296875 1162 268.04296875 1162 337.04296875 1162 c 128,-1,19
 406.04296875 1162 406.04296875 1162 447.727539062 1109.5 c 128,-1,20
 489.412109375 1057 489.412109375 1057 495.743164062 926.5 c 128,-1,21
 502.07421875 796 502.07421875 796 464.537109375 559 c 0,22,23
 429.05859375 335 429.05859375 335 382.102539062 209 c 128,-1,24
 335.145507812 83 335.145507812 83 277.068359375 32 c 128,-1,11
 218.990234375 -19 218.990234375 -19 149.990234375 -19 c 128,-1,12
EndSplineSet
Substitution2: "Single Substitution lookup 29 subtable" ordmasculine
Substitution2: "'aalt' Access All Alternates in Latin lookup 0 subtable" ordmasculine
EndChar

StartChar: oslash
Encoding: 248 248 383
Width: 495
VWidth: 2441
GlyphClass: 2
Flags: HW
AnchorPoint: "Anchor-4" 241.537 559 basechar 0
AnchorPoint: "Anchor-3" 188.801 24 basechar 0
AnchorPoint: "Anchor-2" 153 0 basechar 0
AnchorPoint: "Anchor-1" 430.68 1065 basechar 0
AnchorPoint: "Anchor-0" 329.757 1116 basechar 0
LayerCount: 2
Fore
SplineSet
179.291992188 166 m 0,0,1
 225.291992188 166 225.291992188 166 258.625976562 256.5 c 128,-1,2
 291.958984375 347 291.958984375 347 326.329101562 564 c 0,3,4
 339.158203125 645 339.158203125 645 347.344726562 703 c 1,5,-1
 146.142578125 184 l 1,6,7
 159.291992188 166 159.291992188 166 179.291992188 166 c 0,0,1
156.329101562 564 m 0,8,9
 144.766601562 491 144.766601562 491 137.213867188 437 c 1,10,-1
 338.57421875 957 l 1,11,12
 327.266601562 974 327.266601562 974 307.266601562 974 c 0,13,14
 263.266601562 974 263.266601562 974 227.537109375 881 c 128,-1,15
 191.806640625 788 191.806640625 788 156.329101562 564 c 0,8,9
30.15234375 -119 m 1,16,-1
 -59.87890625 -75 l 1,17,-1
 7.046875 95 l 1,18,19
 -12.5 161 -12.5 161 -11.4443359375 275 c 128,-1,20
 -10.388671875 389 -10.388671875 389 16.537109375 559 c 0,21,22
 54.07421875 796 54.07421875 796 102.743164062 926.5 c 128,-1,23
 151.412109375 1057 151.412109375 1057 209.727539062 1109.5 c 128,-1,24
 268.04296875 1162 268.04296875 1162 337.04296875 1162 c 0,25,26
 379.04296875 1162 379.04296875 1162 411.508789062 1146 c 1,27,-1
 454.564453125 1260 l 1,28,-1
 544.595703125 1216 l 1,29,-1
 477.51171875 1045 l 1,30,31
 498.741210938 977 498.741210938 977 496.2109375 860 c 128,-1,32
 493.6796875 743 493.6796875 743 464.537109375 559 c 0,33,34
 429.05859375 335 429.05859375 335 382.102539062 209 c 128,-1,35
 335.145507812 83 335.145507812 83 277.068359375 32 c 128,-1,36
 218.990234375 -19 218.990234375 -19 149.990234375 -19 c 0,37,38
 105.990234375 -19 105.990234375 -19 73.68359375 -2 c 1,39,-1
 30.15234375 -119 l 1,16,-1
EndSplineSet
EndChar

StartChar: oe
Encoding: 339 339 389
Width: 426
VWidth: 2441
GlyphClass: 1
Flags: HW
LayerCount: 2
Fore
SplineSet
49.015625 139 m 0,0,1
 60.015625 139 60.015625 139 72.7080078125 156 c 128,-1,2
 85.400390625 173 85.400390625 173 92.369140625 217 c 0,3,4
 93.1611328125 222 93.1611328125 222 94.2998046875 235.5 c 128,-1,5
 95.4375 249 95.4375 249 97.2392578125 273 c 0,6,7
 113.639648438 446 113.639648438 446 135.021484375 581 c 0,8,9
 157.51171875 723 157.51171875 723 173.416015625 795 c 128,-1,10
 189.319335938 867 189.319335938 867 191.853515625 883 c 0,11,12
 199.138671875 929 199.138671875 929 198.756835938 955 c 128,-1,13
 198.375 981 198.375 981 180.375 981 c 0,14,15
 168.375 981 168.375 981 153.885742188 949.5 c 128,-1,16
 139.396484375 918 139.396484375 918 119.196289062 831.5 c 128,-1,17
 98.99609375 745 98.99609375 745 73.337890625 583 c 0,18,19
 44.6708984375 402 44.6708984375 402 34.9658203125 306 c 128,-1,20
 25.2607421875 210 25.2607421875 210 30.1376953125 174.5 c 128,-1,21
 35.015625 139 35.015625 139 49.015625 139 c 0,0,1
254.918945312 694 m 1,22,-1
 336.918945312 694 l 1,23,24
 364.319335938 867 364.319335938 867 368.376953125 930.5 c 128,-1,25
 372.434570312 994 372.434570312 994 344.434570312 994 c 128,-1,26
 316.434570312 994 316.434570312 994 298.267578125 923.5 c 128,-1,27
 280.1015625 853 280.1015625 853 254.918945312 694 c 1,22,-1
212.248046875 -30 m 0,28,29
 175.248046875 -30 175.248046875 -30 150.07421875 -9 c 128,-1,30
 124.900390625 12 124.900390625 12 116.286132812 46 c 1,31,32
 94.7421875 11 94.7421875 11 69.7333984375 -8 c 128,-1,33
 44.7236328125 -27 44.7236328125 -27 13.7236328125 -27 c 0,34,35
 -12.2763671875 -27 -12.2763671875 -27 -32.6337890625 -4 c 128,-1,36
 -52.990234375 19 -52.990234375 19 -62.25 80.5 c 128,-1,37
 -71.509765625 142 -71.509765625 142 -65.3740234375 256.5 c 128,-1,38
 -59.2392578125 371 -59.2392578125 371 -29.7802734375 557 c 0,39,40
 6.0146484375 783 6.0146484375 783 42.7880859375 911 c 128,-1,41
 79.5615234375 1039 79.5615234375 1039 120.03515625 1092.5 c 128,-1,42
 160.508789062 1146 160.508789062 1146 206.508789062 1146 c 0,43,44
 234.508789062 1146 234.508789062 1146 251.840820312 1126 c 128,-1,45
 269.172851562 1106 269.172851562 1106 277.887695312 1060 c 1,46,47
 303.172851562 1106 303.172851562 1106 329.840820312 1126 c 128,-1,48
 356.508789062 1146 356.508789062 1146 383.508789062 1146 c 0,49,50
 442.508789062 1146 442.508789062 1146 458.987304688 1048 c 128,-1,51
 475.46484375 950 475.46484375 950 434.443359375 691 c 2,52,-1
 408.151367188 525 l 1,53,-1
 226.151367188 525 l 1,54,55
 201.860351562 359 201.860351562 359 195.818359375 273.5 c 128,-1,56
 189.776367188 188 189.776367188 188 200.841796875 160 c 128,-1,57
 211.907226562 132 211.907226562 132 237.907226562 132 c 0,58,59
 288.907226562 132 288.907226562 132 330.794921875 226 c 1,60,-1
 342.512695312 79 l 1,61,62
 278.248046875 -30 278.248046875 -30 212.248046875 -30 c 0,28,29
EndSplineSet
EndChar

StartChar: p
Encoding: 112 112 390
Width: 501
VWidth: 2307
GlyphClass: 2
Flags: HW
AnchorPoint: "Anchor-2" 185.006 120 basechar 0
AnchorPoint: "Anchor-0" 346.083 1137 basechar 0
LayerCount: 2
Fore
SplineSet
206.86328125 258 m 0,0,1
 231.86328125 258 231.86328125 258 253.1640625 282 c 128,-1,2
 274.465820312 306 274.465820312 306 295.740234375 383.5 c 128,-1,3
 317.015625 461 317.015625 461 342.356445312 621 c 0,4,5
 367.22265625 778 367.22265625 778 373.131835938 859.5 c 128,-1,6
 379.040039062 941 379.040039062 941 367.211914062 970.5 c 128,-1,7
 355.384765625 1000 355.384765625 1000 326.384765625 1000 c 0,8,9
 285.384765625 1000 285.384765625 1000 242.571289062 897 c 128,-1,10
 199.756835938 794 199.756835938 794 166.813476562 586 c 0,11,12
 147.90625 454 147.90625 454 150.161132812 383 c 128,-1,13
 152.416015625 312 152.416015625 312 168.139648438 285 c 128,-1,14
 183.86328125 258 183.86328125 258 206.86328125 258 c 0,0,1
-101.962890625 -246 m 1,15,-1
 117.083007812 1137 l 1,16,-1
 258.083007812 1137 l 1,17,-1
 237.334960938 1006 l 1,18,19
 264.580078125 1077 264.580078125 1077 302.153320312 1118.5 c 128,-1,20
 339.725585938 1160 339.725585938 1160 386.725585938 1160 c 0,21,22
 423.725585938 1160 423.725585938 1160 453.954101562 1142.5 c 128,-1,23
 484.182617188 1125 484.182617188 1125 501.05078125 1070.5 c 128,-1,24
 517.918945312 1016 517.918945312 1016 515.05078125 909.5 c 128,-1,25
 512.182617188 803 512.182617188 803 484.306640625 627 c 0,26,27
 450.887695312 416 450.887695312 416 412.594726562 300.5 c 128,-1,28
 374.30078125 185 374.30078125 185 326.015625 139 c 128,-1,29
 277.729492188 93 277.729492188 93 215.729492188 93 c 0,30,31
 125.729492188 93 125.729492188 93 115.6953125 238 c 1,32,-1
 39.037109375 -246 l 1,33,-1
 -101.962890625 -246 l 1,15,-1
EndSplineSet
EndChar

StartChar: thorn
Encoding: 254 254 391
Width: 501
VWidth: 2374
GlyphClass: 1
Flags: HW
LayerCount: 2
Fore
SplineSet
208.921875 271 m 0,0,1
 233.921875 271 233.921875 271 255.302734375 295.5 c 128,-1,2
 276.682617188 320 276.682617188 320 298.274414062 399.5 c 128,-1,3
 319.866210938 479 319.866210938 479 346 644 c 0,4,5
 371.499023438 805 371.499023438 805 377.724609375 888.5 c 128,-1,6
 383.94921875 972 383.94921875 972 372.201171875 1002 c 128,-1,7
 360.453125 1032 360.453125 1032 331.453125 1032 c 0,8,9
 290.453125 1032 290.453125 1032 247.322265625 927 c 128,-1,10
 204.192382812 822 204.192382812 822 170.297851562 608 c 0,11,12
 150.916015625 473 150.916015625 473 152.853515625 400 c 128,-1,13
 154.791992188 327 154.791992188 327 170.357421875 299 c 128,-1,14
 185.921875 271 185.921875 271 208.921875 271 c 0,0,1
194.216796875 1624 m 1,15,-1
 354.216796875 1624 l 1,16,-1
 351.682617188 1608 l 1,17,18
 337.623046875 1595 337.623046875 1595 331.588867188 1579 c 128,-1,19
 325.5546875 1563 325.5546875 1563 319.536132812 1525 c 2,20,-1
 242.561523438 1039 l 1,21,22
 269.96484375 1111 269.96484375 1111 307.775390625 1154 c 128,-1,23
 345.5859375 1197 345.5859375 1197 392.5859375 1197 c 0,24,25
 429.5859375 1197 429.5859375 1197 459.735351562 1179 c 128,-1,26
 489.884765625 1161 489.884765625 1161 506.514648438 1105 c 128,-1,27
 523.145507812 1049 523.145507812 1049 519.801757812 939.5 c 128,-1,28
 516.458984375 830 516.458984375 830 487.950195312 650 c 0,29,30
 453.739257812 434 453.739257812 434 414.890625 315 c 128,-1,31
 376.04296875 196 376.04296875 196 327.599609375 149 c 128,-1,32
 279.155273438 102 279.155273438 102 217.155273438 102 c 0,33,34
 127.155273438 102 127.155273438 102 117.754882812 251 c 1,35,-1
 39.037109375 -246 l 1,36,-1
 -101.962890625 -246 l 1,37,-1
 194.216796875 1624 l 1,15,-1
EndSplineSet
EndChar

StartChar: q
Encoding: 113 113 392
Width: 538
VWidth: 2308
GlyphClass: 1
Flags: HW
LayerCount: 2
Fore
SplineSet
198.813476562 264 m 0,0,1
 241.813476562 264 241.813476562 264 274.379882812 346.5 c 128,-1,2
 306.947265625 429 306.947265625 429 341.6328125 648 c 0,3,4
 374.260742188 854 374.260742188 854 364.638671875 929 c 128,-1,5
 355.017578125 1004 355.017578125 1004 316.017578125 1004 c 0,6,7
 289.017578125 1004 289.017578125 1004 266.370117188 971.5 c 128,-1,8
 243.72265625 939 243.72265625 939 222.814453125 857.5 c 128,-1,9
 201.90625 776 201.90625 776 178.782226562 630 c 0,10,11
 156.291992188 488 156.291992188 488 151.62109375 408 c 128,-1,12
 146.950195312 328 146.950195312 328 159.381835938 296 c 128,-1,13
 171.813476562 264 171.813476562 264 198.813476562 264 c 0,0,1
202.037109375 -246 m 1,14,-1
 278.6953125 238 l 1,15,16
 245.549804688 155 245.549804688 155 213.797851562 125 c 128,-1,17
 184.932617188 97.7275390625 184.932617188 97.7275390625 143.858398438 97.7275390625 c 0,0,0
 139.750976562 97.7275390625 139.750976562 97.7275390625 135.521484375 98 c 0,18,19
 36.1552734375 102 36.1552734375 102 13.7705078125 229 c 128,-1,20
 -8.615234375 356 -8.615234375 356 33.83203125 624 c 0,21,22
 69.3095703125 848 69.3095703125 848 112.103515625 963.5 c 128,-1,23
 154.896484375 1079 154.896484375 1079 205.20703125 1122 c 128,-1,24
 255.517578125 1165 255.517578125 1165 310.517578125 1165 c 0,25,26
 359.517578125 1165 359.517578125 1165 380.26171875 1125.5 c 128,-1,27
 401.005859375 1086 401.005859375 1086 403.334960938 1006 c 1,28,-1
 424.241210938 1138 l 1,29,-1
 563.241210938 1138 l 1,30,-1
 344.037109375 -246 l 1,31,-1
 202.037109375 -246 l 1,14,-1
EndSplineSet
EndChar

StartChar: r
Encoding: 114 114 393
Width: 529
VWidth: 2441
GlyphClass: 2
Flags: HW
AnchorPoint: "Anchor-2" 156 0 basechar 0
AnchorPoint: "Anchor-0" 360.757 1116 basechar 0
LayerCount: 2
Fore
SplineSet
117.766601562 1135 m 1,0,-1
 262.766601562 1135 l 1,1,-1
 238.05859375 979 l 1,2,3
 273.104492188 1074 273.104492188 1074 326.811523438 1119.5 c 0,4,5
 377.196289062 1162.18554688 377.196289062 1162.18554688 419.499023438 1162.18554688 c 0,6,7
 422.2890625 1162.18554688 422.2890625 1162.18554688 425.04296875 1162 c 0,8,9
 478.04296875 1162 478.04296875 1162 507.366210938 1123 c 128,-1,10
 536.688476562 1084 536.688476562 1084 547.551757812 1020 c 1,11,-1
 465.635742188 869 l 1,12,-1
 456.309570312 848 l 1,13,-1
 443.943359375 852 l 1,14,15
 438.953125 871 438.953125 871 438.174804688 894.5 c 128,-1,16
 437.396484375 918 437.396484375 918 420.1484375 948 c 1,17,18
 399.424804688 975 399.424804688 975 375.266601562 974 c 0,19,20
 344.266601562 974 344.266601562 974 307.83203125 946 c 128,-1,21
 271.396484375 918 271.396484375 918 236.04296875 840 c 128,-1,22
 200.688476562 762 200.688476562 762 175.981445312 606 c 2,23,-1
 79.68359375 -2 l 1,24,-1
 -62.31640625 -2 l 1,25,-1
 117.766601562 1135 l 1,0,-1
EndSplineSet
EndChar

StartChar: uni027B
Encoding: 635 635 399
Width: 451
VWidth: 2285
GlyphClass: 1
Flags: HW
LayerCount: 2
Fore
SplineSet
222.037109375 -246 m 0,0,1
 184.037109375 -246 184.037109375 -246 151.655273438 -220 c 128,-1,2
 119.2734375 -194 119.2734375 -194 108.251953125 -131 c 128,-1,3
 97.2294921875 -68 97.2294921875 -68 115.286132812 46 c 2,4,-1
 145.63671875 225 l 1,5,6
 123.133789062 165 123.133789062 165 89.7783203125 137.5 c 128,-1,7
 56.421875 110 56.421875 110 28.421875 110 c 0,8,9
 -2.578125 110 -2.578125 110 -27.78125 124.5 c 128,-1,10
 -52.984375 139 -52.984375 139 -70.2236328125 188 c 1,11,-1
 -13.9814453125 360 l 1,12,-1
 -6.3388671875 383 l 1,13,-1
 0.02734375 379 l 1,14,15
 3.96875 366 3.96875 366 1.2763671875 349 c 128,-1,16
 -1.416015625 332 -1.416015625 332 5.890625 315 c 0,17,18
 27.763671875 270 27.763671875 270 56.763671875 270 c 0,19,20
 100.763671875 270 100.763671875 270 137.008789062 341 c 128,-1,21
 173.25390625 412 173.25390625 412 202.555664062 597 c 2,22,-1
 288.083007812 1137 l 1,23,-1
 421.083007812 1137 l 1,24,-1
 248.286132812 46 l 2,25,26
 236.248046875 -30 236.248046875 -30 238.205078125 -65 c 128,-1,27
 240.161132812 -100 240.161132812 -100 263.161132812 -100 c 0,28,29
 282.161132812 -100 282.161132812 -100 296.854492188 -83 c 0,30,31
 304.596679688 -72 304.596679688 -72 307.997070312 -60 c 128,-1,32
 311.397460938 -48 311.397460938 -48 321.03125 -44 c 1,33,-1
 317.2734375 -194 l 1,34,35
 293.521484375 -224 293.521484375 -224 270.279296875 -235 c 128,-1,36
 247.037109375 -246 247.037109375 -246 222.037109375 -246 c 0,0,1
EndSplineSet
EndChar

StartChar: uni024D
Encoding: 589 589 402
Width: 478
VWidth: 2441
GlyphClass: 2
Flags: HW
AnchorPoint: "Anchor-2" 147 0 basechar 0
AnchorPoint: "Anchor-0" 349.757 1116 basechar 0
LayerCount: 2
Fore
SplineSet
-16.37890625 408 m 1,0,-1
 13.7138671875 598 l 1,1,-1
 32.7138671875 598 l 1,2,-1
 117.766601562 1135 l 1,3,-1
 256.766601562 1135 l 1,4,-1
 232.05859375 979 l 1,5,6
 266.104492188 1074 266.104492188 1074 317.811523438 1119.5 c 0,7,8
 366.319335938 1162.18554688 366.319335938 1162.18554688 406.747070312 1162.18554688 c 0,9,10
 409.412109375 1162.18554688 409.412109375 1162.18554688 412.04296875 1162 c 0,11,12
 463.04296875 1162 463.04296875 1162 490.866210938 1123 c 128,-1,13
 518.688476562 1084 518.688476562 1084 528.551757812 1020 c 1,14,-1
 448.635742188 869 l 1,15,-1
 439.309570312 848 l 1,16,-1
 428.943359375 852 l 1,17,18
 423.953125 871 423.953125 871 423.174804688 894.5 c 128,-1,19
 422.396484375 918 422.396484375 918 406.1484375 948 c 1,20,21
 386.424804688 975 386.424804688 975 363.266601562 974 c 0,22,23
 333.266601562 974 333.266601562 974 298.33203125 946 c 128,-1,24
 263.396484375 918 263.396484375 918 229.04296875 840 c 128,-1,25
 194.688476562 762 194.688476562 762 169.981445312 606 c 2,26,-1
 168.713867188 598 l 1,27,-1
 305.713867188 598 l 1,28,-1
 275.62109375 408 l 1,29,-1
 138.62109375 408 l 1,30,-1
 73.68359375 -2 l 1,31,-1
 -62.31640625 -2 l 1,32,-1
 2.62109375 408 l 1,33,-1
 -16.37890625 408 l 1,0,-1
EndSplineSet
EndChar

StartChar: s
Encoding: 115 115 403
Width: 512
VWidth: 2441
GlyphClass: 1
Flags: HW
LayerCount: 2
Fore
SplineSet
145.19921875 -24 m 0,0,1
 69.19921875 -24 69.19921875 -24 21.9755859375 3 c 128,-1,2
 -25.248046875 30 -25.248046875 30 -52.021484375 63 c 1,3,-1
 27.4287109375 230 l 1,4,-1
 38.2294921875 254 l 1,5,-1
 50.12109375 247 l 1,6,7
 56.4287109375 230 56.4287109375 230 62.736328125 213 c 128,-1,8
 69.04296875 196 69.04296875 196 94.400390625 173 c 0,9,10
 123.07421875 152 123.07421875 152 161.916015625 151 c 0,11,12
 199.916015625 151 199.916015625 151 232.018554688 199 c 128,-1,13
 264.12109375 247 264.12109375 247 274.890625 315 c 0,14,15
 282.96875 366 282.96875 366 272.4921875 413.5 c 128,-1,16
 262.015625 461 262.015625 461 213.984375 505 c 0,17,18
 151.170898438 563 151.170898438 563 111.048828125 638 c 128,-1,19
 70.927734375 713 70.927734375 713 93.4189453125 855 c 0,20,21
 113.05859375 979 113.05859375 979 181.05078125 1070.5 c 128,-1,22
 249.04296875 1162 249.04296875 1162 356.04296875 1162 c 0,23,24
 516.04296875 1162 516.04296875 1162 547.551757812 1020 c 1,25,-1
 462.853515625 883 l 1,26,-1
 450.52734375 862 l 1,27,-1
 438.635742188 869 l 1,28,29
 434.645507812 888 434.645507812 888 432.471679688 909 c 128,-1,30
 430.297851562 930 430.297851562 930 411.048828125 960 c 0,31,32
 391.065429688 986.036132812 391.065429688 986.036132812 348.361328125 986.036132812 c 0,33,34
 346.780273438 986.036132812 346.780273438 986.036132812 345.166992188 986 c 0,35,36
 303.166992188 986 303.166992188 986 277.885742188 949.5 c 128,-1,37
 252.60546875 913 252.60546875 913 244.051757812 859 c 0,38,39
 234.07421875 796 234.07421875 796 253.000976562 754.5 c 128,-1,40
 271.927734375 713 271.927734375 713 325.850585938 662 c 0,41,42
 373.564453125 616 373.564453125 616 400.674804688 572.5 c 128,-1,43
 427.78515625 529 427.78515625 529 433.7578125 472 c 128,-1,44
 439.729492188 415 439.729492188 415 425.31640625 324 c 0,45,46
 395.857421875 138 395.857421875 138 318.528320312 57 c 128,-1,47
 241.19921875 -24 241.19921875 -24 145.19921875 -24 c 0,0,1
EndSplineSet
EndChar

StartChar: germandbls
Encoding: 223 223 414
Width: 478
VWidth: 2441
GlyphClass: 1
Flags: HW
LayerCount: 2
Fore
SplineSet
185.19921875 -24 m 0,0,1
 157.19921875 -24 157.19921875 -24 136.44140625 -13 c 128,-1,2
 115.68359375 -2 115.68359375 -2 96.6923828125 17 c 1,3,-1
 146.568359375 193 l 1,4,5
 159.708007812 156 159.708007812 156 192.708007812 156 c 0,6,7
 226.708007812 156 226.708007812 156 254.512695312 240 c 128,-1,8
 282.31640625 324 282.31640625 324 305.598632812 471 c 0,9,10
 326.981445312 606 326.981445312 606 324.993164062 685 c 128,-1,11
 323.005859375 764 323.005859375 764 257.005859375 764 c 2,12,-1
 234.005859375 764 l 1,13,-1
 263.782226562 952 l 1,14,-1
 288.782226562 952 l 2,15,16
 339.80078125 952 339.80078125 952 377.154296875 1187.84179688 c 0,0,0
 377.873046875 1192.37695312 377.873046875 1192.37695312 378.5859375 1197 c 0,17,18
 398.225585938 1321 398.225585938 1321 395.307617188 1381.5 c 128,-1,19
 392.390625 1442 392.390625 1442 356.390625 1442 c 128,-1,20
 320.390625 1442 320.390625 1442 290.393554688 1341 c 128,-1,21
 260.396484375 1240 260.396484375 1240 228.245117188 1037 c 2,22,-1
 64 0 l 1,23,-1
 -77 0 l 1,24,-1
 86.453125 1032 l 2,25,26
 123.198242188 1264 123.198242188 1264 165.946289062 1395 c 128,-1,27
 208.694335938 1526 208.694335938 1526 260.66796875 1579.5 c 128,-1,28
 312.641601562 1633 312.641601562 1633 376.641601562 1633 c 0,29,30
 463.641601562 1633 463.641601562 1633 508.01171875 1528 c 128,-1,31
 552.380859375 1423 552.380859375 1423 517.6953125 1204 c 0,32,33
 501.064453125 1099 501.064453125 1099 471.443359375 1013 c 128,-1,34
 441.822265625 927 441.822265625 927 396.537109375 881 c 1,35,36
 440.676757812 844 440.676757812 844 456.916992188 744.5 c 128,-1,37
 473.158203125 645 473.158203125 645 441.005859375 442 c 0,38,39
 412.337890625 261 412.337890625 261 372.262695312 159.5 c 128,-1,40
 332.186523438 58 332.186523438 58 284.692382812 17 c 128,-1,41
 237.19921875 -24 237.19921875 -24 185.19921875 -24 c 0,0,1
EndSplineSet
EndChar

StartChar: t
Encoding: 116 116 415
Width: 512
VWidth: 2441
GlyphClass: 2
Flags: HW
AnchorPoint: "Anchor-4" 224.688 762 basechar 0
AnchorPoint: "Anchor-2" 188 0 basechar 0
AnchorPoint: "Anchor-1" 388.767 1135 basechar 0
AnchorPoint: "Anchor-0" 361.965 1433 basechar 0
LayerCount: 2
Fore
SplineSet
213.248046875 -30 m 0,0,1
 139.248046875 -30 139.248046875 -30 105.905273438 21.5 c 128,-1,2
 72.5625 73 72.5625 73 76.9189453125 211 c 0,3,4
 80.3076171875 318.333007812 80.3076171875 318.333007812 108.709960938 497.654296875 c 0,5,6
 116.82421875 548.888671875 116.82421875 548.888671875 126.981445312 606 c 2,7,-1
 178.1796875 904 l 1,8,-1
 81.1796875 904 l 1,9,-1
 110.797851562 1091 l 1,10,-1
 211.797851562 1091 l 1,11,-1
 266.0546875 1402 l 1,12,-1
 430.380859375 1423 l 1,13,-1
 452.856445312 1426 l 1,14,-1
 452.1640625 1409 l 1,15,16
 438.470703125 1392 438.470703125 1392 429.278320312 1375 c 128,-1,17
 420.0859375 1358 420.0859375 1358 411.43359375 1316 c 2,18,-1
 369.797851562 1091 l 1,19,-1
 511.797851562 1091 l 1,20,-1
 482.1796875 904 l 1,21,-1
 340.1796875 904 l 1,22,-1
 282.080078125 594 l 2,23,24
 270.799804688 532.25 270.799804688 532.25 262.509765625 479.90625 c 0,25,26
 237.638671875 322.875 237.638671875 322.875 239.67578125 250.5 c 0,27,28
 242.391601562 154 242.391601562 154 289.391601562 154 c 0,29,30
 322.391601562 154 322.391601562 154 350.216796875 175 c 128,-1,31
 378.04296875 196 378.04296875 196 397.686523438 219 c 1,32,-1
 394.869140625 56 l 1,33,34
 354.108398438 7 354.108398438 7 305.178710938 -11.5 c 128,-1,35
 256.248046875 -30 256.248046875 -30 213.248046875 -30 c 0,0,1
EndSplineSet
EndChar

StartChar: tbar
Encoding: 359 359 416
Width: 512
VWidth: 2441
GlyphClass: 2
Flags: HW
AnchorPoint: "Anchor-4" 224.688 762 basechar 0
AnchorPoint: "Anchor-2" 188 0 basechar 0
AnchorPoint: "Anchor-1" 388.767 1135 basechar 0
AnchorPoint: "Anchor-0" 361.965 1433 basechar 0
LayerCount: 2
Fore
SplineSet
213.248046875 -30 m 0,0,1
 144.248046875 -30 144.248046875 -30 110.455078125 15.5 c 128,-1,2
 76.6611328125 61 76.6611328125 61 75.771484375 178.5 c 0,3,4
 75 280.333007812 75 280.333007812 103.204101562 458.404296875 c 0,5,6
 107.54296875 485.799804688 107.54296875 485.799804688 112.568359375 515 c 1,7,-1
 19.568359375 515 l 1,8,-1
 52.037109375 720 l 1,9,-1
 147.037109375 720 l 1,10,-1
 178.1796875 904 l 1,11,-1
 81.1796875 904 l 1,12,-1
 110.797851562 1091 l 1,13,-1
 211.797851562 1091 l 1,14,-1
 266.0546875 1402 l 1,15,-1
 430.380859375 1423 l 1,16,-1
 452.856445312 1426 l 1,17,-1
 452.1640625 1409 l 1,18,19
 438.470703125 1392 438.470703125 1392 429.278320312 1375 c 128,-1,20
 420.0859375 1358 420.0859375 1358 411.43359375 1316 c 2,21,-1
 369.797851562 1091 l 1,22,-1
 511.797851562 1091 l 1,23,-1
 482.1796875 904 l 1,24,-1
 340.1796875 904 l 1,25,-1
 306.037109375 720 l 1,26,-1
 442.037109375 720 l 1,27,-1
 409.568359375 515 l 1,28,-1
 269.568359375 515 l 1,29,30
 266.200195312 495 266.200195312 495 263.221679688 476.1953125 c 0,31,32
 236.416015625 306.950195312 236.416015625 306.950195312 241.141601562 234.5 c 0,33,34
 246.391601562 154 246.391601562 154 289.391601562 154 c 0,35,36
 322.391601562 154 322.391601562 154 350.216796875 175 c 128,-1,37
 378.04296875 196 378.04296875 196 397.686523438 219 c 1,38,-1
 394.869140625 56 l 1,39,40
 354.108398438 7 354.108398438 7 305.178710938 -11.5 c 128,-1,41
 256.248046875 -30 256.248046875 -30 213.248046875 -30 c 0,0,1
EndSplineSet
EndChar

StartChar: u
Encoding: 117 117 423
Width: 512
VWidth: 2441
GlyphClass: 2
Flags: HW
AnchorPoint: "Anchor-3" 267 0 basechar 0
AnchorPoint: "Anchor-2" 127 0 basechar 0
AnchorPoint: "Anchor-1" 528.757 1116 basechar 0
AnchorPoint: "Anchor-0" 326.757 1116 basechar 0
LayerCount: 2
Fore
SplineSet
103.723632812 -27 m 0,0,1
 45.7236328125 -27 45.7236328125 -27 12.900390625 12 c 128,-1,2
 -19.9228515625 51 -19.9228515625 51 -19.18359375 163 c 128,-1,3
 -18.4443359375 275 -18.4443359375 275 16.2421875 494 c 2,4,-1
 119.766601562 1135 l 1,5,-1
 274.766601562 1135 l 1,6,-1
 168.490234375 464 l 2,7,8
 147.108398438 329 147.108398438 329 141.892578125 264.5 c 128,-1,9
 136.676757812 200 136.676757812 200 147.088867188 180.5 c 128,-1,10
 157.5 161 157.5 161 177.5 161 c 0,11,12
 211.5 161 211.5 161 242.303710938 245 c 128,-1,13
 273.108398438 329 273.108398438 329 297.974609375 486 c 2,14,-1
 400.766601562 1135 l 1,15,-1
 554.766601562 1135 l 1,16,-1
 402.400390625 173 l 2,17,18
 395.431640625 129 395.431640625 129 389.700195312 86.5 c 128,-1,19
 383.96875 44 383.96875 44 386 0 c 1,20,-1
 244 0 l 1,21,22
 244.276367188 27 244.276367188 27 242.077148438 51 c 128,-1,23
 239.87890625 75 239.87890625 75 246.53125 117 c 1,24,25
 223.869140625 56 223.869140625 56 187.296875 14.5 c 128,-1,26
 150.723632812 -27 150.723632812 -27 103.723632812 -27 c 0,0,1
EndSplineSet
EndChar

StartChar: v
Encoding: 118 118 446
Width: 512
VWidth: 2441
GlyphClass: 2
Flags: HW
AnchorPoint: "Anchor-2" 164 0 basechar 0
AnchorPoint: "Anchor-0" 343.767 1135 basechar 0
LayerCount: 2
Fore
SplineSet
92 0 m 1,0,-1
 117.766601562 1135 l 1,1,-1
 250.766601562 1135 l 1,2,-1
 226.068359375 354 l 1,3,-1
 318.583007812 654 l 2,4,5
 360.96484375 789 360.96484375 789 391.263671875 914 c 128,-1,6
 421.561523438 1039 421.561523438 1039 440.766601562 1135 c 1,7,-1
 565.766601562 1135 l 1,8,9
 543.453125 1032 543.453125 1032 509.625 900.5 c 128,-1,10
 475.797851562 769 475.797851562 769 432.306640625 627 c 2,11,-1
 236 0 l 1,12,-1
 92 0 l 1,0,-1
EndSplineSet
EndChar

StartChar: w
Encoding: 119 119 447
Width: 450
VWidth: 2441
GlyphClass: 2
Flags: HW
AnchorPoint: "Anchor-2" 122 0 basechar 0
AnchorPoint: "Anchor-0" 298.757 1116 basechar 0
LayerCount: 2
Fore
SplineSet
-31.31640625 -2 m 1,0,-1
 76.7666015625 1135 l 1,1,-1
 186.766601562 1135 l 1,2,-1
 103.552734375 376 l 1,3,-1
 228.60546875 913 l 1,4,-1
 313.60546875 913 l 1,5,-1
 277.552734375 376 l 1,6,7
 332.208007812 639 332.208007812 639 365.171875 834.5 c 128,-1,8
 398.135742188 1030 398.135742188 1030 409.064453125 1099 c 2,9,-1
 414.766601562 1135 l 1,10,-1
 524.766601562 1135 l 1,11,12
 468.78515625 851 468.78515625 851 408.670898438 563 c 128,-1,13
 348.555664062 275 348.555664062 275 283.68359375 -2 c 1,14,-1
 166.68359375 -2 l 1,15,-1
 206.776367188 510 l 1,16,-1
 83.68359375 -2 l 1,17,-1
 -31.31640625 -2 l 1,0,-1
EndSplineSet
EndChar

StartChar: x
Encoding: 120 120 452
Width: 512
VWidth: 2441
GlyphClass: 2
Flags: HW
AnchorPoint: "Anchor-2" 161 0 basechar 0
AnchorPoint: "Anchor-0" 340.767 1135 basechar 0
LayerCount: 2
Fore
SplineSet
-62 0 m 1,0,-1
 183.229492188 576 l 1,1,-1
 121.766601562 1135 l 1,2,-1
 251.766601562 1135 l 1,3,-1
 285.07421875 796 l 1,4,-1
 419.766601562 1135 l 1,5,-1
 545.766601562 1135 l 1,6,-1
 317.337890625 583 l 1,7,-1
 386 0 l 1,8,-1
 252 0 l 1,9,-1
 216.176757812 361 l 1,10,-1
 72 0 l 1,11,-1
 -62 0 l 1,0,-1
EndSplineSet
EndChar

StartChar: y
Encoding: 121 121 453
Width: 503
VWidth: 2290
GlyphClass: 2
Flags: HW
AnchorPoint: "Anchor-2" 319.59 130 basechar 0
AnchorPoint: "Anchor-0" 350.767 1135 basechar 0
LayerCount: 2
Fore
SplineSet
4.037109375 -246 m 0,0,1
 -66.962890625 -246 -66.962890625 -246 -96.0341796875 -177 c 1,2,-1
 -30.009765625 -19 l 1,3,-1
 -22.68359375 2 l 1,4,-1
 -12.31640625 -2 l 1,5,6
 -6.6923828125 -17 -6.6923828125 -17 -4.623046875 -35.5 c 128,-1,7
 -2.552734375 -54 -2.552734375 -54 16.962890625 -76 c 1,8,9
 24.646484375 -78 24.646484375 -78 34.646484375 -78 c 0,10,11
 65.646484375 -78 65.646484375 -78 86.83203125 -20 c 0,12,13
 108.018554688 38 108.018554688 38 140.490234375 142 c 2,14,-1
 152.826171875 182 l 1,15,-1
 123.766601562 1135 l 1,16,-1
 257.766601562 1135 l 1,17,-1
 269.586914062 553 l 1,18,-1
 322.669921875 724 l 2,19,20
 352.350585938 823 352.350585938 823 383.376953125 930.5 c 128,-1,21
 414.403320312 1038 414.403320312 1038 435.766601562 1135 c 1,22,-1
 559.766601562 1135 l 1,23,24
 536.0859375 1036 536.0859375 1036 503.084960938 925.5 c 128,-1,25
 470.083007812 815 470.083007812 815 438.086914062 714 c 2,26,-1
 212.850585938 18 l 2,27,28
 168.310546875 -118 168.310546875 -118 110.673828125 -182 c 128,-1,29
 53.037109375 -246 53.037109375 -246 4.037109375 -246 c 0,0,1
EndSplineSet
EndChar

StartChar: z
Encoding: 122 122 463
Width: 512
VWidth: 2441
GlyphClass: 2
Flags: HW
AnchorPoint: "Anchor-2" 215 0 basechar 0
AnchorPoint: "Anchor-0" 394.767 1135 basechar 0
LayerCount: 2
Fore
SplineSet
-38.400390625 149 m 1,0,-1
 348.46484375 950 l 1,1,-1
 111.46484375 950 l 1,2,-1
 140.766601562 1135 l 1,3,-1
 540.766601562 1135 l 1,4,-1
 517.166992188 986 l 1,5,-1
 136.142578125 184 l 1,6,-1
 322.142578125 184 l 2,7,8
 358.142578125 184 358.142578125 184 373.35546875 188.5 c 128,-1,9
 388.568359375 193 388.568359375 193 404.78515625 207 c 1,10,-1
 418.78515625 207 l 1,11,-1
 386 0 l 1,12,-1
 -62 0 l 1,13,-1
 -38.400390625 149 l 1,0,-1
EndSplineSet
EndChar

StartChar: u.i
Encoding: 65539 -1 468
Width: 512
VWidth: 2441
GlyphClass: 2
Flags: HW
AnchorPoint: "Anchor-3" 310 0 basechar 0
AnchorPoint: "Anchor-2" 144 0 basechar 0
AnchorPoint: "Anchor-1" 529.767 1135 basechar 0
AnchorPoint: "Anchor-0" 330.767 1135 basechar 0
LayerCount: 2
Fore
SplineSet
101.723632812 -27 m 0,0,1
 43.7236328125 -27 43.7236328125 -27 11.900390625 12 c 128,-1,2
 -19.9228515625 51 -19.9228515625 51 -19.18359375 163 c 128,-1,3
 -18.4443359375 275 -18.4443359375 275 16.2421875 494 c 2,4,-1
 119.766601562 1135 l 1,5,-1
 272.766601562 1135 l 1,6,-1
 166.490234375 464 l 2,7,8
 145.108398438 329 145.108398438 329 141.392578125 264.5 c 128,-1,9
 137.676757812 200 137.676757812 200 148.088867188 180.5 c 128,-1,10
 158.5 161 158.5 161 176.5 161 c 0,11,12
 212.5 161 212.5 161 243.303710938 245 c 128,-1,13
 274.108398438 329 274.108398438 329 298.974609375 486 c 2,14,-1
 401.766601562 1135 l 1,15,-1
 554.766601562 1135 l 1,16,-1
 402.400390625 173 l 2,17,18
 395.431640625 129 395.431640625 129 390.700195312 86.5 c 128,-1,19
 385.96875 44 385.96875 44 386 0 c 1,20,-1
 243 0 l 1,21,22
 242.276367188 27 242.276367188 27 241.577148438 51 c 128,-1,23
 240.87890625 75 240.87890625 75 247.53125 117 c 1,24,25
 223.869140625 56 223.869140625 56 187.296875 14.5 c 128,-1,26
 150.723632812 -27 150.723632812 -27 101.723632812 -27 c 0,0,1
EndSplineSet
EndChar

StartChar: r.serif
Encoding: 65540 -1 469
Width: 553
VWidth: 2441
GlyphClass: 1
Flags: HW
LayerCount: 2
Fore
SplineSet
-62.31640625 -2 m 1,0,-1
 -32.5400390625 186 l 1,1,-1
 12.4599609375 186 l 1,2,-1
 133.46484375 950 l 1,3,-1
 90.46484375 950 l 1,4,-1
 119.766601562 1135 l 1,5,-1
 316.766601562 1135 l 1,6,-1
 289.583007812 976 l 1,7,8
 319.095703125 1055 319.095703125 1055 364.911132812 1107.5 c 128,-1,9
 410.725585938 1160 410.725585938 1160 453.725585938 1160 c 0,10,11
 530.725585938 1160 530.725585938 1160 550.561523438 1039 c 1,12,-1
 473.943359375 852 l 1,13,14
 456.051757812 859 456.051757812 859 456.224609375 888.5 c 128,-1,15
 456.396484375 918 456.396484375 918 449.935546875 943.5 c 128,-1,16
 443.474609375 969 443.474609375 969 404.474609375 969 c 0,17,18
 357.474609375 969 357.474609375 969 307.690429688 872.5 c 128,-1,19
 257.90625 776 257.90625 776 231.614257812 610 c 2,20,-1
 164.459960938 186 l 1,21,-1
 228.459960938 186 l 1,22,-1
 198.68359375 -2 l 1,23,-1
 -62.31640625 -2 l 1,0,-1
EndSplineSet
EndChar

StartChar: ordfeminine
Encoding: 170 170 470
Width: 512
VWidth: 2441
GlyphClass: 1
Flags: HW
LayerCount: 2
Fore
SplineSet
22.2607421875 532 m 1,0,-1
 470.260742188 532 l 1,1,-1
 440.642578125 345 l 1,2,-1
 -7.357421875 345 l 1,3,-1
 22.2607421875 532 l 1,0,-1
247.713867188 920 m 0,4,5
 239.635742188 869 239.635742188 869 244.166992188 825 c 128,-1,6
 248.698242188 781 248.698242188 781 275.698242188 781 c 0,7,8
 308.698242188 781 308.698242188 781 328.701171875 841 c 128,-1,9
 348.704101562 901 348.704101562 901 375.095703125 1055 c 1,10,11
 366.095703125 1055 366.095703125 1055 354.095703125 1055 c 0,12,13
 316.095703125 1055 316.095703125 1055 287.685546875 1024 c 128,-1,14
 259.275390625 993 259.275390625 993 247.713867188 920 c 0,4,5
211.098632812 632 m 0,15,16
 143.098632812 632 143.098632812 632 119.294921875 709 c 128,-1,17
 95.490234375 786 95.490234375 786 112.912109375 896 c 0,18,19
 139.837890625 1066 139.837890625 1066 213.3203125 1138.5 c 128,-1,20
 286.803710938 1211 286.803710938 1211 370.803710938 1211 c 0,21,22
 384.803710938 1211 384.803710938 1211 397.486328125 1209 c 1,23,24
 416.077148438 1339 416.077148438 1339 406.961914062 1373 c 128,-1,25
 397.846679688 1407 397.846679688 1407 364.846679688 1407 c 0,26,27
 335.846679688 1407 335.846679688 1407 314.470703125 1392 c 128,-1,28
 293.095703125 1377 293.095703125 1377 270.02734375 1345 c 1,29,-1
 221.390625 1442 l 1,30,31
 249.04296875 1484 249.04296875 1484 294.76953125 1517 c 128,-1,32
 340.49609375 1550 340.49609375 1550 413.49609375 1550 c 0,33,34
 479.49609375 1550 479.49609375 1550 512.26953125 1517 c 128,-1,35
 545.04296875 1484 545.04296875 1484 545.416992188 1388.5 c 128,-1,36
 545.791015625 1293 545.791015625 1293 516.172851562 1106 c 2,37,-1
 444.266601562 652 l 1,38,-1
 313.266601562 652 l 1,39,-1
 324.829101562 725 l 1,40,41
 300.276367188 671 300.276367188 671 272.1875 651.5 c 128,-1,42
 244.098632812 632 244.098632812 632 211.098632812 632 c 0,15,16
EndSplineSet
EndChar

StartChar: ordmasculine
Encoding: 186 186 471
Width: 512
VWidth: 2441
GlyphClass: 1
Flags: HW
LayerCount: 2
Fore
SplineSet
22.2607421875 532 m 1,0,-1
 470.260742188 532 l 1,1,-1
 440.642578125 345 l 1,2,-1
 -7.357421875 345 l 1,3,-1
 22.2607421875 532 l 1,0,-1
288.440429688 792 m 128,-1,5
 326.440429688 792 326.440429688 792 348.47265625 858.5 c 128,-1,6
 370.505859375 925 370.505859375 925 396.005859375 1086 c 0,7,8
 422.614257812 1254 422.614257812 1254 422.201171875 1324 c 128,-1,9
 421.788085938 1394 421.788085938 1394 383.788085938 1394 c 0,10,11
 347.788085938 1394 347.788085938 1394 321.780273438 1324.5 c 128,-1,12
 295.772460938 1255 295.772460938 1255 269.005859375 1086 c 0,13,14
 243.505859375 925 243.505859375 925 246.97265625 858.5 c 128,-1,4
 250.440429688 792 250.440429688 792 288.440429688 792 c 128,-1,5
264.048828125 638 m 128,-1,16
 203.048828125 638 203.048828125 638 164.98828125 675.5 c 128,-1,17
 126.927734375 713 126.927734375 713 117.711914062 809.5 c 128,-1,18
 108.49609375 906 108.49609375 906 136.213867188 1081 c 0,19,20
 166.46484375 1272 166.46484375 1272 207.041015625 1373.5 c 128,-1,21
 247.6171875 1475 247.6171875 1475 297.556640625 1512.5 c 128,-1,22
 347.49609375 1550 347.49609375 1550 408.49609375 1550 c 128,-1,23
 469.49609375 1550 469.49609375 1550 507.556640625 1512.5 c 128,-1,24
 545.6171875 1475 545.6171875 1475 552.041015625 1373.5 c 128,-1,25
 558.46484375 1272 558.46484375 1272 528.213867188 1081 c 0,26,27
 500.49609375 906 500.49609375 906 462.711914062 809.5 c 128,-1,28
 424.927734375 713 424.927734375 713 374.98828125 675.5 c 128,-1,15
 325.048828125 638 325.048828125 638 264.048828125 638 c 128,-1,16
EndSplineSet
EndChar

StartChar: uni2124
Encoding: 8484 8484 473
Width: 512
VWidth: 2441
GlyphClass: 1
Flags: HW
LayerCount: 2
Fore
SplineSet
516.303710938 1372 m 1,0,-1
 456.303710938 1372 l 1,1,-1
 50.2822265625 147 l 1,2,-1
 113.282226562 147 l 1,3,-1
 516.303710938 1372 l 1,0,-1
626.90234375 1521 m 1,4,-1
 601.0859375 1358 l 1,5,-1
 199.282226562 147 l 1,6,-1
 314.282226562 147 l 2,7,8
 351.282226562 147 351.282226562 147 367.495117188 151.5 c 128,-1,9
 383.708007812 156 383.708007812 156 397.92578125 170 c 1,10,-1
 412.92578125 170 l 1,11,-1
 386 0 l 1,12,-1
 -62 0 l 1,13,-1
 -36.18359375 163 l 1,14,-1
 372.303710938 1372 l 1,15,-1
 157.303710938 1372 l 1,16,-1
 180.90234375 1521 l 1,17,-1
 626.90234375 1521 l 1,4,-1
EndSplineSet
EndChar

StartChar: zero
Encoding: 48 48 474
Width: 512
VWidth: 2441
GlyphClass: 1
Flags: HW
LayerCount: 2
Fore
SplineSet
189.291992188 166 m 0,0,1
 229.291992188 166 229.291992188 166 268.594726562 300.5 c 128,-1,2
 307.897460938 435 307.897460938 435 358.10546875 752 c 0,3,4
 363.96484375 789 363.96484375 789 366.875 820 c 1,5,-1
 163.421875 432 l 1,6,7
 148.931640625 290 148.931640625 290 157.111328125 228 c 128,-1,8
 165.291992188 166 165.291992188 166 189.291992188 166 c 0,0,1
204.10546875 752 m 0,9,10
 196.344726562 703 196.344726562 703 191.850585938 662 c 1,11,-1
 400.788085938 1072 l 1,12,13
 428.91796875 1338 428.91796875 1338 374.91796875 1338 c 0,14,15
 340.91796875 1338 340.91796875 1338 296.506835938 1196.5 c 128,-1,16
 252.095703125 1055 252.095703125 1055 204.10546875 752 c 0,9,10
158.723632812 -27 m 128,-1,18
 93.7236328125 -27 93.7236328125 -27 55.0234375 47.5 c 128,-1,19
 16.3232421875 122 16.3232421875 122 13.90625 293 c 128,-1,20
 11.490234375 464 11.490234375 464 57.10546875 752 c 0,21,22
 102.0859375 1036 102.0859375 1036 158.590820312 1206.5 c 128,-1,23
 215.095703125 1377 215.095703125 1377 277.791015625 1454 c 128,-1,24
 340.486328125 1531 340.486328125 1531 405.486328125 1531 c 128,-1,25
 470.486328125 1531 470.486328125 1531 508.791015625 1454 c 128,-1,26
 547.095703125 1377 547.095703125 1377 548.51171875 1206 c 128,-1,27
 549.927734375 1035 549.927734375 1035 505.10546875 752 c 0,28,29
 458.698242188 459 458.698242188 459 403.2734375 289 c 128,-1,30
 347.84765625 119 347.84765625 119 285.786132812 46 c 128,-1,17
 223.723632812 -27 223.723632812 -27 158.723632812 -27 c 128,-1,18
EndSplineSet
Substitution2: "'ss02' Style Set 2 in Latin lookup 36 subtable" zero.ss02
Substitution2: "'zero' Slashed Zero in Latin lookup 33 subtable" zero.zero
Substitution2: "'frac' Diagonal Fractions in Latin lookup 24 subtable" zero.numr
Substitution2: "'dnom' Denominators in Latin lookup 22 subtable" zero.dnom
Substitution2: "'numr' Numerators in Latin lookup 21 subtable" zero.numr
Substitution2: "'sups' Superscript in Latin lookup 20 subtable" uni2070
Substitution2: "'subs' Subscript in Latin lookup 19 subtable" uni2080
AlternateSubs2: "'aalt' Access All Alternates in Latin lookup 1 subtable" zero.zero zero.ss02 uni2080 zero.dnom zero.numr uni2070
EndChar

StartChar: one
Encoding: 49 49 475
Width: 391
VWidth: 2441
GlyphClass: 1
Flags: HW
LayerCount: 2
Fore
SplineSet
92 0 m 1,0,-1
 286.49609375 1228 l 1,1,-1
 147.083007812 1137 l 1,2,-1
 146.43359375 1316 l 1,3,-1
 389.219726562 1523 l 1,4,-1
 506.219726562 1523 l 1,5,-1
 265 0 l 1,6,-1
 92 0 l 1,0,-1
EndSplineSet
Substitution2: "'frac' Diagonal Fractions in Latin lookup 24 subtable" one.numr
Substitution2: "'dnom' Denominators in Latin lookup 22 subtable" one.dnom
Substitution2: "'numr' Numerators in Latin lookup 21 subtable" one.numr
Substitution2: "'sups' Superscript in Latin lookup 20 subtable" uni00B9
Substitution2: "'subs' Subscript in Latin lookup 19 subtable" uni2081
AlternateSubs2: "'aalt' Access All Alternates in Latin lookup 1 subtable" uni2081 one.dnom one.numr uni00B9
EndChar

StartChar: two
Encoding: 50 50 476
Width: 512
VWidth: 2441
GlyphClass: 1
Flags: HW
LayerCount: 2
Fore
SplineSet
-17.7177734375 147 m 1,0,1
 111.02734375 379 111.02734375 379 193.685546875 541 c 128,-1,2
 276.344726562 703 276.344726562 703 325.513671875 833.5 c 128,-1,3
 374.682617188 964 374.682617188 964 398.380859375 1101 c 0,4,5
 400.451171875 1112.66699219 400.451171875 1112.66699219 402.22265625 1123.8515625 c 0,0,0
 416.395507812 1213.33300781 416.395507812 1213.33300781 411.46484375 1272 c 128,-1,6
 405.91796875 1338 405.91796875 1338 376.91796875 1338 c 0,7,8
 355.91796875 1338 355.91796875 1338 339.517578125 1326 c 128,-1,9
 323.1171875 1314 323.1171875 1314 300.256835938 1277 c 0,10,11
 281.713867188 1242 281.713867188 1242 276.362304688 1224 c 128,-1,12
 271.01171875 1206 271.01171875 1206 275.84375 1186 c 1,13,-1
 267.626953125 1172 l 1,14,-1
 249.735351562 1179 l 1,15,-1
 130.912109375 1218 l 1,16,17
 186.403320312 1360 186.403320312 1360 249.944335938 1445.5 c 128,-1,18
 313.486328125 1531 313.486328125 1531 416.486328125 1531 c 0,19,20
 624.486328125 1531 624.486328125 1531 555.748046875 1097 c 0,21,22
 531.040039062 941 531.040039062 941 480.76171875 803.5 c 128,-1,23
 430.484375 666 430.484375 666 357.018554688 521 c 128,-1,24
 283.552734375 376 283.552734375 376 185.568359375 193 c 1,25,-1
 320.568359375 193 l 2,26,27
 357.568359375 193 357.568359375 193 373.360351562 198 c 128,-1,28
 389.15234375 203 389.15234375 203 405.369140625 217 c 1,29,-1
 420.369140625 217 l 1,30,-1
 386 0 l 1,31,-1
 -41 0 l 1,32,-1
 -17.7177734375 147 l 1,0,1
EndSplineSet
Substitution2: "'frac' Diagonal Fractions in Latin lookup 24 subtable" two.numr
Substitution2: "'dnom' Denominators in Latin lookup 22 subtable" two.dnom
Substitution2: "'numr' Numerators in Latin lookup 21 subtable" two.numr
Substitution2: "'sups' Superscript in Latin lookup 20 subtable" uni00B2
Substitution2: "'subs' Subscript in Latin lookup 19 subtable" uni2082
AlternateSubs2: "'aalt' Access All Alternates in Latin lookup 1 subtable" uni2082 two.dnom two.numr uni00B2
EndChar

StartChar: three
Encoding: 51 51 477
Width: 512
VWidth: 2441
GlyphClass: 1
Flags: HW
LayerCount: 2
Fore
SplineSet
154.723632812 -27 m 0,0,1
 76.7236328125 -27 76.7236328125 -27 33.3310546875 30.5 c 128,-1,2
 -10.0625 88 -10.0625 88 -34.599609375 173 c 1,3,-1
 88.2294921875 254 l 1,4,-1
 106.129882812 266 l 1,5,-1
 110.546875 256 l 1,6,7
 105.537109375 237 105.537109375 237 105.661132812 222 c 128,-1,8
 105.78515625 207 105.78515625 207 118.350585938 179 c 0,9,10
 138.282226562 147 138.282226562 147 168.282226562 147 c 0,11,12
 208.282226562 147 208.282226562 147 242.260742188 210 c 128,-1,13
 276.239257812 273 276.239257812 273 300.155273438 424 c 0,14,15
 327.555664062 597 327.555664062 597 300.454101562 659.5 c 128,-1,16
 278.313476562 710.5625 278.313476562 710.5625 216.712890625 710.5625 c 0,0,0
 202.9140625 710.5625 202.9140625 710.5625 187.135742188 708 c 1,17,-1
 214.219726562 879 l 1,18,19
 280.219726562 879 280.219726562 879 315.000976562 915.5 c 128,-1,20
 349.782226562 952 349.782226562 952 366.498046875 1016.5 c 128,-1,21
 383.213867188 1081 383.213867188 1081 395.725585938 1160 c 0,22,23
 428.194335938 1365 428.194335938 1365 368.194335938 1365 c 0,24,25
 343.194335938 1365 343.194335938 1365 321.1015625 1336 c 128,-1,26
 299.008789062 1307 299.008789062 1307 275.772460938 1255 c 1,27,-1
 167.334960938 1328 l 1,28,29
 218.380859375 1423 218.380859375 1423 278.43359375 1477 c 128,-1,30
 338.486328125 1531 338.486328125 1531 405.486328125 1531 c 0,31,32
 489.486328125 1531 489.486328125 1531 533.548828125 1443 c 128,-1,33
 577.611328125 1355 577.611328125 1355 545.6171875 1153 c 0,34,35
 526.76953125 1034 526.76953125 1034 491.59375 944.5 c 128,-1,36
 456.418945312 855 456.418945312 855 397.450195312 811 c 1,37,38
 447.1640625 765 447.1640625 765 461.958984375 669 c 128,-1,39
 476.75390625 573 476.75390625 573 452.045898438 417 c 0,40,41
 417.360351562 198 417.360351562 198 335.541992188 85.5 c 128,-1,42
 253.723632812 -27 253.723632812 -27 154.723632812 -27 c 0,0,1
EndSplineSet
Substitution2: "'frac' Diagonal Fractions in Latin lookup 24 subtable" three.numr
Substitution2: "'dnom' Denominators in Latin lookup 22 subtable" three.dnom
Substitution2: "'numr' Numerators in Latin lookup 21 subtable" three.numr
Substitution2: "'sups' Superscript in Latin lookup 20 subtable" uni00B3
Substitution2: "'subs' Subscript in Latin lookup 19 subtable" uni2083
AlternateSubs2: "'aalt' Access All Alternates in Latin lookup 1 subtable" uni2083 three.dnom three.numr uni00B3
EndChar

StartChar: four
Encoding: 52 52 478
Width: 486
VWidth: 2441
GlyphClass: 1
Flags: HW
LayerCount: 2
Fore
SplineSet
157.319335938 545 m 1,0,-1
 279.319335938 545 l 1,1,-1
 349.958984375 991 l 1,2,-1
 157.319335938 545 l 1,0,-1
193 0 m 1,3,-1
 249.068359375 354 l 1,4,-1
 -5.931640625 354 l 1,5,-1
 21.1513671875 525 l 1,6,-1
 471.219726562 1523 l 1,7,-1
 578.219726562 1523 l 1,8,-1
 422.844726562 542 l 1,9,-1
 471.844726562 542 l 1,10,-1
 441.750976562 352 l 1,11,-1
 392.750976562 352 l 1,12,-1
 337 0 l 1,13,-1
 193 0 l 1,3,-1
EndSplineSet
Substitution2: "'frac' Diagonal Fractions in Latin lookup 24 subtable" four.numr
Substitution2: "'dnom' Denominators in Latin lookup 22 subtable" four.dnom
Substitution2: "'numr' Numerators in Latin lookup 21 subtable" four.numr
Substitution2: "'sups' Superscript in Latin lookup 20 subtable" uni2074
Substitution2: "'subs' Subscript in Latin lookup 19 subtable" uni2084
AlternateSubs2: "'aalt' Access All Alternates in Latin lookup 1 subtable" uni2084 four.dnom four.numr uni2074
EndChar

StartChar: five
Encoding: 53 53 479
Width: 512
VWidth: 2441
GlyphClass: 1
Flags: HW
LayerCount: 2
Fore
SplineSet
157.723632812 -27 m 0,0,1
 85.7236328125 -27 85.7236328125 -27 36.6181640625 26 c 128,-1,2
 -12.4873046875 79 -12.4873046875 79 -30.3232421875 200 c 1,3,-1
 91.03125 278 l 1,4,-1
 108.614257812 288 l 1,5,-1
 116.03125 278 l 1,6,7
 109.337890625 261 109.337890625 261 107.383789062 245.5 c 128,-1,8
 105.428710938 230 105.428710938 230 113.676757812 200 c 1,9,10
 133.5 161 133.5 161 174.5 161 c 0,11,12
 219.5 161 219.5 161 251.779296875 248 c 128,-1,13
 284.05859375 335 284.05859375 335 307.658203125 484 c 0,14,15
 335.375 659 335.375 659 332.521484375 742 c 128,-1,16
 329.666992188 825 329.666992188 825 290.666992188 825 c 0,17,18
 257.666992188 825 257.666992188 825 236.627929688 799.5 c 128,-1,19
 215.58984375 774 215.58984375 774 188.353515625 722 c 1,20,-1
 91.3134765625 747 l 1,21,-1
 234.90234375 1521 l 1,22,-1
 587.90234375 1521 l 1,23,-1
 557.651367188 1330 l 1,24,-1
 348.651367188 1330 l 1,25,-1
 275.40625 937 l 1,26,27
 319.592773438 995 319.592773438 995 379.909179688 997 c 0,28,29
 461.909179688 997 461.909179688 997 483.111328125 872 c 128,-1,30
 504.313476562 747 504.313476562 747 461.708007812 478 c 0,31,32
 421.478515625 224 421.478515625 224 343.100585938 98.5 c 128,-1,33
 264.723632812 -27 264.723632812 -27 157.723632812 -27 c 0,0,1
EndSplineSet
Substitution2: "'frac' Diagonal Fractions in Latin lookup 24 subtable" five.numr
Substitution2: "'dnom' Denominators in Latin lookup 22 subtable" five.dnom
Substitution2: "'numr' Numerators in Latin lookup 21 subtable" five.numr
Substitution2: "'sups' Superscript in Latin lookup 20 subtable" uni2075
Substitution2: "'subs' Subscript in Latin lookup 19 subtable" uni2085
AlternateSubs2: "'aalt' Access All Alternates in Latin lookup 1 subtable" uni2085 five.dnom five.numr uni2075
EndChar

StartChar: six
Encoding: 54 54 480
Width: 512
VWidth: 2441
GlyphClass: 1
Flags: HW
LayerCount: 2
Fore
SplineSet
198.608398438 168 m 0,0,1
 225.608398438 168 225.608398438 168 251.6953125 238 c 128,-1,2
 277.782226562 308 277.782226562 308 305.024414062 480 c 0,3,4
 330.524414062 641 330.524414062 641 330.745117188 715 c 128,-1,5
 330.96484375 789 330.96484375 789 298.96484375 789 c 0,6,7
 268.96484375 789 268.96484375 789 248.659179688 755.5 c 128,-1,8
 228.353515625 722 228.353515625 722 206.484375 666 c 1,9,10
 193.140625 598.799804688 193.140625 598.799804688 183.737304688 539.4296875 c 0,0,0
 161.795898438 400.900390625 161.795898438 400.900390625 161.307617188 305 c 128,-1,11
 160.608398438 168 160.608398438 168 198.608398438 168 c 0,0,1
166.19921875 -24 m 0,12,13
 52.19921875 -24 52.19921875 -24 20.044921875 145.5 c 128,-1,14
 -12.109375 315 -12.109375 315 47.9189453125 694 c 0,15,16
 118.716796875 1141 118.716796875 1141 218.65625 1339.5 c 128,-1,17
 318.595703125 1538 318.595703125 1538 456.595703125 1538 c 0,18,19
 514.595703125 1538 514.595703125 1538 552.864257812 1495.5 c 128,-1,20
 591.1328125 1453 591.1328125 1453 604.095703125 1377 c 1,21,-1
 503.713867188 1242 l 1,22,-1
 492.020507812 1225 l 1,23,-1
 481.8125 1230 l 1,24,25
 482.505859375 1247 482.505859375 1247 484.59375 1266.5 c 128,-1,26
 486.682617188 1286 486.682617188 1286 474.1171875 1314 c 0,27,28
 457.698242188 1345.03027344 457.698242188 1345.03027344 425.081054688 1345.03027344 c 0,0,0
 424.0625 1345.03027344 424.0625 1345.03027344 423.02734375 1345 c 0,29,30
 401.02734375 1345 401.02734375 1345 370.30078125 1312 c 128,-1,31
 339.573242188 1279 339.573242188 1279 306.130859375 1181.5 c 128,-1,32
 272.688476562 1084 272.688476562 1084 239.912109375 896 c 1,33,34
 299.836914062 981.01171875 299.836914062 981.01171875 368.770507812 981.01171875 c 0,0,0
 369.572265625 981.01171875 369.572265625 981.01171875 370.375 981 c 0,35,36
 449.375 981 449.375 981 474.498046875 855.5 c 128,-1,37
 499.62109375 730 499.62109375 730 460.658203125 484 c 0,38,39
 423.12109375 247 423.12109375 247 349.66015625 111.5 c 128,-1,40
 276.19921875 -24 276.19921875 -24 166.19921875 -24 c 0,12,13
EndSplineSet
Substitution2: "'frac' Diagonal Fractions in Latin lookup 24 subtable" six.numr
Substitution2: "'dnom' Denominators in Latin lookup 22 subtable" six.dnom
Substitution2: "'numr' Numerators in Latin lookup 21 subtable" six.numr
Substitution2: "'sups' Superscript in Latin lookup 20 subtable" uni2076
Substitution2: "'subs' Subscript in Latin lookup 19 subtable" uni2086
AlternateSubs2: "'aalt' Access All Alternates in Latin lookup 1 subtable" uni2086 six.dnom six.numr uni2076
EndChar

StartChar: seven
Encoding: 55 55 481
Width: 512
VWidth: 2441
GlyphClass: 1
Flags: HW
LayerCount: 2
Fore
SplineSet
-5 0 m 1,0,1
 102.276367188 349 102.276367188 349 194.35546875 671.5 c 128,-1,2
 286.434570312 994 286.434570312 994 402.651367188 1330 c 1,3,-1
 148.651367188 1330 l 1,4,-1
 178.90234375 1521 l 1,5,-1
 626.90234375 1521 l 1,6,-1
 605.520507812 1386 l 1,7,8
 483.76953125 1034 483.76953125 1034 383.869140625 700 c 128,-1,9
 283.96875 366 283.96875 366 179 0 c 1,10,-1
 -5 0 l 1,0,1
EndSplineSet
Substitution2: "'frac' Diagonal Fractions in Latin lookup 24 subtable" seven.numr
Substitution2: "'dnom' Denominators in Latin lookup 22 subtable" seven.dnom
Substitution2: "'numr' Numerators in Latin lookup 21 subtable" seven.numr
Substitution2: "'sups' Superscript in Latin lookup 20 subtable" uni2077
Substitution2: "'subs' Subscript in Latin lookup 19 subtable" uni2087
AlternateSubs2: "'aalt' Access All Alternates in Latin lookup 1 subtable" uni2087 seven.dnom seven.numr uni2077
EndChar

StartChar: eight
Encoding: 56 56 482
Width: 512
VWidth: 2441
GlyphClass: 1
Flags: HW
LayerCount: 2
Fore
SplineSet
188.81640625 163 m 0,0,1
 224.81640625 163 224.81640625 163 251.473632812 214.5 c 128,-1,2
 278.129882812 266 278.129882812 266 298.245117188 393 c 0,3,4
 317.092773438 512 317.092773438 512 311.234375 585.5 c 128,-1,5
 305.375 659 305.375 659 273.7109375 699 c 1,6,7
 231.850585938 662 231.850585938 662 200.8671875 589.5 c 128,-1,8
 169.884765625 517 169.884765625 517 151.51171875 401 c 0,9,10
 131.555664062 275 131.555664062 275 145.686523438 219 c 128,-1,11
 159.81640625 163 159.81640625 163 188.81640625 163 c 0,0,1
319.080078125 916 m 1,12,13
 353.624023438 951 353.624023438 951 373.84375 1025 c 128,-1,14
 394.064453125 1099 394.064453125 1099 405.943359375 1174 c 0,15,16
 419.088867188 1257 419.088867188 1257 412.533203125 1304 c 128,-1,17
 405.977539062 1351 405.977539062 1351 378.977539062 1351 c 0,18,19
 349.977539062 1351 349.977539062 1351 330.770507812 1305.5 c 128,-1,20
 311.564453125 1260 311.564453125 1260 299.051757812 1181 c 0,21,22
 282.73828125 1078 282.73828125 1078 286.235351562 1018 c 128,-1,23
 289.732421875 958 289.732421875 958 319.080078125 916 c 1,12,13
157.19921875 -24 m 0,24,25
 51.19921875 -24 51.19921875 -24 10.12109375 86 c 128,-1,26
 -30.95703125 196 -30.95703125 196 -1.1806640625 384 c 0,27,28
 47.126953125 689 47.126953125 689 196.350585938 823 c 1,29,30
 153.01171875 884 153.01171875 884 145.553710938 969.5 c 128,-1,31
 138.095703125 1055 138.095703125 1055 155.517578125 1165 c 0,32,33
 182.91796875 1338 182.91796875 1338 251.915039062 1439 c 128,-1,34
 320.912109375 1540 320.912109375 1540 410.912109375 1540 c 0,35,36
 505.912109375 1540 505.912109375 1540 539.969726562 1442.5 c 128,-1,37
 574.02734375 1345 574.02734375 1345 547.735351562 1179 c 0,38,39
 530.3125 1069 530.3125 1069 497.474609375 969 c 128,-1,40
 464.635742188 869 464.635742188 869 405.974609375 808 c 1,41,42
 453.887695312 738 453.887695312 738 463.103515625 641.5 c 128,-1,43
 472.319335938 545 472.319335938 545 448.245117188 393 c 0,44,45
 417.202148438 197 417.202148438 197 341.200195312 86.5 c 128,-1,46
 265.19921875 -24 265.19921875 -24 157.19921875 -24 c 0,24,25
EndSplineSet
Substitution2: "'frac' Diagonal Fractions in Latin lookup 24 subtable" eight.numr
Substitution2: "'dnom' Denominators in Latin lookup 22 subtable" eight.dnom
Substitution2: "'numr' Numerators in Latin lookup 21 subtable" eight.numr
Substitution2: "'sups' Superscript in Latin lookup 20 subtable" uni2078
Substitution2: "'subs' Subscript in Latin lookup 19 subtable" uni2088
AlternateSubs2: "'aalt' Access All Alternates in Latin lookup 1 subtable" uni2088 eight.dnom eight.numr uni2078
EndChar

StartChar: nine
Encoding: 57 57 483
Width: 512
VWidth: 2441
GlyphClass: 1
Flags: HW
LayerCount: 2
Fore
SplineSet
259.245117188 1037 m 0,0,1
 212.677734375 742.986328125 212.677734375 742.986328125 289.633789062 742.986328125 c 0,0,0
 290.154296875 742.986328125 290.154296875 742.986328125 290.6796875 743 c 0,2,3
 328.6796875 743 328.6796875 743 355.005859375 764 c 1,4,-1
 357.698242188 781 l 2,5,6
 393.493164062 1007 393.493164062 1007 405.737304688 1128.5 c 128,-1,7
 417.98046875 1250 417.98046875 1250 409.766601562 1296 c 128,-1,8
 401.551757812 1342 401.551757812 1342 372.551757812 1342 c 0,9,10
 342.551757812 1342 342.551757812 1342 314.756835938 1277 c 128,-1,11
 286.961914062 1212 286.961914062 1212 259.245117188 1037 c 0,0,1
131.19921875 -24 m 0,12,13
 62.19921875 -24 62.19921875 -24 19.3759765625 15 c 128,-1,14
 -23.447265625 54 -23.447265625 54 -42.3603515625 124 c 1,15,-1
 54.546875 256 l 1,16,-1
 71.5556640625 275 l 1,17,-1
 81.921875 271 l 1,18,19
 80.595703125 250 80.595703125 250 80.9287109375 230 c 128,-1,20
 81.2607421875 210 81.2607421875 210 97.142578125 184 c 1,21,22
 118.81640625 163 118.81640625 163 144.5 161 c 0,23,24
 184.5 161 184.5 161 216.369140625 217 c 128,-1,25
 248.239257812 273 248.239257812 273 274.0234375 369.5 c 128,-1,26
 299.807617188 466 299.807617188 466 324.971679688 587 c 1,27,28
 293.6953125 560 293.6953125 560 248.537109375 559 c 0,29,30
 161.537109375 559 161.537109375 559 114.805664062 677.5 c 128,-1,31
 68.07421875 796 68.07421875 796 105.927734375 1035 c 0,32,33
 147.266601562 1296 147.266601562 1296 228.875976562 1413.5 c 128,-1,34
 310.486328125 1531 310.486328125 1531 400.486328125 1531 c 0,35,36
 526.486328125 1531 526.486328125 1531 552.936523438 1376 c 128,-1,37
 579.387695312 1221 579.387695312 1221 526.329101562 886 c 0,38,39
 474.219726562 557 474.219726562 557 417.201171875 358 c 128,-1,40
 360.18359375 159 360.18359375 159 289.586914062 70 c 128,-1,41
 218.990234375 -19 218.990234375 -19 131.19921875 -24 c 0,12,13
EndSplineSet
Substitution2: "'frac' Diagonal Fractions in Latin lookup 24 subtable" nine.numr
Substitution2: "'dnom' Denominators in Latin lookup 22 subtable" nine.dnom
Substitution2: "'numr' Numerators in Latin lookup 21 subtable" nine.numr
Substitution2: "'sups' Superscript in Latin lookup 20 subtable" uni2079
Substitution2: "'subs' Subscript in Latin lookup 19 subtable" uni2089
AlternateSubs2: "'aalt' Access All Alternates in Latin lookup 1 subtable" uni2089 nine.dnom nine.numr uni2079
EndChar

StartChar: zero.zero
Encoding: 65541 -1 484
Width: 512
VWidth: 2441
GlyphClass: 1
Flags: HW
LayerCount: 2
Fore
SplineSet
272.126953125 689 m 0,0,1
 244.126953125 689 244.126953125 689 227.927734375 713 c 128,-1,2
 211.729492188 737 211.729492188 737 217.114257812 771 c 0,3,4
 222.658203125 806 222.658203125 806 246.538085938 830.5 c 128,-1,5
 270.418945312 855 270.418945312 855 298.418945312 855 c 0,6,7
 324.418945312 855 324.418945312 855 340.038085938 830.5 c 128,-1,8
 355.658203125 806 355.658203125 806 350.114257812 771 c 128,-1,9
 344.571289062 736 344.571289062 736 321.348632812 712.5 c 128,-1,10
 298.126953125 689 298.126953125 689 272.126953125 689 c 0,0,1
189.291992188 166 m 0,11,12
 229.291992188 166 229.291992188 166 268.594726562 300.5 c 128,-1,13
 307.897460938 435 307.897460938 435 358.10546875 752 c 0,14,15
 406.095703125 1055 406.095703125 1055 409.506835938 1196.5 c 128,-1,16
 412.91796875 1338 412.91796875 1338 374.91796875 1338 c 0,17,18
 340.91796875 1338 340.91796875 1338 296.506835938 1196.5 c 128,-1,19
 252.095703125 1055 252.095703125 1055 204.10546875 752 c 0,20,21
 153.897460938 435 153.897460938 435 154.594726562 300.5 c 128,-1,22
 155.291992188 166 155.291992188 166 189.291992188 166 c 0,11,12
158.723632812 -27 m 128,-1,24
 93.7236328125 -27 93.7236328125 -27 55.0234375 47.5 c 128,-1,25
 16.3232421875 122 16.3232421875 122 13.90625 293 c 128,-1,26
 11.490234375 464 11.490234375 464 57.10546875 752 c 0,27,28
 102.0859375 1036 102.0859375 1036 158.590820312 1206.5 c 128,-1,29
 215.095703125 1377 215.095703125 1377 277.791015625 1454 c 128,-1,30
 340.486328125 1531 340.486328125 1531 405.486328125 1531 c 128,-1,31
 470.486328125 1531 470.486328125 1531 508.791015625 1454 c 128,-1,32
 547.095703125 1377 547.095703125 1377 548.51171875 1206 c 128,-1,33
 549.927734375 1035 549.927734375 1035 505.10546875 752 c 0,34,35
 458.698242188 459 458.698242188 459 403.2734375 289 c 128,-1,36
 347.84765625 119 347.84765625 119 285.786132812 46 c 128,-1,23
 223.723632812 -27 223.723632812 -27 158.723632812 -27 c 128,-1,24
EndSplineSet
EndChar

StartChar: zero.ss02
Encoding: 65542 -1 485
Width: 512
VWidth: 2441
GlyphClass: 1
Flags: HW
LayerCount: 2
Fore
SplineSet
189.291992188 166 m 0,0,1
 229.291992188 166 229.291992188 166 268.594726562 300.5 c 128,-1,2
 307.897460938 435 307.897460938 435 358.10546875 752 c 0,3,4
 406.095703125 1055 406.095703125 1055 409.506835938 1196.5 c 128,-1,5
 412.91796875 1338 412.91796875 1338 374.91796875 1338 c 0,6,7
 340.91796875 1338 340.91796875 1338 296.506835938 1196.5 c 128,-1,8
 252.095703125 1055 252.095703125 1055 204.10546875 752 c 0,9,10
 153.897460938 435 153.897460938 435 154.594726562 300.5 c 128,-1,11
 155.291992188 166 155.291992188 166 189.291992188 166 c 0,0,1
158.723632812 -27 m 128,-1,13
 93.7236328125 -27 93.7236328125 -27 55.0234375 47.5 c 128,-1,14
 16.3232421875 122 16.3232421875 122 13.90625 293 c 128,-1,15
 11.490234375 464 11.490234375 464 57.10546875 752 c 0,16,17
 102.0859375 1036 102.0859375 1036 158.590820312 1206.5 c 128,-1,18
 215.095703125 1377 215.095703125 1377 277.791015625 1454 c 128,-1,19
 340.486328125 1531 340.486328125 1531 405.486328125 1531 c 128,-1,20
 470.486328125 1531 470.486328125 1531 508.791015625 1454 c 128,-1,21
 547.095703125 1377 547.095703125 1377 548.51171875 1206 c 128,-1,22
 549.927734375 1035 549.927734375 1035 505.10546875 752 c 0,23,24
 458.698242188 459 458.698242188 459 403.2734375 289 c 128,-1,25
 347.84765625 119 347.84765625 119 285.786132812 46 c 128,-1,12
 223.723632812 -27 223.723632812 -27 158.723632812 -27 c 128,-1,13
EndSplineSet
EndChar

StartChar: uni2070
Encoding: 8304 8304 516
Width: 426
VWidth: 2441
GlyphClass: 1
Flags: HW
LayerCount: 2
Fore
SplineSet
232.719726562 718 m 0,0,1
 264.719726562 718 264.719726562 718 290.732421875 797 c 128,-1,2
 316.745117188 876 316.745117188 876 346.99609375 1067 c 2,3,4
 346.837890625 1066 346.837890625 1066 347.471679688 1070 c 130,-1,5
 348.104492188 1074 348.104492188 1074 352.380859375 1101 c 1,6,-1
 206.745117188 876 l 1,7,8
 198.124023438 790 198.124023438 790 205.921875 754 c 128,-1,9
 213.719726562 718 213.719726562 718 232.719726562 718 c 0,0,1
229.99609375 1067 m 0,10,11
 226.669921875 1046 226.669921875 1046 223.819335938 1028 c 1,12,-1
 370.672851562 1267 l 1,13,14
 382.272460938 1416 382.272460938 1416 343.272460938 1416 c 0,15,16
 313.272460938 1416 313.272460938 1416 285.967773438 1332 c 128,-1,17
 258.6640625 1248 258.6640625 1248 229.99609375 1067 c 0,10,11
211.337890625 583 m 0,18,19
 132.337890625 583 132.337890625 583 98.2060546875 689.5 c 128,-1,20
 64.07421875 796 64.07421875 796 106.99609375 1067 c 0,21,22
 149.125976562 1333 149.125976562 1333 217.811523438 1441.5 c 128,-1,23
 286.49609375 1550 286.49609375 1550 364.49609375 1550 c 0,24,25
 443.49609375 1550 443.49609375 1550 477.311523438 1441.5 c 128,-1,26
 511.125976562 1333 511.125976562 1333 468.99609375 1067 c 0,27,28
 439.853515625 883 439.853515625 883 400.302734375 778.5 c 128,-1,29
 360.750976562 674 360.750976562 674 311.544921875 628.5 c 128,-1,30
 262.337890625 583 262.337890625 583 211.337890625 583 c 0,18,19
EndSplineSet
Substitution2: "'ss02' Style Set 2 in Latin lookup 36 subtable" uni2070.ss02
Substitution2: "'zero' Slashed Zero in Latin lookup 33 subtable" uni2070.zero
AlternateSubs2: "'aalt' Access All Alternates in Latin lookup 1 subtable" uni2070.ss02 uni2070.zero
EndChar

StartChar: uni00B9
Encoding: 185 185 517
Width: 293
VWidth: 2441
GlyphClass: 1
Flags: HW
LayerCount: 2
Fore
SplineSet
136.189453125 601 m 1,0,-1
 254.34375 1347 l 1,1,-1
 163.474609375 1291 l 1,2,-1
 162.272460938 1416 l 1,3,-1
 324.704101562 1545 l 1,4,-1
 411.704101562 1545 l 1,5,-1
 262.189453125 601 l 1,6,-1
 136.189453125 601 l 1,0,-1
EndSplineSet
EndChar

StartChar: uni00B2
Encoding: 178 178 518
Width: 410
VWidth: 2441
GlyphClass: 1
Flags: HW
LayerCount: 2
Fore
SplineSet
63.02734375 701 m 1,0,1
 156.309570312 848 156.309570312 848 216.172851562 945 c 128,-1,2
 276.036132812 1042 276.036132812 1042 309.469726562 1120.5 c 128,-1,3
 342.903320312 1199 342.903320312 1199 358.365234375 1284 c 0,4,5
 359.821289062 1291.44824219 359.821289062 1291.44824219 360.956054688 1298.61132812 c 0,6,7
 368.045898438 1343.37890625 368.045898438 1343.37890625 362.595703125 1377 c 0,8,9
 356.272460938 1416 356.272460938 1416 335.272460938 1416 c 0,10,11
 321.272460938 1416 321.272460938 1416 320.48046875 1411 c 0,12,13
 294.412109375 1379 294.412109375 1379 284.877929688 1363 c 128,-1,14
 275.34375 1347 275.34375 1347 274.017578125 1326 c 1,15,-1
 262.641601562 1311 l 1,16,-1
 245.017578125 1326 l 1,17,-1
 153.403320312 1360 l 1,18,19
 191.0234375 1446 191.0234375 1446 238.759765625 1498 c 128,-1,20
 286.49609375 1550 286.49609375 1550 363.49609375 1550 c 0,21,22
 442.49609375 1550 442.49609375 1550 473.883789062 1483 c 128,-1,23
 505.272460938 1416 505.272460938 1416 483.890625 1281 c 0,24,25
 468.369140625 1183 468.369140625 1183 435.198242188 1103 c 128,-1,26
 402.02734375 1023 402.02734375 1023 351.827148438 936.5 c 128,-1,27
 301.626953125 850 301.626953125 850 229.25390625 734 c 1,28,-1
 292.25390625 734 l 2,29,30
 334.25390625 734 334.25390625 734 352.625 739.5 c 128,-1,31
 370.99609375 745 370.99609375 745 387.213867188 759 c 1,32,-1
 404.213867188 759 l 1,33,-1
 379.189453125 601 l 1,34,-1
 47.189453125 601 l 1,35,-1
 63.02734375 701 l 1,0,1
EndSplineSet
EndChar

StartChar: uni00B3
Encoding: 179 179 519
Width: 409
VWidth: 2441
GlyphClass: 1
Flags: HW
LayerCount: 2
Fore
SplineSet
199.337890625 583 m 0,0,1
 143.337890625 583 143.337890625 583 105.802734375 617.5 c 128,-1,2
 68.2666015625 652 68.2666015625 652 50.1357421875 708 c 1,3,-1
 140.48046875 767 l 1,4,-1
 161.22265625 778 l 1,5,-1
 167.797851562 769 l 1,6,7
 163.10546875 752 163.10546875 752 169.625 739.5 c 128,-1,8
 176.145507812 727 176.145507812 727 193.344726562 703 c 1,9,-1
 209.344726562 703 l 2,10,11
 236.344726562 703 236.344726562 703 259.966796875 738.5 c 128,-1,12
 283.58984375 774 283.58984375 774 297.84375 864 c 0,13,14
 314.791015625 971 314.791015625 971 292.4140625 1006.5 c 0,15,16
 274.955078125 1034.19824219 274.955078125 1034.19824219 233.01953125 1034.19824219 c 0,17,18
 221.20703125 1034.19824219 221.20703125 1034.19824219 207.453125 1032 c 1,19,-1
 226.6171875 1153 l 1,20,21
 296.6171875 1153 296.6171875 1153 320.403320312 1199 c 128,-1,22
 344.188476562 1245 344.188476562 1245 355.43359375 1316 c 0,23,24
 374.28125 1435 374.28125 1435 330.28125 1435 c 0,25,26
 298.28125 1435 298.28125 1435 261.303710938 1372 c 1,27,-1
 178.856445312 1426 l 1,28,29
 252.49609375 1550 252.49609375 1550 355.49609375 1550 c 0,30,31
 421.49609375 1550 421.49609375 1550 457.78515625 1495 c 128,-1,32
 494.073242188 1440 494.073242188 1440 474.43359375 1316 c 0,33,34
 462.5546875 1241 462.5546875 1241 437.764648438 1185.5 c 128,-1,35
 412.974609375 1130 412.974609375 1130 369.856445312 1104 c 1,36,37
 407.104492188 1074 407.104492188 1074 420.83984375 1015.5 c 128,-1,38
 434.57421875 957 434.57421875 957 419.051757812 859 c 0,39,40
 397.353515625 722 397.353515625 722 337.845703125 652.5 c 128,-1,41
 278.337890625 583 278.337890625 583 199.337890625 583 c 0,0,1
EndSplineSet
EndChar

StartChar: uni2074
Encoding: 8308 8308 520
Width: 432
VWidth: 2441
GlyphClass: 1
Flags: HW
LayerCount: 2
Fore
SplineSet
202.1484375 948 m 1,0,-1
 293.1484375 948 l 1,1,-1
 331.953125 1193 l 1,2,-1
 202.1484375 948 l 1,0,-1
238.189453125 601 m 1,3,-1
 271.766601562 813 l 1,4,-1
 66.7666015625 813 l 1,5,-1
 85.6142578125 932 l 1,6,-1
 418.704101562 1545 l 1,7,-1
 509.704101562 1545 l 1,8,-1
 415.1484375 948 l 1,9,-1
 456.1484375 948 l 1,10,-1
 434.766601562 813 l 1,11,-1
 393.766601562 813 l 1,12,-1
 360.189453125 601 l 1,13,-1
 238.189453125 601 l 1,3,-1
EndSplineSet
EndChar

StartChar: uni2075
Encoding: 8309 8309 521
Width: 418
VWidth: 2441
GlyphClass: 1
Flags: HW
LayerCount: 2
Fore
SplineSet
205.337890625 583 m 0,0,1
 149.337890625 583 149.337890625 583 109.643554688 616.5 c 128,-1,2
 69.9501953125 650 69.9501953125 650 53.62109375 730 c 1,3,-1
 151.490234375 786 l 1,4,-1
 171.07421875 796 l 1,5,-1
 175.698242188 781 l 1,6,7
 171.48046875 767 171.48046875 767 175.342773438 753.5 c 128,-1,8
 179.204101562 740 179.204101562 740 196.245117188 715 c 0,9,10
 198.245117188 715 198.245117188 715 204.086914062 714 c 128,-1,11
 209.927734375 713 209.927734375 713 213.927734375 713 c 0,12,13
 248.927734375 713 248.927734375 713 270.243164062 765.5 c 128,-1,14
 291.55859375 818 291.55859375 818 304.704101562 901 c 0,15,16
 336.856445312 1104 336.856445312 1104 285.856445312 1104 c 0,17,18
 248.856445312 1104 248.856445312 1104 215.51171875 1045 c 1,19,-1
 131.887695312 1060 l 1,20,-1
 225.38671875 1543 l 1,21,-1
 504.38671875 1543 l 1,22,-1
 483.956054688 1414 l 1,23,-1
 320.956054688 1414 l 1,24,-1
 276.84375 1186 l 1,25,26
 309.704101562 1223 309.704101562 1223 355.704101562 1223 c 0,27,28
 418.704101562 1223 418.704101562 1223 439.850585938 1145 c 128,-1,29
 460.99609375 1067 460.99609375 1067 434.704101562 901 c 0,30,31
 409.521484375 742 409.521484375 742 348.9296875 662.5 c 128,-1,32
 288.337890625 583 288.337890625 583 205.337890625 583 c 0,0,1
EndSplineSet
EndChar

StartChar: uni2076
Encoding: 8310 8310 522
Width: 405
VWidth: 2441
GlyphClass: 1
Flags: HW
LayerCount: 2
Fore
SplineSet
226.719726562 718 m 0,0,1
 247.719726562 718 247.719726562 718 264.397460938 757 c 128,-1,2
 281.07421875 796 281.07421875 796 297.704101562 901 c 0,3,4
 325.897460938 1079.00585938 325.897460938 1079.00585938 289.307617188 1079.00585938 c 0,5,6
 269.901367188 1079.00585938 269.901367188 1079.00585938 254.466796875 1060.5 c 128,-1,7
 239.036132812 1042 239.036132812 1042 224.443359375 1013 c 1,8,9
 217.5703125 977.5 217.5703125 977.5 212.596679688 946.09375 c 0,10,11
 197.673828125 851.875 197.673828125 851.875 199.836914062 794.5 c 0,12,13
 202.719726562 718 202.719726562 718 226.719726562 718 c 0,0,1
205.971679688 587 m 0,14,15
 117.971679688 587 117.971679688 587 91.0224609375 691.5 c 128,-1,16
 64.07421875 796 64.07421875 796 101.135742188 1030 c 0,17,18
 144.69140625 1305 144.69140625 1305 218.069335938 1430.5 c 128,-1,19
 291.446289062 1556 291.446289062 1556 391.446289062 1556 c 0,20,21
 479.446289062 1556 479.446289062 1556 509.1328125 1453 c 1,22,-1
 431.877929688 1363 l 1,23,-1
 419.02734375 1345 l 1,24,-1
 408.611328125 1355 l 1,25,26
 408.828125 1369 408.828125 1369 404.783203125 1384.5 c 128,-1,27
 400.73828125 1400 400.73828125 1400 380.064453125 1421 c 1,28,-1
 370.064453125 1421 l 2,29,30
 356.064453125 1421 356.064453125 1421 333.23828125 1400 c 128,-1,31
 310.412109375 1379 310.412109375 1379 287.54296875 1323 c 128,-1,32
 264.672851562 1267 264.672851562 1267 245.409179688 1158 c 1,33,34
 285.224609375 1211.01855469 285.224609375 1211.01855469 337.849609375 1211.01855469 c 0,35,36
 338.82421875 1211.01855469 338.82421875 1211.01855469 339.803710938 1211 c 0,37,38
 397.803710938 1211 397.803710938 1211 419.845703125 1135.5 c 128,-1,39
 441.887695312 1060 441.887695312 1060 417.1796875 904 c 0,40,41
 393.263671875 753 393.263671875 753 340.1171875 670 c 128,-1,42
 286.971679688 587 286.971679688 587 205.971679688 587 c 0,14,15
EndSplineSet
EndChar

StartChar: uni2077
Encoding: 8311 8311 523
Width: 386
VWidth: 2441
GlyphClass: 1
Flags: HW
LayerCount: 2
Fore
SplineSet
70.189453125 601 m 1,0,1
 141.2421875 816 141.2421875 816 202.46875 1010 c 128,-1,2
 263.6953125 1204 263.6953125 1204 339.48046875 1411 c 1,3,-1
 161.48046875 1411 l 1,4,-1
 182.38671875 1543 l 1,5,-1
 504.38671875 1543 l 1,6,-1
 489.182617188 1447 l 1,7,8
 405.8125 1230 405.8125 1230 342.3984375 1028.5 c 128,-1,9
 278.984375 827 278.984375 827 208.189453125 601 c 1,10,-1
 70.189453125 601 l 1,0,1
EndSplineSet
EndChar

StartChar: uni2078
Encoding: 8312 8312 524
Width: 410
VWidth: 2441
GlyphClass: 1
Flags: HW
LayerCount: 2
Fore
SplineSet
226.245117188 715 m 0,0,1
 250.245117188 715 250.245117188 715 268.021484375 742 c 128,-1,2
 285.797851562 769 285.797851562 769 298.309570312 848 c 0,3,4
 319.216796875 980 319.216796875 980 273.34375 1025 c 1,5,6
 246.017578125 1004 246.017578125 1004 225.866210938 962 c 128,-1,7
 205.713867188 920 205.713867188 920 194.943359375 852 c 0,8,9
 182.431640625 773 182.431640625 773 193.837890625 744 c 128,-1,10
 205.245117188 715 205.245117188 715 226.245117188 715 c 0,0,1
308.151367188 1169 m 1,11,12
 328.161132812 1188 328.161132812 1188 342.025390625 1234.5 c 128,-1,13
 355.890625 1281 355.890625 1281 363.017578125 1326 c 0,14,15
 378.3828125 1423.00976562 378.3828125 1423.00976562 339.186523438 1423.00976562 c 0,16,17
 338.787109375 1423.00976562 338.787109375 1423.00976562 338.380859375 1423 c 0,18,19
 319.380859375 1423 319.380859375 1423 306.500976562 1398.5 c 128,-1,20
 293.620117188 1374 293.620117188 1374 286.651367188 1330 c 0,21,22
 269.120117188 1213 269.120117188 1213 308.151367188 1169 c 1,11,12
203.971679688 587 m 128,-1,24
 120.971679688 587 120.971679688 587 86.6630859375 654.5 c 128,-1,25
 52.353515625 722 52.353515625 722 71.04296875 840 c 0,26,27
 100.185546875 1024 100.185546875 1024 211.96484375 1111 c 1,28,29
 179.142578125 1150 179.142578125 1150 170.95703125 1202.5 c 128,-1,30
 162.772460938 1255 162.772460938 1255 173.225585938 1321 c 0,31,32
 190.172851562 1428 190.172851562 1428 242.467773438 1493 c 128,-1,33
 294.762695312 1558 294.762695312 1558 362.762695312 1558 c 0,34,35
 432.762695312 1558 432.762695312 1558 463.364257812 1495.5 c 128,-1,36
 493.96484375 1433 493.96484375 1433 477.651367188 1330 c 0,37,38
 466.880859375 1262 466.880859375 1262 443.982421875 1199.5 c 128,-1,39
 421.083007812 1137 421.083007812 1137 378.380859375 1101 c 1,40,41
 417.412109375 1057 417.412109375 1057 424.909179688 997 c 128,-1,42
 432.40625 937 432.40625 937 417.834960938 845 c 0,43,44
 398.987304688 726 398.987304688 726 342.979492188 656.5 c 128,-1,23
 286.971679688 587 286.971679688 587 203.971679688 587 c 128,-1,24
EndSplineSet
EndChar

StartChar: uni2079
Encoding: 8313 8313 525
Width: 407
VWidth: 2441
GlyphClass: 1
Flags: HW
LayerCount: 2
Fore
SplineSet
258.396484375 1240 m 0,0,1
 231.471679688 1070 231.471679688 1070 289.3125 1069 c 0,2,3
 316.3125 1069 316.3125 1069 332.896484375 1079 c 1,4,-1
 333.213867188 1081 l 2,5,6
 355.229492188 1220 355.229492188 1220 362.370117188 1293.5 c 128,-1,7
 369.51171875 1367 369.51171875 1367 362.288085938 1394 c 128,-1,8
 355.064453125 1421 355.064453125 1421 336.064453125 1421 c 0,9,10
 315.064453125 1421 315.064453125 1421 295.045898438 1383 c 128,-1,11
 275.02734375 1345 275.02734375 1345 258.396484375 1240 c 0,0,1
184.971679688 587 m 0,12,13
 79.9716796875 587 79.9716796875 587 46.1767578125 683 c 1,14,-1
 126.114257812 771 l 1,15,-1
 140.440429688 792 l 1,16,-1
 153.698242188 781 l 1,17,18
 153.005859375 764 153.005859375 764 159.629882812 749 c 128,-1,19
 166.25390625 734 166.25390625 734 188.927734375 713 c 1,20,21
 189.245117188 715 189.245117188 715 194.245117188 715 c 0,22,23
 231.245117188 715 231.245117188 715 260.59375 783.5 c 128,-1,24
 289.943359375 852 289.943359375 852 311.57421875 957 c 1,25,26
 289.881835938 940 289.881835938 940 256.72265625 939 c 0,27,28
 190.72265625 939 190.72265625 939 153.864257812 1012.5 c 128,-1,29
 117.005859375 1086 117.005859375 1086 141.396484375 1240 c 0,30,31
 167.212890625 1403 167.212890625 1403 226.854492188 1476.5 c 128,-1,32
 286.49609375 1550 286.49609375 1550 356.49609375 1550 c 0,33,34
 447.49609375 1550 447.49609375 1550 471.553710938 1452.5 c 128,-1,35
 495.611328125 1355 495.611328125 1355 462.825195312 1148 c 0,36,37
 414.518554688 843 414.518554688 843 347.403320312 716 c 128,-1,38
 280.288085938 589 280.288085938 589 184.971679688 587 c 0,12,13
EndSplineSet
EndChar

StartChar: fraction
Encoding: 8260 8260 526
Width: 512
VWidth: 2441
GlyphClass: 1
Flags: HW
LayerCount: 2
Fore
SplineSet
9.3701171875 -105 m 1,0,-1
 -71.978515625 -63 l 1,1,-1
 557.43359375 1638 l 1,2,-1
 637.989257812 1591 l 1,3,-1
 9.3701171875 -105 l 1,0,-1
EndSplineSet
EndChar

StartChar: onehalf
Encoding: 189 189 527
Width: 438
VWidth: 2441
GlyphClass: 1
Flags: HW
LayerCount: 2
Fore
SplineSet
109.07421875 -170 m 1,0,-1
 122.0625 -88 l 1,1,2
 181.118164062 26 181.118164062 26 218.892578125 103.5 c 128,-1,3
 256.66796875 181 256.66796875 181 278.829101562 242 c 128,-1,4
 300.990234375 303 300.990234375 303 313.28515625 368 c 0,5,6
 318.829101562 403 318.829101562 403 317.659179688 433.5 c 128,-1,7
 316.490234375 464 316.490234375 464 305.490234375 464 c 0,8,9
 292.490234375 464 292.490234375 464 282.485351562 454.5 c 128,-1,10
 272.481445312 445 272.481445312 445 252.51171875 401 c 1,11,-1
 193.947265625 429 l 1,12,13
 219.716796875 497 219.716796875 497 249.369140625 539 c 128,-1,14
 279.021484375 581 279.021484375 581 329.021484375 581 c 0,15,16
 375.021484375 581 375.021484375 581 393.96875 527 c 128,-1,17
 412.916015625 473 412.916015625 473 395.96875 366 c 0,18,19
 384.08984375 291 384.08984375 291 362.849609375 229.5 c 128,-1,20
 341.608398438 168 341.608398438 168 310.234375 102.5 c 128,-1,21
 278.860351562 37 278.860351562 37 232.130859375 -56 c 1,22,-1
 329.130859375 -56 l 1,23,-1
 311.07421875 -170 l 1,24,-1
 109.07421875 -170 l 1,0,-1
-20.6298828125 -105 m 1,25,-1
 -87.978515625 -63 l 1,26,-1
 484.43359375 1638 l 1,27,-1
 550.989257812 1591 l 1,28,-1
 -20.6298828125 -105 l 1,25,-1
96.822265625 927 m 1,29,-1
 189.001953125 1509 l 1,30,-1
 135.716796875 1463 l 1,31,-1
 138.98046875 1572 l 1,32,-1
 238.293945312 1675 l 1,33,-1
 296.293945312 1675 l 1,34,-1
 177.822265625 927 l 1,35,-1
 96.822265625 927 l 1,29,-1
EndSplineSet
EndChar

StartChar: onequarter
Encoding: 188 188 528
Width: 427
VWidth: 2441
GlyphClass: 1
Flags: HW
LayerCount: 2
Fore
SplineSet
199.947265625 107 m 1,0,-1
 249.947265625 107 l 1,1,-1
 277.505859375 281 l 1,2,-1
 199.947265625 107 l 1,0,-1
204.07421875 -170 m 1,3,-1
 230.208007812 -5 l 1,4,-1
 111.208007812 -5 l 1,5,-1
 127.521484375 98 l 1,6,-1
 346.229492188 576 l 1,7,-1
 401.229492188 576 l 1,8,-1
 326.947265625 107 l 1,9,-1
 348.947265625 107 l 1,10,-1
 330.891601562 -7 l 1,11,-1
 308.891601562 -7 l 1,12,-1
 283.07421875 -170 l 1,13,-1
 204.07421875 -170 l 1,3,-1
-27.6298828125 -105 m 1,14,-1
 -94.978515625 -63 l 1,15,-1
 474.43359375 1638 l 1,16,-1
 539.989257812 1591 l 1,17,-1
 -27.6298828125 -105 l 1,14,-1
89.822265625 927 m 1,18,-1
 182.001953125 1509 l 1,19,-1
 128.716796875 1463 l 1,20,-1
 132.98046875 1572 l 1,21,-1
 231.293945312 1675 l 1,22,-1
 289.293945312 1675 l 1,23,-1
 170.822265625 927 l 1,24,-1
 89.822265625 927 l 1,18,-1
EndSplineSet
EndChar

StartChar: threequarters
Encoding: 190 190 529
Width: 410
VWidth: 2441
GlyphClass: 1
Flags: HW
LayerCount: 2
Fore
SplineSet
236.947265625 107 m 1,0,-1
 264.505859375 281 l 1,1,-1
 188.947265625 107 l 1,2,-1
 236.947265625 107 l 1,0,-1
217.208007812 -5 m 1,3,-1
 102.208007812 -5 l 1,4,-1
 118.521484375 98 l 1,5,-1
 333.229492188 576 l 1,6,-1
 385.229492188 576 l 1,7,-1
 310.947265625 107 l 1,8,-1
 332.947265625 107 l 1,9,-1
 314.891601562 -7 l 1,10,-1
 292.891601562 -7 l 1,11,-1
 267.07421875 -170 l 1,12,-1
 191.07421875 -170 l 1,13,-1
 217.208007812 -5 l 1,3,-1
-31.6298828125 -105 m 1,14,-1
 -95.978515625 -63 l 1,15,-1
 462.43359375 1638 l 1,16,-1
 525.989257812 1591 l 1,17,-1
 -31.6298828125 -105 l 1,14,-1
112.080078125 916 m 0,18,19
 80.080078125 916 80.080078125 916 58.77734375 942.5 c 128,-1,20
 37.474609375 969 37.474609375 969 28.443359375 1013 c 1,21,-1
 84.2041015625 1062 l 1,22,-1
 99.1044921875 1074 l 1,23,-1
 102.99609375 1067 l 1,24,25
 95.779296875 1053 95.779296875 1053 97.01171875 1045 c 128,-1,26
 98.2451171875 1037 98.2451171875 1037 106.02734375 1023 c 0,27,28
 109.443359375 1013 109.443359375 1013 120.443359375 1013 c 0,29,30
 134.443359375 1013 134.443359375 1013 148.061523438 1039 c 128,-1,31
 161.6796875 1065 161.6796875 1065 173.083007812 1137 c 0,32,33
 186.229492188 1220 186.229492188 1220 175.346679688 1246 c 128,-1,34
 164.46484375 1272 164.46484375 1272 128.356445312 1265 c 1,35,-1
 144.51171875 1367 l 1,36,37
 185.51171875 1367 185.51171875 1367 199.133789062 1402.5 c 128,-1,38
 212.756835938 1438 212.756835938 1438 221.151367188 1491 c 0,39,40
 235.564453125 1582 235.564453125 1582 213.564453125 1582 c 0,41,42
 196.564453125 1582 196.564453125 1582 174.803710938 1533 c 1,43,-1
 127.247070312 1580 l 1,44,45
 173.0859375 1680 173.0859375 1680 233.0859375 1680 c 0,46,47
 272.0859375 1680 272.0859375 1680 292.538085938 1635.5 c 128,-1,48
 312.989257812 1591 312.989257812 1591 297.151367188 1491 c 0,49,50
 287.96484375 1433 287.96484375 1433 271.654296875 1390 c 128,-1,51
 255.34375 1347 255.34375 1347 230.017578125 1326 c 1,52,53
 249.216796875 1302 249.216796875 1302 255.509765625 1256.5 c 128,-1,54
 261.803710938 1211 261.803710938 1211 249.291015625 1132 c 0,55,56
 231.869140625 1022 231.869140625 1022 193.974609375 969 c 128,-1,57
 156.080078125 916 156.080078125 916 112.080078125 916 c 0,18,19
EndSplineSet
EndChar

StartChar: uni2070.ss02
Encoding: 65566 -1 533
Width: 426
VWidth: 2441
GlyphClass: 1
Flags: HW
LayerCount: 2
Fore
SplineSet
232.719726562 718 m 0,0,1
 264.719726562 718 264.719726562 718 290.732421875 797 c 128,-1,2
 316.745117188 876 316.745117188 876 346.99609375 1067 c 0,3,4
 375.6640625 1248 375.6640625 1248 374.467773438 1332 c 128,-1,5
 373.272460938 1416 373.272460938 1416 343.272460938 1416 c 128,-1,6
 313.272460938 1416 313.272460938 1416 285.967773438 1332 c 128,-1,7
 258.6640625 1248 258.6640625 1248 229.99609375 1067 c 0,8,9
 199.745117188 876 199.745117188 876 202.732421875 797 c 128,-1,10
 205.719726562 718 205.719726562 718 232.719726562 718 c 0,0,1
211.337890625 583 m 0,11,12
 132.337890625 583 132.337890625 583 98.2060546875 689.5 c 128,-1,13
 64.07421875 796 64.07421875 796 106.99609375 1067 c 0,14,15
 149.125976562 1333 149.125976562 1333 217.811523438 1441.5 c 128,-1,16
 286.49609375 1550 286.49609375 1550 364.49609375 1550 c 0,17,18
 443.49609375 1550 443.49609375 1550 477.311523438 1441.5 c 128,-1,19
 511.125976562 1333 511.125976562 1333 468.99609375 1067 c 0,20,21
 439.853515625 883 439.853515625 883 400.302734375 778.5 c 128,-1,22
 360.750976562 674 360.750976562 674 311.544921875 628.5 c 128,-1,23
 262.337890625 583 262.337890625 583 211.337890625 583 c 0,11,12
EndSplineSet
EndChar

StartChar: uni2070.zero
Encoding: 65570 -1 537
Width: 426
VWidth: 2441
GlyphClass: 1
Flags: HW
LayerCount: 2
Fore
SplineSet
287.987304688 1048 m 0,0,1
 268.987304688 1048 268.987304688 1048 254.94140625 1063.5 c 128,-1,2
 240.896484375 1079 240.896484375 1079 244.380859375 1101 c 0,3,4
 248.182617188 1125 248.182617188 1125 267.295898438 1141.5 c 128,-1,5
 286.409179688 1158 286.409179688 1158 305.409179688 1158 c 0,6,7
 326.409179688 1158 326.409179688 1158 338.795898438 1141.5 c 128,-1,8
 351.182617188 1125 351.182617188 1125 347.380859375 1101 c 0,9,10
 344.055664062 1080 344.055664062 1080 326.521484375 1064 c 128,-1,11
 308.987304688 1048 308.987304688 1048 287.987304688 1048 c 0,0,1
232.719726562 718 m 0,12,13
 264.719726562 718 264.719726562 718 290.732421875 797 c 128,-1,14
 316.745117188 876 316.745117188 876 346.99609375 1067 c 0,15,16
 375.6640625 1248 375.6640625 1248 374.467773438 1332 c 128,-1,17
 373.272460938 1416 373.272460938 1416 343.272460938 1416 c 128,-1,18
 313.272460938 1416 313.272460938 1416 285.967773438 1332 c 128,-1,19
 258.6640625 1248 258.6640625 1248 229.99609375 1067 c 0,20,21
 199.745117188 876 199.745117188 876 202.732421875 797 c 128,-1,22
 205.719726562 718 205.719726562 718 232.719726562 718 c 0,12,13
211.337890625 583 m 0,23,24
 132.337890625 583 132.337890625 583 98.2060546875 689.5 c 128,-1,25
 64.07421875 796 64.07421875 796 106.99609375 1067 c 0,26,27
 149.125976562 1333 149.125976562 1333 217.811523438 1441.5 c 128,-1,28
 286.49609375 1550 286.49609375 1550 364.49609375 1550 c 0,29,30
 443.49609375 1550 443.49609375 1550 477.311523438 1441.5 c 128,-1,31
 511.125976562 1333 511.125976562 1333 468.99609375 1067 c 0,32,33
 439.853515625 883 439.853515625 883 400.302734375 778.5 c 128,-1,34
 360.750976562 674 360.750976562 674 311.544921875 628.5 c 128,-1,35
 262.337890625 583 262.337890625 583 211.337890625 583 c 0,23,24
EndSplineSet
EndChar

StartChar: period
Encoding: 46 46 538
Width: 302
VWidth: 2607
GlyphClass: 1
Flags: HW
LayerCount: 2
Fore
SplineSet
79.015625 139 m 128,-1,1
 30.015625 139 30.015625 139 0.796875 175.5 c 128,-1,2
 -28.4228515625 212 -28.4228515625 212 -20.1865234375 264 c 0,3,4
 -11.6337890625 318 -11.6337890625 318 29.068359375 354 c 128,-1,5
 69.76953125 390 69.76953125 390 118.76953125 390 c 128,-1,6
 167.76953125 390 167.76953125 390 196.989257812 353.5 c 128,-1,7
 226.208007812 317 226.208007812 317 217.813476562 264 c 0,8,9
 209.736328125 213 209.736328125 213 168.875976562 176 c 128,-1,0
 128.015625 139 128.015625 139 79.015625 139 c 128,-1,1
EndSplineSet
EndChar

StartChar: comma
Encoding: 44 44 539
Width: 342
VWidth: 2607
GlyphClass: 1
Flags: HW
LayerCount: 2
Fore
SplineSet
6.3544921875 -244 m 1,0,-1
 -88.4501953125 -167 l 1,1,2
 -34.4716796875 -104 -34.4716796875 -104 3.1650390625 -40 c 128,-1,3
 40.80078125 24 40.80078125 24 49.353515625 78 c 0,4,5
 54.421875 110 54.421875 110 44.1982421875 137 c 128,-1,6
 33.974609375 164 33.974609375 164 22.568359375 193 c 128,-1,7
 11.1611328125 222 11.1611328125 222 18.1298828125 266 c 0,8,9
 28.1083984375 329 28.1083984375 329 71.2060546875 367.5 c 128,-1,10
 114.303710938 406 114.303710938 406 158.303710938 406 c 0,11,12
 207.303710938 406 207.303710938 406 237.547851562 366.5 c 128,-1,13
 267.791992188 327 267.791992188 327 253.853515625 239 c 0,14,15
 235.323242188 122 235.323242188 122 171.762695312 -1.5 c 128,-1,16
 108.202148438 -125 108.202148438 -125 6.3544921875 -244 c 1,0,-1
EndSplineSet
EndChar

StartChar: colon
Encoding: 58 58 540
Width: 311
VWidth: 2716
GlyphClass: 1
Flags: HW
LayerCount: 2
Fore
SplineSet
100.279296875 248 m 128,-1,1
 49.279296875 248 49.279296875 248 19.060546875 284.5 c 128,-1,2
 -11.158203125 321 -11.158203125 321 -2.9228515625 373 c 0,3,4
 5.6298828125 427 5.6298828125 427 48.490234375 464 c 128,-1,5
 91.3505859375 501 91.3505859375 501 140.350585938 501 c 128,-1,6
 189.350585938 501 189.350585938 501 220.911132812 463.5 c 128,-1,7
 252.471679688 426 252.471679688 426 244.077148438 373 c 0,8,9
 236 322 236 322 193.639648438 285 c 128,-1,0
 151.279296875 248 151.279296875 248 100.279296875 248 c 128,-1,1
225.561523438 1039 m 0,10,11
 176.561523438 1039 176.561523438 1039 145.580078125 1077 c 128,-1,12
 114.598632812 1115 114.598632812 1115 122.834960938 1167 c 0,13,14
 131.387695312 1221 131.387695312 1221 174.088867188 1257 c 128,-1,15
 216.791015625 1293 216.791015625 1293 265.791015625 1293 c 128,-1,16
 314.791015625 1293 314.791015625 1293 346.509765625 1256.5 c 128,-1,17
 378.229492188 1220 378.229492188 1220 369.834960938 1167 c 0,18,19
 361.756835938 1116 361.756835938 1116 319.159179688 1077.5 c 128,-1,20
 276.561523438 1039 276.561523438 1039 225.561523438 1039 c 0,10,11
EndSplineSet
EndChar

StartChar: semicolon
Encoding: 59 59 541
Width: 342
VWidth: 2716
GlyphClass: 1
Flags: HW
LayerCount: 2
Fore
SplineSet
23.6181640625 -135 m 1,0,-1
 -71.1865234375 -58 l 1,1,2
 -15.2080078125 5 -15.2080078125 5 23.4287109375 69 c 128,-1,3
 62.0654296875 133 62.0654296875 133 70.6181640625 187 c 0,4,5
 75.6865234375 219 75.6865234375 219 63.462890625 246 c 128,-1,6
 51.2392578125 273 51.2392578125 273 41.83203125 302 c 128,-1,7
 32.4248046875 331 32.4248046875 331 39.39453125 375 c 0,8,9
 49.3720703125 438 49.3720703125 438 90.4697265625 476.5 c 128,-1,10
 131.568359375 515 131.568359375 515 175.568359375 515 c 0,11,12
 224.568359375 515 224.568359375 515 254.811523438 475.5 c 128,-1,13
 285.055664062 436 285.055664062 436 271.118164062 348 c 0,14,15
 252.586914062 231 252.586914062 231 189.026367188 107.5 c 128,-1,16
 125.465820312 -16 125.465820312 -16 23.6181640625 -135 c 1,0,-1
246.561523438 1039 m 0,17,18
 197.561523438 1039 197.561523438 1039 166.580078125 1077 c 128,-1,19
 135.598632812 1115 135.598632812 1115 143.834960938 1167 c 0,20,21
 152.387695312 1221 152.387695312 1221 195.088867188 1257 c 128,-1,22
 237.791015625 1293 237.791015625 1293 286.791015625 1293 c 128,-1,23
 335.791015625 1293 335.791015625 1293 367.509765625 1256.5 c 128,-1,24
 399.229492188 1220 399.229492188 1220 390.834960938 1167 c 0,25,26
 382.756835938 1116 382.756835938 1116 340.159179688 1077.5 c 128,-1,27
 297.561523438 1039 297.561523438 1039 246.561523438 1039 c 0,17,18
EndSplineSet
EndChar

StartChar: ellipsis
Encoding: 8230 8230 542
Width: 440
VWidth: 2441
GlyphClass: 1
Flags: HW
LayerCount: 2
Fore
SplineSet
-45.80078125 -24 m 128,-1,1
 -75.80078125 -24 -75.80078125 -24 -90.57421875 9 c 128,-1,2
 -105.34765625 42 -105.34765625 42 -98.37890625 86 c 128,-1,3
 -91.41015625 130 -91.41015625 130 -65.68359375 163 c 128,-1,4
 -39.95703125 196 -39.95703125 196 -10.95703125 196 c 0,5,6
 19.04296875 196 19.04296875 196 35.31640625 163 c 128,-1,7
 51.58984375 130 51.58984375 130 44.62109375 86 c 128,-1,8
 37.65234375 42 37.65234375 42 10.92578125 9 c 128,-1,0
 -15.80078125 -24 -15.80078125 -24 -45.80078125 -24 c 128,-1,1
106.19921875 -24 m 128,-1,10
 76.19921875 -24 76.19921875 -24 61.42578125 9 c 128,-1,11
 46.65234375 42 46.65234375 42 53.62109375 86 c 128,-1,12
 60.58984375 130 60.58984375 130 85.81640625 163 c 128,-1,13
 111.04296875 196 111.04296875 196 141.04296875 196 c 128,-1,14
 171.04296875 196 171.04296875 196 186.81640625 163 c 128,-1,15
 202.58984375 130 202.58984375 130 195.62109375 86 c 128,-1,16
 188.65234375 42 188.65234375 42 162.42578125 9 c 128,-1,9
 136.19921875 -24 136.19921875 -24 106.19921875 -24 c 128,-1,10
260.19921875 -24 m 128,-1,18
 230.19921875 -24 230.19921875 -24 214.92578125 9 c 128,-1,19
 199.65234375 42 199.65234375 42 206.62109375 86 c 128,-1,20
 213.58984375 130 213.58984375 130 239.31640625 163 c 128,-1,21
 265.04296875 196 265.04296875 196 295.04296875 196 c 128,-1,22
 325.04296875 196 325.04296875 196 340.81640625 163 c 128,-1,23
 356.58984375 130 356.58984375 130 349.62109375 86 c 128,-1,24
 342.65234375 42 342.65234375 42 316.42578125 9 c 128,-1,17
 290.19921875 -24 290.19921875 -24 260.19921875 -24 c 128,-1,18
EndSplineSet
EndChar

StartChar: exclam
Encoding: 33 33 543
Width: 302
VWidth: 2441
GlyphClass: 1
Flags: HW
LayerCount: 2
Fore
SplineSet
52.7236328125 -27 m 128,-1,1
 3.7236328125 -27 3.7236328125 -27 -25.4951171875 9.5 c 128,-1,2
 -54.7138671875 46 -54.7138671875 46 -46.478515625 98 c 0,3,4
 -37.92578125 152 -37.92578125 152 2.7763671875 188 c 128,-1,5
 43.478515625 224 43.478515625 224 92.478515625 224 c 128,-1,6
 141.478515625 224 141.478515625 224 170.697265625 187.5 c 128,-1,7
 199.916015625 151 199.916015625 151 191.521484375 98 c 0,8,9
 183.444335938 47 183.444335938 47 142.583984375 10 c 128,-1,0
 101.723632812 -27 101.723632812 -27 52.7236328125 -27 c 128,-1,1
68.916015625 473 m 1,10,-1
 175.825195312 1470 l 2,11,12
 176.462890625 1474.83886719 176.462890625 1474.83886719 177.208007812 1479.54394531 c 0,13,14
 188.014648438 1547.77441406 188.014648438 1547.77441406 221.514648438 1588 c 0,15,16
 257.325195312 1631 257.325195312 1631 306.325195312 1631 c 128,-1,17
 355.325195312 1631 355.325195312 1631 377.514648438 1588 c 0,18,19
 398.272460938 1547.77441406 398.272460938 1547.77441406 384.000976562 1457.66601562 c 0,20,21
 383.016601562 1451.45117188 383.016601562 1451.45117188 381.865234375 1445 c 2,22,-1
 171.916015625 473 l 1,23,-1
 68.916015625 473 l 1,10,-1
EndSplineSet
EndChar

StartChar: question
Encoding: 63 63 545
Width: 512
VWidth: 2441
GlyphClass: 1
Flags: HW
LayerCount: 2
Fore
SplineSet
179.723632812 -27 m 0,0,1
 131.723632812 -27 131.723632812 -27 105.004882812 9.5 c 128,-1,2
 78.2861328125 46 78.2861328125 46 86.521484375 98 c 0,3,4
 95.07421875 152 95.07421875 152 133.276367188 188 c 128,-1,5
 171.478515625 224 171.478515625 224 219.478515625 224 c 0,6,7
 265.478515625 224 265.478515625 224 291.697265625 187.5 c 128,-1,8
 317.916015625 151 317.916015625 151 309.521484375 98 c 0,9,10
 301.444335938 47 301.444335938 47 263.583984375 10 c 128,-1,11
 225.723632812 -27 225.723632812 -27 179.723632812 -27 c 0,0,1
191.46875 527 m 2,12,13
 208.890625 637 208.890625 637 233.690429688 711.5 c 128,-1,14
 258.490234375 786 258.490234375 786 286.201171875 841 c 128,-1,15
 313.912109375 896 313.912109375 896 341.727539062 948.5 c 128,-1,16
 369.54296875 1001 369.54296875 1001 394.3125 1069 c 128,-1,17
 419.083007812 1137 419.083007812 1137 434.921875 1237 c 0,18,19
 448.859375 1325 448.859375 1325 437.307617188 1381.5 c 128,-1,20
 425.756835938 1438 425.756835938 1438 383.756835938 1438 c 0,21,22
 339.756835938 1438 339.756835938 1438 297.620117188 1374 c 0,23,24
 275.759765625 1337 275.759765625 1337 270.98828125 1319.5 c 128,-1,25
 266.216796875 1302 266.216796875 1302 269.890625 1281 c 1,26,-1
 260.672851562 1267 l 1,27,-1
 242.256835938 1277 l 1,28,-1
 156.095703125 1377 l 1,29,30
 211.943359375 1496 211.943359375 1496 283.080078125 1560 c 128,-1,31
 354.216796875 1624 354.216796875 1624 441.216796875 1624 c 0,32,33
 533.216796875 1624 533.216796875 1624 573.090820312 1528.5 c 128,-1,34
 612.96484375 1433 612.96484375 1433 580.020507812 1225 c 0,35,36
 561.96484375 1111 561.96484375 1111 536.165039062 1036.5 c 128,-1,37
 510.366210938 962 510.366210938 962 483.654296875 907 c 128,-1,38
 456.943359375 852 456.943359375 852 429.524414062 802 c 128,-1,39
 402.10546875 752 402.10546875 752 378.810546875 687 c 128,-1,40
 355.514648438 622 355.514648438 622 340.46875 527 c 2,41,-1
 324.629882812 427 l 1,42,-1
 175.629882812 427 l 1,43,-1
 191.46875 527 l 2,12,13
EndSplineSet
EndChar

StartChar: periodcentered
Encoding: 183 183 547
Width: 302
VWidth: 2441
GlyphClass: 1
Flags: HW
LayerCount: 2
Fore
SplineSet
166.443359375 691 m 128,-1,1
 117.443359375 691 117.443359375 691 88.224609375 727.5 c 128,-1,2
 59.005859375 764 59.005859375 764 67.0830078125 815 c 0,3,4
 75.6357421875 869 75.6357421875 869 116.49609375 906 c 128,-1,5
 157.356445312 943 157.356445312 943 206.356445312 943 c 128,-1,6
 255.356445312 943 255.356445312 943 284.49609375 906 c 128,-1,7
 313.635742188 869 313.635742188 869 305.083007812 815 c 0,8,9
 297.005859375 764 297.005859375 764 256.224609375 727.5 c 128,-1,0
 215.443359375 691 215.443359375 691 166.443359375 691 c 128,-1,1
EndSplineSet
Substitution2: "Single Substitution lookup 11 subtable" periodcentered.loclCAT
Substitution2: "Single Substitution lookup 10 subtable" periodcentered.loclCAT
Substitution2: "'aalt' Access All Alternates in Latin lookup 0 subtable" periodcentered.loclCAT
EndChar

StartChar: bullet
Encoding: 8226 8226 548
Width: 406
VWidth: 2441
GlyphClass: 1
Flags: HW
LayerCount: 2
Fore
SplineSet
193.844726562 542 m 128,-1,1
 123.844726562 542 123.844726562 542 82.1591796875 594.5 c 128,-1,2
 40.474609375 647 40.474609375 647 52.037109375 720 c 0,3,4
 63.916015625 795 63.916015625 795 124.809570312 848 c 128,-1,5
 185.704101562 901 185.704101562 901 250.704101562 901 c 0,6,7
 318.704101562 901 318.704101562 901 362.23046875 847.5 c 128,-1,8
 405.756835938 794 405.756835938 794 394.037109375 720 c 0,9,10
 382.474609375 647 382.474609375 647 323.159179688 594.5 c 128,-1,0
 263.844726562 542 263.844726562 542 193.844726562 542 c 128,-1,1
EndSplineSet
EndChar

StartChar: asterisk
Encoding: 42 42 549
Width: 493
VWidth: 2441
GlyphClass: 1
Flags: HW
LayerCount: 2
Fore
SplineSet
99.921875 271 m 1,0,-1
 6.9375 410 l 1,1,-1
 191.005859375 764 l 1,2,-1
 62.3095703125 848 l 1,3,-1
 144.896484375 1079 l 1,4,-1
 245.40625 937 l 1,5,-1
 285.54296875 1323 l 1,6,-1
 437.54296875 1323 l 1,7,-1
 353.40625 937 l 1,8,-1
 505.3125 1069 l 1,9,-1
 510.309570312 848 l 1,10,-1
 341.005859375 764 l 1,11,-1
 415.729492188 415 l 1,12,-1
 279.921875 271 l 1,13,-1
 246.08984375 613 l 1,14,-1
 99.921875 271 l 1,0,-1
EndSplineSet
Substitution2: "'ss01' Style Set 1 in Latin lookup 35 subtable" asterisk.ss01
Substitution2: "'salt' Stylistic Alternatives in Latin lookup 34 subtable" asterisk.ss01
Substitution2: "'aalt' Access All Alternates in Latin lookup 0 subtable" asterisk.ss01
EndChar

StartChar: uni2E12
Encoding: 11794 11794 550
Width: 231
VWidth: 2212
GlyphClass: 1
Flags: HW
LayerCount: 2
Fore
SplineSet
-100.962890625 -246 m 1,0,-1
 -79.8974609375 -113 l 1,1,2
 -42.8974609375 -113 -42.8974609375 -113 -20.69140625 -67.5 c 128,-1,3
 1.515625 -22 1.515625 -22 12.4443359375 47 c 0,4,5
 23.53125 117 23.53125 117 15.974609375 164 c 128,-1,6
 8.4189453125 211 8.4189453125 211 -28.5810546875 211 c 1,7,-1
 -8.1494140625 340 l 1,8,9
 65.8505859375 340 65.8505859375 340 101.9765625 274.5 c 128,-1,10
 138.102539062 209 138.102539062 209 112.126953125 45 c 0,11,12
 86.9443359375 -114 86.9443359375 -114 29.9912109375 -180 c 128,-1,13
 -26.962890625 -246 -26.962890625 -246 -100.962890625 -246 c 1,0,-1
EndSplineSet
EndChar

StartChar: numbersign
Encoding: 35 35 551
Width: 489
VWidth: 2441
GlyphClass: 1
Flags: HW
LayerCount: 2
Fore
SplineSet
198.981445312 606 m 1,0,-1
 274.981445312 606 l 1,1,-1
 350.94921875 972 l 1,2,-1
 276.94921875 972 l 1,3,-1
 198.981445312 606 l 1,0,-1
152.80078125 24 m 1,4,-1
 243.797851562 447 l 1,5,-1
 167.797851562 447 l 1,6,-1
 80.54296875 35 l 1,7,-1
 -26.931640625 32 l 1,8,-1
 59.005859375 442 l 1,9,-1
 -5.994140625 442 l 1,10,-1
 23.189453125 601 l 1,11,-1
 90.189453125 601 l 1,12,-1
 167.474609375 969 l 1,13,-1
 91.474609375 969 l 1,14,-1
 118.974609375 1130 l 1,15,-1
 195.974609375 1130 l 1,16,-1
 280.219726562 1523 l 1,17,-1
 391.01171875 1528 l 1,18,-1
 307.766601562 1135 l 1,19,-1
 382.766601562 1135 l 1,20,-1
 463.5859375 1519 l 1,21,-1
 575.90234375 1521 l 1,22,-1
 493.55859375 1140 l 1,23,-1
 552.55859375 1140 l 1,24,-1
 520.583007812 976 l 1,25,-1
 463.583007812 976 l 1,26,-1
 385.08984375 613 l 1,27,-1
 459.08984375 613 l 1,28,-1
 427.90625 454 l 1,29,-1
 355.90625 454 l 1,30,-1
 266.54296875 35 l 1,31,-1
 152.80078125 24 l 1,4,-1
EndSplineSet
EndChar

StartChar: slash
Encoding: 47 47 552
Width: 512
VWidth: 2441
GlyphClass: 1
Flags: HW
LayerCount: 2
Fore
SplineSet
68.6865234375 -103 m 1,0,-1
 -70.869140625 -56 l 1,1,-1
 496.216796875 1624 l 1,2,-1
 634.98046875 1572 l 1,3,-1
 68.6865234375 -103 l 1,0,-1
EndSplineSet
Substitution2: "'frac' Diagonal Fractions in Latin lookup 23 subtable" fraction
Substitution2: "'aalt' Access All Alternates in Latin lookup 0 subtable" fraction
EndChar

StartChar: backslash
Encoding: 92 92 553
Width: 512
VWidth: 2441
GlyphClass: 1
Flags: HW
LayerCount: 2
Fore
SplineSet
222.686523438 -103 m 1,0,-1
 186.98046875 1572 l 1,1,-1
 342.216796875 1624 l 1,2,-1
 377.130859375 -56 l 1,3,-1
 222.686523438 -103 l 1,0,-1
EndSplineSet
EndChar

StartChar: asterisk.ss01
Encoding: 65572 -1 555
Width: 493
VWidth: 2441
GlyphClass: 1
Flags: HW
LayerCount: 2
Fore
SplineSet
123.045898438 417 m 1,0,-1
 30.2197265625 557 l 1,1,-1
 214.288085938 911 l 1,2,-1
 85.4345703125 994 l 1,3,-1
 168.020507812 1225 l 1,4,-1
 268.688476562 1084 l 1,5,-1
 308.825195312 1470 l 1,6,-1
 460.825195312 1470 l 1,7,-1
 376.688476562 1084 l 1,8,-1
 528.595703125 1216 l 1,9,-1
 533.434570312 994 l 1,10,-1
 364.288085938 911 l 1,11,-1
 438.853515625 561 l 1,12,-1
 303.045898438 417 l 1,13,-1
 269.213867188 759 l 1,14,-1
 123.045898438 417 l 1,0,-1
EndSplineSet
EndChar

StartChar: parenleft
Encoding: 40 40 556
Width: 512
VWidth: 2449
GlyphClass: 1
Flags: HW
LayerCount: 2
Fore
SplineSet
245.037109375 -246 m 1,0,1
 162.083984375 -151 162.083984375 -151 108.42578125 9 c 128,-1,2
 54.7666015625 169 54.7666015625 169 41.681640625 370.5 c 128,-1,3
 28.595703125 572 28.595703125 572 62.96484375 789 c 128,-1,4
 97.3349609375 1006 97.3349609375 1006 173.45703125 1202.5 c 128,-1,5
 249.580078125 1399 249.580078125 1399 350.629882812 1554 c 128,-1,6
 451.678710938 1709 451.678710938 1709 562.409179688 1802 c 1,7,-1
 645.1171875 1636 l 1,8,9
 509.52734375 1506 509.52734375 1506 396.286132812 1283.5 c 128,-1,10
 283.045898438 1061 283.045898438 1061 239.490234375 786 c 0,11,12
 210.34765625 602 210.34765625 602 216.818359375 434.5 c 128,-1,13
 223.2890625 267 223.2890625 267 261.931640625 129 c 128,-1,14
 300.57421875 -9 300.57421875 -9 366.63671875 -97 c 1,15,-1
 245.037109375 -246 l 1,0,1
EndSplineSet
EndChar

StartChar: parenright
Encoding: 41 41 557
Width: 512
VWidth: 2449
GlyphClass: 1
Flags: HW
LayerCount: 2
Fore
SplineSet
0.037109375 -246 m 1,0,1
 113.083984375 -151 113.083984375 -151 216.42578125 9 c 0,2,3
 321.766601562 169 321.766601562 169 398.602539062 370 c 0,4,5
 476.4375 571 476.4375 571 510.96484375 789 c 0,6,7
 545.334960938 1006 545.334960938 1006 530.377929688 1202 c 0,8,9
 515.580078125 1399 515.580078125 1399 464.129882812 1554 c 0,10,11
 411.678710938 1709 411.678710938 1709 331.409179688 1802 c 1,12,-1
 197.1171875 1636 l 1,13,14
 291.52734375 1506 291.52734375 1506 334.365234375 1284 c 0,15,16
 376.505859375 1063.82324219 376.505859375 1063.82324219 333.604492188 792.954101562 c 0,0,0
 333.053710938 789.481445312 333.053710938 789.481445312 332.490234375 786 c 0,1,2
 303.34765625 602 303.34765625 602 242.897460938 435 c 0,3,4
 182.2890625 267 182.2890625 267 102.2734375 128 c 0,5,6
 20.416015625 -10 20.416015625 -10 -75.36328125 -97 c 1,7,-1
 0.037109375 -246 l 1,0,1
EndSplineSet
EndChar

StartChar: braceleft
Encoding: 123 123 558
Width: 512
VWidth: 2486
GlyphClass: 1
Flags: HW
LayerCount: 2
Fore
SplineSet
314.381835938 -187 m 2,0,1
 231.381835938 -187 231.381835938 -187 171.504882812 -151.5 c 128,-1,2
 111.626953125 -116 111.626953125 -116 90.2783203125 -23.5 c 128,-1,3
 70.0517578125 64.1318359375 70.0517578125 64.1318359375 95.232421875 223.115234375 c 0,0,0
 96.6318359375 231.947265625 96.6318359375 231.947265625 98.1708984375 241 c 2,4,-1
 140.81640625 485 l 2,5,6
 157.763671875 592 157.763671875 592 154.579101562 644.5 c 128,-1,7
 151.393554688 697 151.393554688 697 130.848632812 712.5 c 128,-1,8
 110.303710938 728 110.303710938 728 76.3037109375 728 c 2,9,-1
 53.3037109375 728 l 1,10,-1
 84.34765625 924 l 1,11,-1
 107.34765625 924 l 2,12,13
 160.34765625 924 160.34765625 924 193.711914062 970.5 c 128,-1,14
 227.077148438 1017 227.077148438 1017 249.092773438 1156 c 2,15,-1
 274.809570312 1331 l 2,16,17
 308.38671875 1543 308.38671875 1543 398.833984375 1650 c 128,-1,18
 489.28125 1757 489.28125 1757 591.28125 1757 c 2,19,-1
 664.28125 1757 l 1,20,-1
 636.247070312 1580 l 1,21,-1
 572.247070312 1580 l 2,22,23
 533.247070312 1580 533.247070312 1580 496.2734375 1526.5 c 128,-1,24
 461.724609375 1476.5078125 461.724609375 1476.5078125 445.440429688 1373.69042969 c 0,0,0
 444.296875 1366.47558594 444.296875 1366.47558594 443.244140625 1359 c 2,25,-1
 419.001953125 1187 l 2,26,27
 397.620117188 1052 397.620117188 1052 352.366210938 962 c 128,-1,28
 307.111328125 872 307.111328125 872 249.825195312 826 c 1,29,30
 291.6484375 787 291.6484375 787 307.65625 695.5 c 128,-1,31
 323.6640625 604 323.6640625 604 298.956054688 448 c 2,32,-1
 264.487304688 243 l 2,33,34
 241.6796875 99 241.6796875 99 259.310546875 43 c 128,-1,35
 276.94140625 -13 276.94140625 -13 328.94140625 -13 c 2,36,-1
 381.94140625 -13 l 1,37,-1
 354.381835938 -187 l 1,38,-1
 314.381835938 -187 l 2,0,1
EndSplineSet
EndChar

StartChar: braceright
Encoding: 125 125 559
Width: 512
VWidth: 2486
GlyphClass: 1
Flags: HW
LayerCount: 2
Fore
SplineSet
-49.6181640625 -187 m 2,0,1
 33.3818359375 -187 33.3818359375 -187 104.92578125 -152 c 0,2,3
 175.626953125 -116 175.626953125 -116 227.357421875 -23 c 0,4,5
 274.040039062 60.9267578125 274.040039062 60.9267578125 297.393554688 208.376953125 c 0,0,0
 299.918945312 224.317382812 299.918945312 224.317382812 302.170898438 241 c 2,1,-1
 336.81640625 485 l 2,2,3
 353.763671875 592 353.763671875 592 374.158203125 645 c 0,4,5
 393.393554688 697 393.393554688 697 418.927734375 713 c 0,6,7
 443.303710938 728 443.303710938 728 478.303710938 728 c 2,8,-1
 501.303710938 728 l 1,9,-1
 532.34765625 924 l 1,10,-1
 509.34765625 924 l 2,11,12
 456.34765625 924 456.34765625 924 437.6328125 970 c 0,13,14
 418.623046875 1014.35742188 418.623046875 1014.35742188 439.4921875 1146.12011719 c 0,0,0
 440.264648438 1151 440.264648438 1151 441.092773438 1156 c 2,1,-1
 470.809570312 1331 l 2,2,3
 504.38671875 1543 504.38671875 1543 448.493164062 1651 c 0,4,5
 391.28125 1757 391.28125 1757 289.28125 1757 c 2,6,-1
 216.28125 1757 l 1,7,-1
 188.247070312 1580 l 1,8,-1
 252.247070312 1580 l 2,9,10
 291.247070312 1580 291.247070312 1580 310.853515625 1527 c 0,11,12
 329.981445312 1476.48339844 329.981445312 1476.48339844 313.6640625 1373.45996094 c 0,0,0
 312.538085938 1366.35449219 312.538085938 1366.35449219 311.244140625 1359 c 2,1,-1
 281.001953125 1187 l 2,2,3
 259.620117188 1052 259.620117188 1052 275.524414062 963 c 0,4,5
 292.111328125 872 292.111328125 872 335.825195312 826 c 1,6,7
 281.6484375 787 281.6484375 787 236.235351562 696 c 0,8,9
 192.087890625 606.875 192.087890625 606.875 168.458984375 457.6875 c 0,0,0
 167.697265625 452.875 167.697265625 452.875 166.956054688 448 c 2,1,-1
 136.487304688 243 l 2,2,3
 113.6796875 99 113.6796875 99 77.810546875 43 c 0,4,5
 41.94140625 -13 41.94140625 -13 -9.05859375 -13 c 2,6,-1
 -62.05859375 -13 l 1,7,-1
 -89.6181640625 -187 l 1,8,-1
 -49.6181640625 -187 l 2,0,1
EndSplineSet
EndChar

StartChar: bracketleft
Encoding: 91 91 560
Width: 465
VWidth: 2516
GlyphClass: 1
Flags: HW
LayerCount: 2
Fore
SplineSet
-84.490234375 -142 m 1,0,-1
 208.99609375 1711 l 1,1,-1
 606.99609375 1711 l 1,2,-1
 575.635742188 1513 l 1,3,-1
 353.635742188 1513 l 1,4,-1
 121.602539062 48 l 1,5,-1
 346.602539062 48 l 1,6,-1
 316.509765625 -142 l 1,7,-1
 -84.490234375 -142 l 1,0,-1
EndSplineSet
EndChar

StartChar: bracketright
Encoding: 93 93 561
Width: 465
VWidth: 2516
GlyphClass: 1
Flags: HW
LayerCount: 2
Fore
SplineSet
316.509765625 -142 m 1,0,-1
 609.99609375 1711 l 1,1,-1
 210.99609375 1711 l 1,2,-1
 179.635742188 1513 l 1,3,-1
 401.635742188 1513 l 1,4,-1
 169.602539062 48 l 1,5,-1
 -54.3974609375 48 l 1,6,-1
 -84.490234375 -142 l 1,7,-1
 316.509765625 -142 l 1,0,-1
EndSplineSet
EndChar

StartChar: hyphen
Encoding: 45 45 562
Width: 426
VWidth: 2441
GlyphClass: 1
Flags: HW
LayerCount: 2
Fore
SplineSet
45.859375 681 m 1,0,-1
 76.7451171875 876 l 1,1,-1
 438.745117188 876 l 1,2,-1
 407.859375 681 l 1,3,-1
 45.859375 681 l 1,0,-1
EndSplineSet
EndChar

StartChar: endash
Encoding: 8211 8211 564
Width: 512
VWidth: 2441
GlyphClass: 1
Flags: HW
LayerCount: 2
Fore
SplineSet
45.859375 681 m 1,0,-1
 76.7451171875 876 l 1,1,-1
 524.745117188 876 l 1,2,-1
 493.859375 681 l 1,3,-1
 45.859375 681 l 1,0,-1
EndSplineSet
EndChar

StartChar: emdash
Encoding: 8212 8212 565
Width: 440
VWidth: 2441
GlyphClass: 1
Flags: HW
LayerCount: 2
Fore
SplineSet
-1.140625 681 m 1,0,-1
 29.7451171875 876 l 1,1,-1
 477.745117188 876 l 1,2,-1
 446.859375 681 l 1,3,-1
 -1.140625 681 l 1,0,-1
EndSplineSet
EndChar

StartChar: underscore
Encoding: 95 95 569
Width: 507
VWidth: 2441
GlyphClass: 1
Flags: HW
LayerCount: 2
Fore
SplineSet
-103.012695312 -240 m 1,0,-1
 -72.7607421875 -49 l 1,1,-1
 375.239257812 -49 l 1,2,-1
 344.987304688 -240 l 1,3,-1
 -103.012695312 -240 l 1,0,-1
EndSplineSet
EndChar

StartChar: quotedblleft
Encoding: 8220 8220 572
Width: 515
VWidth: 2441
GlyphClass: 1
Flags: HW
LayerCount: 2
Fore
SplineSet
320.762695312 1558 m 1,0,-1
 392.250976562 1479 l 1,1,2
 346.796875 1413 346.796875 1413 312.685546875 1346 c 128,-1,3
 278.573242188 1279 278.573242188 1279 269.387695312 1221 c 0,4,5
 263.84375 1186 263.84375 1186 272.701171875 1163 c 128,-1,6
 281.55859375 1140 281.55859375 1140 289.282226562 1113 c 128,-1,7
 297.005859375 1086 297.005859375 1086 290.51171875 1045 c 0,8,9
 280.850585938 984 280.850585938 984 248.33203125 946 c 128,-1,10
 215.813476562 908 215.813476562 908 179.813476562 908 c 0,11,12
 142.813476562 908 142.813476562 908 118.490234375 947 c 128,-1,13
 94.1669921875 986 94.1669921875 986 106.6796875 1065 c 0,14,15
 124.1015625 1175 124.1015625 1175 174.6328125 1292 c 128,-1,16
 225.1640625 1409 225.1640625 1409 320.762695312 1558 c 1,0,-1
550.762695312 1558 m 1,17,-1
 620.250976562 1479 l 1,18,19
 574.796875 1413 574.796875 1413 541.685546875 1346 c 128,-1,20
 508.573242188 1279 508.573242188 1279 499.387695312 1221 c 0,21,22
 493.84375 1186 493.84375 1186 502.701171875 1163 c 128,-1,23
 511.55859375 1140 511.55859375 1140 519.782226562 1113 c 128,-1,24
 528.005859375 1086 528.005859375 1086 521.51171875 1045 c 0,25,26
 511.850585938 984 511.850585938 984 478.83203125 946 c 128,-1,27
 445.813476562 908 445.813476562 908 409.813476562 908 c 0,28,29
 372.813476562 908 372.813476562 908 348.490234375 947 c 128,-1,30
 324.166992188 986 324.166992188 986 336.6796875 1065 c 0,31,32
 354.1015625 1175 354.1015625 1175 404.6328125 1292 c 128,-1,33
 455.1640625 1409 455.1640625 1409 550.762695312 1558 c 1,17,-1
EndSplineSet
EndChar

StartChar: quoteleft
Encoding: 8216 8216 574
Width: 343
VWidth: 2441
GlyphClass: 1
Flags: HW
LayerCount: 2
Fore
SplineSet
354.762695312 1558 m 1,0,-1
 451.250976562 1479 l 1,1,2
 396.796875 1413 396.796875 1413 356.685546875 1346 c 128,-1,3
 316.573242188 1279 316.573242188 1279 307.387695312 1221 c 0,4,5
 301.84375 1186 301.84375 1186 313.701171875 1163 c 128,-1,6
 325.55859375 1140 325.55859375 1140 336.282226562 1113 c 128,-1,7
 347.005859375 1086 347.005859375 1086 340.51171875 1045 c 0,8,9
 330.850585938 984 330.850585938 984 290.33203125 946 c 128,-1,10
 249.813476562 908 249.813476562 908 206.813476562 908 c 0,11,12
 160.813476562 908 160.813476562 908 127.490234375 947 c 128,-1,13
 94.1669921875 986 94.1669921875 986 106.6796875 1065 c 0,14,15
 124.1015625 1175 124.1015625 1175 182.1328125 1292 c 128,-1,16
 240.1640625 1409 240.1640625 1409 354.762695312 1558 c 1,0,-1
EndSplineSet
EndChar

StartChar: quoteright
Encoding: 8217 8217 575
Width: 342
VWidth: 2441
GlyphClass: 1
Flags: HW
LayerCount: 2
Fore
SplineSet
188.813476562 908 m 1,0,-1
 94.1669921875 986 l 1,1,2
 148.145507812 1049 148.145507812 1049 188.494140625 1117.5 c 128,-1,3
 228.84375 1186 228.84375 1186 238.188476562 1245 c 0,4,5
 243.732421875 1280 243.732421875 1280 230.875 1303 c 128,-1,6
 218.017578125 1326 218.017578125 1326 208.21484375 1352.5 c 128,-1,7
 198.412109375 1379 198.412109375 1379 205.064453125 1421 c 0,8,9
 214.725585938 1482 214.725585938 1482 254.744140625 1520 c 128,-1,10
 294.762695312 1558 294.762695312 1558 338.762695312 1558 c 0,11,12
 384.762695312 1558 384.762695312 1558 417.506835938 1518.5 c 128,-1,13
 450.250976562 1479 450.250976562 1479 438.0546875 1402 c 0,14,15
 420.6328125 1292 420.6328125 1292 361.864257812 1173.5 c 128,-1,16
 303.095703125 1055 303.095703125 1055 188.813476562 908 c 1,0,-1
EndSplineSet
EndChar

StartChar: guillemotleft
Encoding: 171 171 576
Width: 519
VWidth: 2441
GlyphClass: 1
Flags: HW
LayerCount: 2
Fore
SplineSet
325.055664062 114 m 1,0,-1
 223.745117188 554 l 1,1,-1
 236.416015625 634 l 1,2,-1
 463.551757812 1020 l 1,3,-1
 519.537109375 881 l 1,4,-1
 345.60546875 591 l 1,5,-1
 424.645507812 244 l 1,6,-1
 325.055664062 114 l 1,0,-1
129.055664062 114 m 1,7,-1
 25.7451171875 554 l 1,8,-1
 38.416015625 634 l 1,9,-1
 268.551757812 1020 l 1,10,-1
 319.645507812 888 l 1,11,-1
 151.60546875 591 l 1,12,-1
 225.329101562 242 l 1,13,-1
 129.055664062 114 l 1,7,-1
EndSplineSet
EndChar

StartChar: guilsinglleft
Encoding: 8249 8249 578
Width: 376
VWidth: 2441
GlyphClass: 1
Flags: HW
LayerCount: 2
Fore
SplineSet
159.629882812 105 m 1,0,-1
 24.3193359375 545 l 1,1,-1
 37.306640625 627 l 1,2,-1
 298.918945312 1016 l 1,3,-1
 380.319335938 867 l 1,4,-1
 196.337890625 583 l 1,5,-1
 290.229492188 254 l 1,6,-1
 159.629882812 105 l 1,0,-1
EndSplineSet
EndChar

StartChar: guilsinglright
Encoding: 8250 8250 579
Width: 374
VWidth: 2441
GlyphClass: 1
Flags: HW
LayerCount: 2
Fore
SplineSet
59.6298828125 105 m 1,0,-1
 -21.7705078125 254 l 1,1,-1
 175.337890625 583 l 1,2,-1
 80.3193359375 867 l 1,3,-1
 208.918945312 1016 l 1,4,-1
 347.306640625 627 l 1,5,-1
 334.319335938 545 l 1,6,-1
 59.6298828125 105 l 1,0,-1
EndSplineSet
EndChar

